<svg xmlns="http://www.w3.org/2000/svg" viewBox="0 0 100 100"><g stroke="#514a3d" stroke-width="2.5" stroke-linecap="round" stroke-linejoin="round"><path fill="#fff7dc" d="M23 41l1-25 17 12 20-3 14-11 3 31q21 26-1 42H24Q5 74 23 41Z"/><path fill="#dc8d76" d="M29 21l10 10-10 6m37-6 9-11-1 15"/><path fill="none" d="M34 45q5 6 10 0m14-2q5 6 10 0M44 57q10 10 18-1"/><path fill="#d65348" d="M28 64h43v8H28Z"/><circle fill="#e9c567" cx="50" cy="73" r="7"/><path fill="#fff7dc" d="M22 61Q6 59 9 37q13-14 19 2v15"/></g></svg>