<svg xmlns="http://www.w3.org/2000/svg" width="53" height="56" viewBox="0 0 53 56"><defs><clipPath id="clip-item-51"><path d="M10.00,40.00L22.00,18.00L31.00,10.00L38.00,11.00L42.00,18.00L36.00,31.00L21.00,45.00Z" clip-rule="evenodd"/></clipPath></defs><g clip-path="url(#clip-item-51)">
<path d="M0 0 C17.49 0 34.98 0 53 0 C53 18.48 53 36.96 53 56 C35.51 56 18.02 56 0 56 C0 37.52 0 19.04 0 0 Z " fill="#743518" transform="translate(0,0)"/>
<path d="M0 0 C17.49 0 34.98 0 53 0 C53 1.98 53 3.96 53 6 C52.49 6.1 51.98 6.2 51.46 6.3 C47.65 7.26 44.92 8.53 42.8 11.93 C41.95 13.44 41.12 14.96 40.33 16.5 C38.5 20 36.49 23.39 34.49 26.79 C33.82 27.92 33.17 29.06 32.51 30.2 C32.1 30.91 31.68 31.63 31.27 32.34 C31.09 32.66 30.9 32.99 30.71 33.32 C28.5 37.09 25.97 39.22 22 41 C22.66 39.02 23.32 37.04 24 35 C23.34 34.67 22.68 34.34 22 34 C23.32 34 24.64 34 26 34 C26.12 33.53 26.24 33.06 26.37 32.57 C26.54 31.95 26.71 31.32 26.88 30.69 C26.91 30.53 26.91 30.53 27.11 29.75 C27.67 27.7 28.37 25.45 30 24 C30.66 24 31.32 24 32 24 C32.33 22.02 32.66 20.04 33 18 C34.32 17.67 35.64 17.34 37 17 C37 14.36 37 11.72 37 9 C33.7 9 30.4 9 27 9 C26.06 11.88 26.06 11.88 25.77 12.77 C25.29 14.25 24.74 15.62 24 17 C23.34 17 22.68 17 22 17 C21.34 18.98 20.68 20.96 20 23 C18.35 23.33 16.7 23.66 15 24 C14.89 24.57 14.78 25.14 14.67 25.72 C13.64 30.79 12.25 35.34 10 40 C9.01 40 8.02 40 7 40 C7.33 40.99 7.66 41.98 8 43 C5.69 43 3.38 43 1 43 C-0.13 39.62 -0.13 39.62 -0.12 38.12 C-0.12 37.78 -0.12 37.44 -0.12 37.09 C-0.12 36.73 -0.12 36.36 -0.11 35.99 C-0.11 35.59 -0.11 35.19 -0.11 34.78 C-0.11 33.51 -0.11 32.23 -0.1 30.96 C-0.1 30.17 -0.1 29.37 -0.09 28.58 C-0.09 25.66 -0.08 22.74 -0.06 19.81 C-0.04 13.27 -0.02 6.74 0 0 Z " fill="#B9400D" transform="translate(0,0)"/>
<path d="M0 0 C0.18 1.69 0.28 3.37 0.38 5.06 C0.43 5.53 0.48 5.99 0.53 6.47 C0.67 10.02 -0.33 11.75 -2.71 14.35 C-2.99 14.64 -3.26 14.93 -3.54 15.23 C-5.52 17.37 -7.08 19.55 -8.53 22.09 C-8.73 22.43 -8.92 22.78 -9.13 23.14 C-9.53 23.85 -9.93 24.57 -10.33 25.28 C-14.06 31.97 -17.96 38.21 -23 44 C-29.37 43.51 -29.37 43.51 -30.91 42.27 C-31.39 41.52 -31.74 40.85 -32 40 C-32.33 40.16 -32.33 40.16 -34 41 C-32.89 38.03 -31.23 36.04 -28.94 33.93 C-25.8 30.99 -23.57 27.43 -21.48 23.7 C-21.01 22.88 -20.54 22.06 -20.07 21.24 C-19.35 19.97 -18.63 18.7 -17.91 17.43 C-15.51 13.18 -13.1 8.97 -10.28 4.98 C-10.08 4.7 -9.88 4.42 -9.67 4.12 C-6.99 0.43 -4.38 -0.11 0 0 Z " fill="#E66926" transform="translate(53,6)"/>
<path d="M0 0 C1.02 0.81 1.46 1.31 1.91 2.54 C1.96 4.59 1.43 6.57 0.91 8.54 C-0.41 8.87 -1.73 9.2 -3.09 9.54 C-3.42 11.52 -3.75 13.5 -4.09 15.54 C-4.75 15.54 -5.41 15.54 -6.09 15.54 C-6.21 15.93 -6.34 16.31 -6.46 16.71 C-8.66 23.59 -8.66 23.59 -10.09 25.54 C-10.42 25.66 -10.75 25.77 -11.09 25.89 C-12.09 26.54 -12.09 26.54 -12.37 27.36 C-12.52 28.05 -12.67 28.75 -12.81 29.45 C-13.59 32.46 -15.66 35.61 -18.09 37.54 C-20.19 38.36 -23 38.43 -25.09 37.54 C-25.81 36.91 -26.44 36.24 -27.09 35.54 C-26.87 35.19 -26.64 34.84 -26.41 34.48 C-20.75 25.65 -16.11 16.62 -12.01 6.98 C-11.83 6.56 -11.65 6.14 -11.46 5.7 C-11.12 4.91 -10.79 4.12 -10.46 3.32 C-9.35 0.72 -9.35 0.72 -8.07 -0.19 C-5.49 -0.9 -2.49 -1.05 0 0 Z " fill="#F7A551" transform="translate(36.09375,8.4609375)"/>
<path d="M0 0 C9.57 0 19.14 0 29 0 C29 1.98 29 3.96 29 6 C28.49 6.1 27.98 6.2 27.46 6.3 C23.65 7.26 20.92 8.53 18.8 11.93 C17.95 13.44 17.12 14.96 16.33 16.5 C14.5 20 12.49 23.39 10.49 26.79 C9.82 27.92 9.17 29.06 8.51 30.2 C8.1 30.91 7.68 31.63 7.27 32.34 C7.09 32.66 6.9 32.99 6.71 33.32 C4.5 37.09 1.97 39.22 -2 41 C-1.34 39.02 -0.68 37.04 0 35 C-0.66 34.67 -1.32 34.34 -2 34 C-0.68 34 0.64 34 2 34 C2.12 33.53 2.24 33.06 2.37 32.57 C2.54 31.95 2.71 31.32 2.88 30.69 C2.95 30.38 3.03 30.07 3.11 29.75 C3.67 27.7 4.37 25.45 6 24 C6.66 24 7.32 24 8 24 C8.33 22.02 8.66 20.04 9 18 C10.32 17.67 11.64 17.34 13 17 C13 14.36 13 11.72 13 9 C9.7 9 6.4 9 3 9 C2.06 11.88 2.06 11.88 1.77 12.77 C1.29 14.25 0.74 15.62 0 17 C-0.66 16.67 -1.32 16.34 -2 16 C-1.91 15.79 -1.82 15.58 -1.72 15.36 C0.15 10.93 1.81 6.87 1 2 C0.67 1.34 0.34 0.68 0 0 Z " fill="#571C06" transform="translate(24,0)"/>
<path d="M0 0 C5.28 0 10.56 0 16 0 C15.61 1.15 15.23 2.3 14.83 3.48 C14.3 5.05 13.78 6.62 13.25 8.19 C13.18 8.39 13.18 8.39 12.84 9.42 C11.08 14.66 9.39 19.9 7.81 25.19 C6.49 29.6 4.99 33.85 3 38 C2.01 37.67 1.02 37.34 0 37 C0 24.79 0 12.58 0 0 Z " fill="#D24F12" transform="translate(0,0)"/>
<path d="M0 0 C5.8 1.38 5.8 1.38 8.35 1.99 C10.06 2.4 11.78 2.8 13.49 3.21 C15.15 3.6 16.8 4 18.46 4.39 C18.73 4.46 19.01 4.53 19.29 4.59 C22.23 5.3 25.17 6.03 28.08 6.86 C28.33 6.93 28.57 7 28.83 7.07 C29.97 7.4 31.12 7.73 32.26 8.08 C36.82 9.4 41.3 9.28 46 9 C46.33 7.68 46.66 6.36 47 5 C48.98 5 50.96 5 53 5 C53 7.31 53 9.62 53 12 C35.51 12 18.02 12 0 12 C0 8.04 0 4.08 0 0 Z " fill="#CCA57B" transform="translate(0,44)"/>
<path d="M0 0 C0.1 2.31 0.17 4.62 0.22 6.93 C0.24 7.72 0.27 8.5 0.3 9.28 C0.52 14.31 0.2 17.93 -2.94 22 C-4 23 -4 23 -5.13 23.15 C-5.28 23.13 -5.28 23.13 -6 23 C-6.33 23.99 -6.66 24.98 -7 26 C-7.66 26 -8.32 26 -9 26 C-9 26.66 -9 27.32 -9 28 C-10.43 28.68 -11.87 29.34 -13.31 30 C-13.72 30.19 -14.12 30.38 -14.54 30.58 C-16.81 31.61 -18.5 32.26 -21 32 C-19.74 28.39 -18.17 25.62 -15.88 22.56 C-12.42 17.85 -9.55 12.86 -6.75 7.73 C-2.5 0 -2.5 0 0 0 Z " fill="#F48536" transform="translate(53,19)"/>
<path d="M0 0 C0.35 0.01 0.71 0.01 1.07 0.02 C1.26 0.03 1.26 0.03 2.18 0.07 C2.37 0.07 2.37 0.07 3.31 0.1 C4.22 0.12 5.14 0.15 6.05 0.2 C6.05 1.19 6.05 2.18 6.05 3.2 C5.73 3.31 5.41 3.43 5.09 3.56 C4.05 4.2 4.05 4.2 3.71 5.2 C3.66 5.6 3.61 6 3.56 6.41 C3.5 6.85 3.43 7.29 3.36 7.74 C3.24 8.66 3.13 9.59 3.02 10.51 C2.5 13.84 2.5 13.84 1.09 14.96 C0.09 15.46 -0.88 15.86 -1.95 16.2 C-1.95 16.86 -1.95 17.52 -1.95 18.2 C-2.61 18.2 -3.27 18.2 -3.95 18.2 C-3.99 18.47 -4.04 18.75 -4.09 19.04 C-4.71 22.03 -4.71 22.03 -6.01 22.95 C-6.16 22.99 -6.16 22.99 -6.95 23.2 C-6.76 23.44 -6.57 23.69 -6.38 23.95 C-5.71 25.86 -6.12 27.37 -6.95 29.2 C-7.61 29.91 -7.61 29.91 -8.38 30.57 C-10.64 32.55 -11.18 35.4 -11.95 38.2 C-12.61 38.2 -13.27 38.2 -13.95 38.2 C-13.39 33.1 -12.23 28.43 -10.63 23.57 C-10.29 22.52 -9.96 21.48 -9.62 20.43 C-9.4 19.72 -9.17 19.02 -8.94 18.31 C-8.19 15.99 -7.48 13.67 -6.8 11.34 C-6.62 10.74 -6.44 10.13 -6.26 9.53 C-6.01 8.69 -5.76 7.84 -5.52 6.99 C-5.3 6.21 -5.07 5.44 -4.84 4.67 C-4.71 4.24 -4.59 3.81 -4.46 3.36 C-3.54 1.28 -2.36 -0.08 0 0 Z " fill="#F0A05A" transform="translate(17.9453125,-0.1953125)"/>
<path d="M0 0 C0.84 0.66 1.42 1.12 2 2 C2.11 3.09 1.88 4.06 1.62 5.12 C1.57 5.4 1.51 5.68 1.45 5.96 C1.31 6.65 1.16 7.32 1 8 C-0.32 8.33 -1.64 8.66 -3 9 C-3.33 10.98 -3.66 12.96 -4 15 C-4.66 15 -5.32 15 -6 15 C-6.12 15.39 -6.24 15.77 -6.37 16.17 C-8.56 23.05 -8.56 23.05 -10 25 C-10.33 25.12 -10.66 25.23 -11 25.36 C-12 26 -12 26 -12.28 26.82 C-12.43 27.51 -12.57 28.21 -12.72 28.91 C-13.49 31.9 -15.55 35.11 -18 37 C-20.3 37.79 -22.66 37.43 -25 37 C-24.73 36.93 -24.47 36.85 -24.2 36.77 C-21.4 35.73 -21.4 35.73 -20.65 34.35 C-20.25 33.32 -19.94 32.28 -19.68 31.21 C-19.2 29.25 -18.54 28.32 -17 27 C-17.33 26.01 -17.66 25.02 -18 24 C-16.68 24 -15.36 24 -14 24 C-13.95 23.69 -13.9 23.37 -13.85 23.05 C-13.33 20.06 -12.51 17.62 -11 15 C-10.01 15 -9.02 15 -8 15 C-7.9 14.74 -7.8 14.49 -7.7 14.22 C-7.15 12.81 -6.58 11.4 -6 10 C-5.85 9.64 -5.7 9.27 -5.54 8.9 C-5.04 7.68 -4.52 6.46 -4 5.25 C-3.92 5.05 -3.92 5.05 -3.5 4.04 C-3.33 3.66 -3.17 3.28 -3 2.89 C-2.93 2.72 -2.93 2.72 -2.56 1.86 C-1.86 0.79 -1.17 0.48 0 0 Z " fill="#E06121" transform="translate(36,9)"/>
<path d="M0 0 C5.94 0 11.88 0 18 0 C18 1.32 18 2.64 18 4 C18.02 4.54 18.05 5.08 18.07 5.63 C18.08 5.88 18.08 5.88 18.12 7.12 C18.13 7.25 18.13 7.25 18.18 7.89 C18.2 8.94 18.18 9.76 17.55 10.62 C16.99 11.18 16.99 11.18 16 12 C15.01 11.67 14.02 11.34 13 11 C13 10.34 13 9.68 13 9 C9.7 9 6.4 9 3 9 C2.06 11.88 2.06 11.88 1.77 12.77 C1.29 14.25 0.74 15.62 0 17 C-0.66 16.67 -1.32 16.34 -2 16 C-1.91 15.79 -1.82 15.58 -1.72 15.36 C0.15 10.93 1.81 6.87 1 2 C0.67 1.34 0.34 0.68 0 0 Z " fill="#47200A" transform="translate(24,0)"/>
<path d="M0 0 C6.4 1.11 12.72 2.31 19 4 C19.33 5.32 19.66 6.64 20 8 C17.6 9.9 16.01 10.28 12.99 10.2 C12.62 10.19 12.24 10.19 11.86 10.19 C10.68 10.18 9.49 10.15 8.31 10.12 C7.51 10.11 6.7 10.11 5.9 10.1 C3.93 10.08 1.97 10.04 0 10 C0 6.7 0 3.4 0 0 Z " fill="#B47A4D" transform="translate(0,46)"/>
<path d="M0 0 C-0.48 3.71 -1.48 8.99 -4.6 11.48 C-5.66 12.13 -6.77 12.66 -7.88 13.21 C-9.3 14.21 -9.48 14.97 -9.94 16.62 C-10.33 17.93 -10.33 17.93 -11 19 C-12.84 19.9 -14.98 19.93 -17 20 C-16.46 16.08 -15.2 12.88 -13.31 9.44 C-13.18 9.2 -13.05 8.95 -12.91 8.71 C-10.24 3.84 -6.31 -1.34 0 0 Z " fill="#EF9146" transform="translate(53,6)"/>
<path d="M0 0 C0.33 0 0.66 0 1 0 C1 4.29 1 8.58 1 13 C-0.98 13.33 -2.96 13.66 -5 14 C-5.05 14.24 -5.05 14.24 -5.31 15.44 C-5.49 16.25 -5.49 16.25 -6 17 C-8.15 17.95 -10.11 18.19 -12.44 18.19 C-12.74 18.19 -13.05 18.19 -13.36 18.19 C-15.92 18.13 -17.88 17.48 -20 16 C-16.94 13.44 -13.34 10.89 -9.19 10.88 C-8.8 10.92 -8.4 10.96 -8 11 C-8.06 10.72 -8.12 10.44 -8.18 10.15 C-7.89 8.32 -6.55 7.68 -5.12 6.62 C-2.68 4.72 -0.98 3.03 0 0 Z " fill="#7A3212" transform="translate(52,36)"/>
<path d="M0 0 C0.99 0.33 1.98 0.66 3 1 C2.91 1.21 2.81 1.42 2.71 1.63 C0.03 7.64 -1.81 13.71 -3.5 20.06 C-5.17 26.34 -6.97 32.22 -10 38 C-10.99 37.67 -11.98 37.34 -13 37 C-13 31.72 -13 26.44 -13 21 C-10.69 21.33 -8.38 21.66 -6 22 C-5.01 16.72 -4.02 11.44 -3 6 C-2.34 6 -1.68 6 -1 6 C-0.67 4.02 -0.34 2.04 0 0 Z " fill="#611E08" transform="translate(13,0)"/>
<path d="M0 0 C1.65 0.33 3.3 0.66 5 1 C4.53 4.15 3.48 5.8 1.45 8.13 C-0.07 9.94 -0.74 11.64 -1 14 C-1.99 14 -2.98 14 -4 14 C-4.06 14.27 -4.12 14.53 -4.18 14.8 C-4.27 15.16 -4.35 15.51 -4.44 15.88 C-4.52 16.22 -4.6 16.57 -4.68 16.93 C-5.03 18.09 -5.31 19 -6 20 C-7.19 20.41 -7.19 20.41 -8.56 20.62 C-9.02 20.7 -9.47 20.77 -9.94 20.85 C-10.29 20.9 -10.64 20.95 -11 21 C-11.33 20.34 -11.66 19.68 -12 19 C-12.66 19.33 -13.32 19.66 -14 20 C-13 17.33 -11.59 15.45 -9.56 13.5 C-5.43 9.52 -2.76 4.99 0 0 Z " fill="#F98E40" transform="translate(33,27)"/>
<path d="M0 0 C0.99 0.33 1.98 0.66 3 1 C-0.17 11.91 -0.17 11.91 -2 16 C-2.99 16 -3.98 16 -5 16 C-4.67 16.99 -4.34 17.98 -4 19 C-6.31 19 -8.62 19 -11 19 C-11.33 17.02 -11.66 15.04 -12 13 C-10.68 12.67 -9.36 12.34 -8 12 C-8 12.66 -8 13.32 -8 14 C-7.34 14 -6.68 14 -6 14 C-5.98 13.8 -5.98 13.8 -5.85 12.79 C-5.49 10.11 -5.16 7.73 -3.6 5.45 C-3 5 -3 5 -1 5 C-0.67 3.35 -0.34 1.7 0 0 Z " fill="#CB5118" transform="translate(12,24)"/>
<path d="M0 0 C0.26 2.71 -0.39 3.8 -2.06 5.88 C-4.16 8.69 -4.16 8.69 -4.04 10.5 C-3.78 11.72 -3.47 12.84 -3 14 C-4.32 14.33 -5.64 14.66 -7 15 C-7.04 15.4 -7.07 15.8 -7.11 16.21 C-7.48 19.35 -7.82 21.43 -10.38 23.55 C-10.58 23.7 -10.79 23.85 -11 24 C-10.67 24.66 -10.34 25.32 -10 26 C-10.2 26.05 -10.2 26.05 -11.24 26.3 C-15.54 27.45 -15.54 27.45 -16.84 29.02 C-17.32 30.01 -17.7 30.95 -18 32 C-18.66 32 -19.32 32 -20 32 C-18.74 28.39 -17.17 25.62 -14.88 22.56 C-11.42 17.85 -8.55 12.86 -5.75 7.73 C-4.14 4.8 -2.65 2.15 0 0 Z " fill="#F08D3C" transform="translate(52,19)"/>
<path d="M0 0 C0.21 2.67 0.21 2.67 -0.72 4.11 C-0.89 4.29 -0.89 4.29 -1.73 5.2 C-3.49 7.23 -4.86 9.35 -6.15 11.71 C-6.24 11.87 -6.24 11.87 -6.69 12.71 C-7.07 13.39 -7.44 14.07 -7.81 14.76 C-10.64 20.01 -13.43 25.15 -17.32 29.7 C-18.45 31.05 -19.14 31.9 -19.15 33.7 C-19.13 33.91 -19.13 33.91 -19 35 C-23.91 34.54 -28.4 33.8 -33 32 C-30.34 30.93 -28.11 31.02 -25.35 31.47 C-25.02 31.52 -24.7 31.57 -24.37 31.62 C-23.58 31.75 -22.79 31.87 -22 32 C-20.68 30.15 -19.37 28.3 -18.06 26.44 C-17.86 26.15 -17.66 25.87 -17.46 25.57 C-13.72 20.22 -10.33 14.7 -7.1 9.03 C-5.08 5.53 -3.06 2.66 0 0 Z " fill="#551D0A" transform="translate(52,17)"/>
<path d="M0 0 C0.99 0.33 1.98 0.66 3 1 C2.86 1.2 2.72 1.41 2.58 1.62 C-0.58 6.25 -3.59 10.93 -6.49 15.72 C-9.72 21.06 -13.1 26.12 -17 31 C-18.32 30.67 -19.64 30.34 -21 30 C-18.85 27.66 -18.85 27.66 -18 27 C-17.34 27 -16.68 27 -16 27 C-15.67 25.68 -15.34 24.36 -15 23 C-14.34 23 -13.68 23 -13 23 C-13 22.34 -13 21.68 -13 21 C-12.34 21 -11.68 21 -11 21 C-11 20.01 -11 19.02 -11 18 C-10.34 18 -9.68 18 -9 18 C-8.67 16.35 -8.34 14.7 -8 13 C-7.34 13 -6.68 13 -6 13 C-6 11.68 -6 10.36 -6 9 C-5.34 9 -4.68 9 -4 9 C-3.96 8.69 -3.93 8.37 -3.89 8.05 C-3.37 4.66 -2.27 2.55 0 0 Z " fill="#AA3F11" transform="translate(47,19)"/>
<path d="M0 0 C0.99 0 1.98 0 3 0 C2.54 3.74 1.55 7.13 -1 10 C-2.1 10.14 -2.1 10.14 -3 10 C-3.33 10.99 -3.66 11.98 -4 13 C-4.66 13 -5.32 13 -6 13 C-6 13.66 -6 14.32 -6 15 C-9.3 16.32 -12.6 17.64 -16 19 C-14 14 -14 14 -12.49 13.29 C-11.69 13.21 -11.69 13.21 -10.88 13.19 C-10.74 13.17 -10.74 13.17 -10.04 13.11 C-9.36 13.05 -8.68 13.02 -8 13 C-8.04 12.71 -8.07 12.42 -8.11 12.12 C-7.96 10.59 -7.36 10.16 -6.25 9.12 C-6.07 8.95 -5.89 8.78 -5.71 8.61 C-4.96 7.88 -4.19 7.17 -3.42 6.48 C-0.14 3.52 -0.14 3.52 0.25 2.08 C0.25 1.25 0.25 1.25 0 0 Z " fill="#D35A19" transform="translate(50,32)"/>
<path d="M0 0 C1.98 0 3.96 0 6 0 C6 2.31 6 4.62 6 7 C1.05 7 -3.9 7 -9 7 C-8 5 -8 5 -7.24 4.68 C-6.96 4.65 -6.67 4.62 -6.37 4.59 C-6.06 4.55 -5.75 4.51 -5.42 4.47 C-5.1 4.44 -4.77 4.41 -4.44 4.38 C-4.11 4.34 -3.78 4.3 -3.44 4.26 C-2.63 4.16 -1.81 4.08 -1 4 C-0.67 2.68 -0.34 1.36 0 0 Z " fill="#AD8752" transform="translate(47,49)"/>
<path d="M0 0 C-0.66 0.33 -0.66 0.33 -4 2 C-4 2.66 -4 3.32 -4 4 C-4.66 4 -5.32 4 -6 4 C-6.33 6.97 -6.66 9.94 -7 13 C-8.65 13 -10.3 13 -12 13 C-11.36 4.15 -11.36 4.15 -9.16 0.83 C-6.58 -1.02 -3.01 -0.32 0 0 Z " fill="#F3A254" transform="translate(24,0)"/>
<path d="M0 0 C1.98 0.66 3.96 1.32 6 2 C5.14 6.13 3.46 10.33 0 13 C-2.3 13.79 -4.66 13.43 -7 13 C-6.73 12.93 -6.47 12.85 -6.2 12.77 C-3.4 11.73 -3.4 11.73 -2.65 10.35 C-2.25 9.32 -1.94 8.28 -1.68 7.21 C-1.2 5.25 -0.54 4.32 1 3 C0.67 2.01 0.34 1.02 0 0 Z " fill="#F0732A" transform="translate(18,33)"/>
<path d="M0 0 C-0.34 5.61 -1 10.18 -4 15 C-4.12 14.69 -4.25 14.38 -4.38 14.06 C-5.11 12.81 -5.71 12.58 -7 12 C-6.72 10.37 -6.42 8.75 -6.12 7.12 C-6.05 6.66 -5.97 6.2 -5.89 5.73 C-5.17 1.91 -5.17 1.91 -4.12 0.68 C-2.61 -0.24 -1.74 -0.16 0 0 Z " fill="#D45B1B" transform="translate(26,2)"/>
<path d="M0 0 C0.59 1.34 0.96 2.53 1 4 C0.27 5.59 -0.65 6.88 -2 8 C-3.11 8.11 -3.11 8.11 -4 8 C-4.03 8.35 -4.05 8.7 -4.08 9.07 C-4.56 13.69 -6.51 17.13 -9 21 C-9.99 21 -10.98 21 -12 21 C-12.33 21.66 -12.66 22.32 -13 23 C-13 22.34 -13 21.68 -13 21 C-13.66 20.67 -14.32 20.34 -15 20 C-13.68 20 -12.36 20 -11 20 C-10.88 19.53 -10.76 19.06 -10.63 18.57 C-10.46 17.95 -10.29 17.32 -10.12 16.69 C-10.05 16.38 -9.97 16.07 -9.89 15.75 C-9.33 13.7 -8.63 11.45 -7 10 C-6.34 10 -5.68 10 -5 10 C-4.67 8.02 -4.34 6.04 -4 4 C-2.68 3.67 -1.36 3.34 0 3 C0 2.01 0 1.02 0 0 Z " fill="#BC3F0D" transform="translate(37,14)"/>
<path d="M0 0 C1.13 0.12 2.27 0.25 3.44 0.38 C3.62 0.39 3.62 0.39 4.52 0.48 C6.78 0.76 6.78 0.76 7.82 1.88 C8.03 3.21 7.72 3.76 6.97 4.86 C6.66 5.29 6.34 5.71 6.03 6.14 C5.59 6.78 5.59 6.78 5 8 C5.33 8.66 5.66 9.32 6 10 C4.02 10 2.04 10 0 10 C0 6.7 0 3.4 0 0 Z " fill="#9A7041" transform="translate(0,46)"/>
<path d="M0 0 C0 1.98 0 3.96 0 6 C-1.48 6.5 -1.48 6.5 -9 9 C-9.33 7.35 -9.66 5.7 -10 4 C-3.85 -0.59 -3.85 -0.59 0 0 Z " fill="#715B12" transform="translate(53,0)"/>
<path d="M0 0 C2.31 0 4.62 0 7 0 C6.01 2.64 6.01 2.64 1 16 C0.67 16 0.34 16 0 16 C0 10.72 0 5.44 0 0 Z " fill="#483311" transform="translate(0,0)"/>
<path d="M0 0 C0.92 1.54 1.1 2.39 0.73 4.14 C0.65 4.55 0.56 4.96 0.48 5.38 C0.38 5.81 0.29 6.24 0.19 6.69 C0.09 7.13 0 7.57 -0.1 8.03 C-0.9 11.74 -1.87 15.38 -3 19 C-4.32 19.33 -5.64 19.66 -7 20 C-6.45 16.04 -5.61 12.32 -4.33 8.53 C-4.06 7.74 -3.8 6.94 -3.55 6.15 C-3.38 5.64 -3.21 5.12 -3.04 4.61 C-2.88 4.16 -2.73 3.7 -2.58 3.23 C-1.9 1.79 -1.18 1.06 0 0 Z " fill="#F07F35" transform="translate(7,0)"/>
<path d="M0 0 C-0.38 0.94 -0.38 0.94 -1 2 C-1.33 2.14 -1.66 2.28 -2 2.42 C-3 3 -3 3 -3.41 4.03 C-3.48 4.45 -3.56 4.86 -3.63 5.29 C-3.72 5.73 -3.8 6.18 -3.89 6.64 C-3.97 7.11 -4.04 7.58 -4.12 8.06 C-4.21 8.53 -4.3 9.01 -4.39 9.49 C-4.6 10.66 -4.8 11.83 -5 13 C-7.4 13.72 -9.26 14.19 -11.75 13.56 C-12.18 13.46 -12.61 13.36 -13.05 13.25 C-13.36 13.17 -13.68 13.09 -14 13 C-13.67 12.01 -13.34 11.02 -13 10 C-13 10.66 -13 11.32 -13 12 C-11.68 11.67 -10.36 11.34 -9 11 C-9.02 10.67 -9.05 10.35 -9.07 10.01 C-9.18 7.46 -9.2 5.55 -7.58 3.49 C-7 3 -7 3 -5.88 2.81 C-5.73 2.84 -5.73 2.84 -5 3 C-5 2.34 -5 1.68 -5 1 C-3.24 -0.08 -2 -0.09 0 0 Z " fill="#F88133" transform="translate(25,1)"/>
<path d="M0 0 C1.65 0 3.3 0 5 0 C4.67 1.98 4.34 3.96 4 6 C2.68 6 1.36 6 0 6 C-0.05 6.53 -0.1 7.06 -0.15 7.61 C-0.89 14.89 -0.89 14.89 -3 18 C-4.05 16.3 -4.05 15.27 -3.73 13.32 C-3.71 13.19 -3.71 13.19 -3.61 12.55 C-3.52 12.01 -3.43 11.48 -3.33 10.94 C-3.19 10.14 -3.06 9.33 -2.94 8.52 C-2.42 5.39 -1.59 2.78 0 0 Z " fill="#D85B1D" transform="translate(8,0)"/>
<path d="M0 0 C0.29 0.05 0.59 0.11 0.89 0.16 C0.89 0.82 0.89 1.48 0.89 2.16 C1.55 2.49 2.21 2.82 2.89 3.16 C2.22 4.5 1.5 5.8 0.77 7.1 C0.58 7.47 0.39 7.85 0.2 8.23 C-1.32 10.86 -1.32 10.86 -2.82 11.44 C-4.57 11.88 -6.32 12.05 -8.11 12.16 C-7.16 10.45 -6.2 8.74 -5.23 7.04 C-4.9 6.46 -4.57 5.87 -4.25 5.29 C-3.78 4.45 -3.31 3.62 -2.83 2.79 C-2.76 2.66 -2.76 2.66 -2.4 1.99 C-1.36 0.2 -1.36 0.2 0 0 Z " fill="#F59A4C" transform="translate(17.10791015625,32.8359375)"/>
<path d="M0 0 C2.31 0.33 4.62 0.66 7 1 C6.76 1.3 6.76 1.3 5.56 2.81 C4.27 4.52 3.52 5.93 3 8 C1.02 8.33 -0.96 8.66 -3 9 C-2.43 5.6 -1.67 3.01 0 0 Z " fill="#F07C37" transform="translate(39,17)"/>
<path d="M0 0 C-0.33 2.64 -0.66 5.28 -1 8 C-3.97 7.67 -6.94 7.34 -10 7 C-9.34 5.68 -8.68 4.36 -8 3 C-7.75 2.42 -7.51 1.84 -7.25 1.25 C-5.77 -1 -2.28 -0.15 0 0 Z " fill="#819A2E" transform="translate(42,0)"/>
<path d="M0 0 C1.03 1.76 1.03 1.76 0.88 2.85 C0.59 3.57 0.29 4.28 0 5 C-0.66 5 -1.32 5 -2 5 C-2 5.99 -2 6.98 -2 8 C-2.66 8 -3.32 8 -4 8 C-4 8.66 -4 9.32 -4 10 C-4.66 10 -5.32 10 -6 10 C-6.01 10.13 -6.01 10.13 -6.04 10.77 C-6.3 12.64 -6.65 13.68 -8.07 14.97 C-9.57 16 -11.12 17.03 -13 16.96 C-13.81 16.69 -13.81 16.69 -15 16 C-14.73 16 -14.47 15.99 -14.2 15.99 C-12.91 15.85 -12.12 15.68 -11 15 C-9.91 13.19 -9.47 11.04 -9 9 C-8.01 9 -7.02 9 -6 9 C-5.9 8.77 -5.8 8.54 -5.7 8.3 C-4.25 5.14 -2.23 2.64 0 0 Z " fill="#DD5D1E" transform="translate(38,32)"/>
<path d="M0 0 C1.65 0.33 3.3 0.66 5 1 C4.67 2.32 4.34 3.64 4 5 C2.35 5 0.7 5 -1 5 C-1.66 7.31 -2.32 9.62 -3 12 C-3.66 12 -4.32 12 -5 12 C-5 12.99 -5 13.98 -5 15 C-5.66 15 -6.32 15 -7 15 C-5.56 9.53 -2.83 4.86 0 0 Z " fill="#F49C4F" transform="translate(33,27)"/>
<path d="M0 0 C1.13 2.42 1.13 2.42 0.81 3.85 C0.41 4.8 -0.03 5.71 -0.51 6.62 C-0.68 6.96 -0.85 7.3 -1.03 7.64 C-1.39 8.36 -1.75 9.08 -2.12 9.79 C-2.68 10.86 -3.22 11.94 -3.76 13.02 C-5.79 17.05 -7.99 20.63 -11 24 C-10.57 20.25 -9.39 17.72 -7.45 14.53 C-6.19 12.42 -5.31 10.47 -5 8 C-4.34 8 -3.68 8 -3 8 C-2.87 7.59 -2.73 7.18 -2.6 6.76 C-2.42 6.21 -2.24 5.67 -2.06 5.12 C-2.02 4.99 -2.02 4.99 -1.8 4.31 C-1.3 2.8 -0.75 1.4 0 0 Z " fill="#4B1B08" transform="translate(22,17)"/>
<path d="M0 0 C0.18 2.5 -0.31 4.01 -1.5 6.19 C-1.64 6.46 -1.79 6.73 -1.93 7.01 C-2.28 7.68 -2.64 8.34 -3 9 C-3.99 9 -4.98 9 -6 9 C-6 8.34 -6 7.68 -6 7 C-6.99 7 -7.98 7 -9 7 C-8.66 5.19 -8.26 3.39 -7 2 C-4.87 0.82 -2.38 0.43 0 0 Z " fill="#F67D31" transform="translate(52,8)"/>
<path d="M0 0 C2.31 0 4.62 0 7 0 C6.17 0.54 5.35 1.07 4.5 1.62 C3.54 2.33 2.71 3.03 2 4 C1.82 5.28 1.88 6.36 2.03 7.63 C2.3 11.04 0.02 13.46 -2 16 C-2.36 15.38 -2.72 14.75 -3.06 14.12 C-3.26 13.78 -3.46 13.43 -3.66 13.07 C-4 12 -4 12 -3.56 10.87 C-3.37 10.58 -3.19 10.29 -3 10 C-2.34 10 -1.68 10 -1 10 C-0.97 9.04 -0.95 8.08 -0.94 7.12 C-0.93 6.86 -0.92 6.59 -0.91 6.31 C-0.89 4.61 -1.08 3.49 -2 2 C-1.34 2 -0.68 2 0 2 C0 1.34 0 0.68 0 0 Z " fill="#2D1C05" transform="translate(42,0)"/>
<path d="M0 0 C0.99 0.33 1.98 0.66 3 1 C0.51 7.71 0.51 7.71 -1 9 C-1.66 9 -2.32 9 -3 9 C-3.33 10.65 -3.66 12.3 -4 14 C-4.66 14 -5.32 14 -6 14 C-5.24 7.85 -5.24 7.85 -3.6 5.45 C-3 5 -3 5 -1 5 C-0.67 3.35 -0.34 1.7 0 0 Z " fill="#EB6723" transform="translate(12,24)"/>
<path d="M0 0 C0 3.37 0 3.37 -0.88 4.5 C-0.97 4.62 -0.97 4.62 -1.42 5.25 C-1.81 5.75 -2.19 6.25 -2.58 6.75 C-3.93 8.6 -4.22 9.71 -4 12 C-8.91 11.54 -13.4 10.8 -18 9 C-14.23 7.48 -10.89 8.33 -7 9 C-4.69 6.03 -2.38 3.06 0 0 Z " fill="#4C1E0D" transform="translate(37,40)"/>
<path d="M0 0 C-0.32 0.13 -0.63 0.27 -0.96 0.4 C-2 1 -2 1 -2.41 1.75 C-2.48 2.02 -2.55 2.29 -2.62 2.56 C-2.75 3.04 -2.87 3.51 -3 4 C-4.32 4 -5.64 4 -7 4 C-6.26 6.83 -6.26 6.83 -4.94 7.69 C-4.63 7.79 -4.32 7.89 -4 8 C-4 8.66 -4 9.32 -4 10 C-5.65 9.67 -7.3 9.34 -9 9 C-8.39 2.52 -8.39 2.52 -5.96 0.46 C-4.06 -0.44 -2.05 -0.22 0 0 Z " fill="#F2B466" transform="translate(34,8)"/>
<path d="M0 0 C3.13 4.7 3.13 4.7 3.1 7.38 C3.09 7.83 3.09 8.27 3.09 8.73 C3.08 9.19 3.07 9.65 3.06 10.12 C3.06 10.59 3.05 11.06 3.05 11.54 C3.04 12.7 3.02 13.85 3 15 C2.01 14.67 1.02 14.34 0 14 C0 9.38 0 4.76 0 0 Z " fill="#405612" transform="translate(0,23)"/>
<path d="M0 0 C0.26 2.71 -0.39 3.8 -2.06 5.88 C-4.16 8.69 -4.16 8.69 -4.04 10.5 C-3.78 11.72 -3.47 12.84 -3 14 C-3.13 14.02 -3.13 14.02 -3.8 14.15 C-6.16 14.65 -7.48 15.11 -9 17 C-8.47 13.38 -7.45 10.53 -5.62 7.38 C-5.52 7.18 -5.52 7.18 -4.99 6.22 C-3.62 3.79 -2.09 1.86 0 0 Z " fill="#F4A656" transform="translate(52,19)"/>
<path d="M0 0 C1.32 0.33 2.64 0.66 4 1 C3.34 1 2.68 1 2 1 C1.99 1.33 1.97 1.66 1.96 2 C1.42 7.33 -1.26 11.49 -4 16 C-4.89 13.93 -5.16 12.79 -4.35 10.68 C-4.24 10.41 -4.12 10.14 -4 9.86 C-3.89 9.58 -3.78 9.29 -3.66 9 C-3.31 8.1 -2.93 7.21 -2.56 6.31 C-2.32 5.7 -2.07 5.09 -1.83 4.47 C-1.23 2.98 -0.62 1.49 0 0 Z " fill="#A9390D" transform="translate(15,24)"/>
<path d="M0 0 C0.66 0.66 1.32 1.32 2 2 C1.7 2.08 1.41 2.16 1.1 2.25 C-0.63 3.43 -0.97 5.13 -1.62 7.06 C-1.76 7.44 -1.89 7.82 -2.03 8.21 C-2.36 9.13 -2.68 10.07 -3 11 C-3.05 10.79 -3.11 10.58 -3.16 10.37 C-3.81 8.13 -3.81 8.13 -4.75 7.49 C-5.02 7.43 -5.29 7.37 -5.56 7.31 C-6.04 7.21 -6.51 7.11 -7 7 C-7 6.01 -7 5.02 -7 4 C-6.75 3.96 -6.49 3.93 -6.23 3.89 C-3.35 3.34 -1.86 2.24 0 0 Z " fill="#F4893F" transform="translate(34,8)"/>
<path d="M0 0 C0.99 0 1.98 0 3 0 C2.34 2.31 1.68 4.62 1 7 C-0.98 7.33 -2.96 7.66 -5 8 C-5.33 7.34 -5.66 6.68 -6 6 C-5.01 6 -4.02 6 -3 6 C-2.67 4.68 -2.34 3.36 -2 2 C-1.34 2 -0.68 2 0 2 C0 1.34 0 0.68 0 0 Z " fill="#F06F28" transform="translate(16,16)"/>
<path d="M0 0 C0.33 0 0.66 0 1 0 C1.05 0.96 1.09 1.92 1.12 2.88 C1.13 3.01 1.13 3.01 1.18 3.69 C1.22 5.68 1.22 5.68 0.55 6.64 C-0.01 7.2 -0.01 7.2 -1 8 C-1.99 7.67 -2.98 7.34 -4 7 C-4 6.34 -4 5.68 -4 5 C-6.31 4.67 -8.62 4.34 -11 4 C-9 2 -9 2 -8.04 1.86 C-7.71 1.92 -7.39 1.97 -7.05 2.02 C-6.7 2.08 -6.35 2.13 -5.98 2.18 C-5.62 2.24 -5.25 2.31 -4.88 2.38 C-4.69 2.4 -4.69 2.4 -3.75 2.55 C-2.83 2.69 -1.91 2.84 -1 3 C-0.67 2.01 -0.34 1.02 0 0 Z " fill="#585D1B" transform="translate(41,4)"/>
<path d="M0 0 C0.14 0 0.14 0 0.84 0.03 C1.52 0.05 2.2 0.09 2.88 0.12 C2.21 0.46 2.21 0.46 -1.12 2.12 C-1.12 2.79 -1.12 3.45 -1.12 4.12 C-1.79 4.12 -2.45 4.12 -3.12 4.12 C-3.79 5.45 -4.45 6.77 -5.12 8.12 C-5.79 8.12 -6.45 8.12 -7.12 8.12 C-6.84 7.16 -6.55 6.21 -6.25 5.25 C-6.21 5.12 -6.21 5.12 -6.01 4.43 C-4.97 1.15 -3.44 -0.21 0 0 Z " fill="#FA9943" transform="translate(21.125,-0.125)"/>
<path d="M0 0 C0.63 1.14 0.95 1.73 1 3 C0.24 4.57 -0.83 5.85 -1.94 7.19 C-2.23 7.56 -2.52 7.92 -2.82 8.3 C-3.54 9.21 -4.26 10.11 -5 11 C-5.66 10.67 -6.32 10.34 -7 10 C-5.98 5.59 -5.98 5.59 -5 4 C-3.92 3.43 -3.1 3.33 -1.89 3.21 C-1 3 -1 3 -0.52 2.29 C-0.25 1.44 -0.25 1.44 0 0 Z " fill="#DA5216" transform="translate(23,35)"/>
<path d="M0 0 C1.34 3.43 0.72 5.85 -0.44 9.25 C-0.59 9.71 -0.73 10.17 -0.88 10.64 C-1.25 11.76 -1.62 12.88 -2 14 C-2.66 14 -3.32 14 -4 14 C-3.55 8.85 -2.25 4.65 0 0 Z " fill="#EAA158" transform="translate(8,24)"/>
<path d="M0 0 C3.07 2.79 3.07 2.79 3.56 4.62 C4 6 4 6 5.03 6.59 C5.35 6.72 5.67 6.86 6 7 C5.89 7.96 5.76 8.92 5.62 9.88 C5.59 10.14 5.56 10.41 5.53 10.69 C5.23 12.76 4.6 13.66 3 15 C2 10 1 5 0 0 Z " fill="#281F06" transform="translate(0,21)"/>
<path d="M0 0 C0.73 0.98 1.04 1.69 0.9 2.92 C0.65 4 0.37 5.06 0.06 6.12 C-0.04 6.5 -0.14 6.87 -0.24 7.25 C-0.49 8.17 -0.74 9.09 -1 10 C-1.66 10 -2.32 10 -3 10 C-3.33 11.65 -3.66 13.3 -4 15 C-5.34 11.35 -4.67 9.29 -3.12 5.81 C-2.94 5.36 -2.75 4.91 -2.56 4.45 C-1.18 1.18 -1.18 1.18 0 0 Z " fill="#EA9B58" transform="translate(7,0)"/>
<path d="M0 0 C1.65 0.33 1.65 0.33 10 2 C6.58 4.28 6.58 4.28 4.44 4.69 C4.02 4.77 3.61 4.86 3.18 4.95 C1.82 5.01 1.15 4.7 0 4 C0 2.68 0 1.36 0 0 Z " fill="#B98255" transform="translate(9,48)"/>
<path d="M0 0 C0 0.99 0 1.98 0 3 C-0.45 3.06 -0.91 3.12 -1.38 3.19 C-2.21 3.45 -2.21 3.45 -3 4 C-3.5 5.11 -3.5 5.11 -3.94 6.44 C-4.74 8.8 -4.74 8.8 -6.01 9.77 C-7 10.25 -7.96 10.66 -9 11 C-9.33 10.34 -9.66 9.68 -10 9 C-9.01 9 -8.02 9 -7 9 C-6.67 7.68 -6.34 6.36 -6 5 C-5.34 5 -4.68 5 -4 5 C-3.88 4.72 -3.76 4.45 -3.63 4.16 C-3.47 3.8 -3.3 3.44 -3.12 3.06 C-2.96 2.7 -2.8 2.34 -2.63 1.97 C-1.89 0.83 -1.25 0.5 0 0 Z " fill="#EF772B" transform="translate(50,33)"/>
<path d="M0 0 C0.66 0.33 1.32 0.66 2 1 C1.34 2.32 0.68 3.64 0 5 C-0.99 5 -1.98 5 -3 5 C-3.66 6.98 -4.32 8.96 -5 11 C-6.21 7.63 -6.21 7.63 -5.62 5.84 C-5.12 4.86 -4.6 3.93 -4 3 C-3.34 3 -2.68 3 -2 3 C-2 2.34 -2 1.68 -2 1 C-1.12 0.44 -1.12 0.44 0 0 Z " fill="#FA8538" transform="translate(28,19)"/>
<path d="M0 0 C0.83 0.16 0.83 0.16 5 1 C5 2.32 5 3.64 5 5 C3.35 5.33 1.7 5.66 0 6 C0 4.02 0 2.04 0 0 Z " fill="#A87246" transform="translate(0,46)"/>
<path d="M0 0 C0.66 0 1.32 0 2 0 C1.49 3.32 0.15 5.46 -2 8 C-3.32 7.67 -4.64 7.34 -6 7 C-3.85 4.66 -3.85 4.66 -3 4 C-2.34 4 -1.68 4 -1 4 C-0.67 2.68 -0.34 1.36 0 0 Z " fill="#A93F13" transform="translate(32,42)"/>
<path d="M0 0 C0.59 1.34 0.96 2.53 1 4 C0.27 5.59 -0.65 6.88 -2 8 C-2.66 8 -3.32 8 -4 8 C-4.33 9.32 -4.66 10.64 -5 12 C-5.45 6.81 -5.45 6.81 -4.4 4.93 C-3.27 3.75 -2.57 3.04 -0.9 2.93 C-0.6 2.95 -0.31 2.98 0 3 C0 2.01 0 1.02 0 0 Z " fill="#942E0A" transform="translate(37,14)"/>
<path d="M0 0 C0.33 0.99 0.66 1.98 1 3 C0.04 3.51 -0.91 4 -1.88 4.5 C-2.14 4.64 -2.41 4.79 -2.69 4.93 C-2.96 5.07 -3.22 5.2 -3.49 5.34 C-3.73 5.47 -3.97 5.6 -4.22 5.72 C-5 6 -5 6 -7 6 C-7 4.68 -7 3.36 -7 2 C-4.69 1.34 -2.38 0.68 0 0 Z " fill="#9D9021" transform="translate(51,1)"/>
<path d="M0 0 C-1.71 1.97 -3.27 2.86 -5.9 3.07 C-6.83 3.1 -7.75 3.09 -8.69 3.06 C-8.85 3.06 -8.85 3.06 -9.66 3.05 C-10.44 3.04 -11.22 3.02 -12 3 C-11.22 1.13 -11.22 1.13 -10.27 0.59 C-6.87 -0.21 -3.47 -0.09 0 0 Z " fill="#E0C6A0" transform="translate(50,53)"/>
<path d="M0 0 C-2.4 3.16 -5.33 3.99 -9 5 C-7.73 0.47 -7.73 0.47 -6.08 -0.59 C-3.79 -1.23 -2.14 -0.96 0 0 Z " fill="#EC7022" transform="translate(43,46)"/>
<path d="M0 0 C0.87 2.81 1.21 4.31 0 7 C-1.65 6.67 -3.3 6.34 -5 6 C-3.35 4.02 -1.7 2.04 0 0 Z " fill="#5E1C07" transform="translate(52,41)"/>
<path d="M0 0 C0.33 0.66 0.66 1.32 1 2 C1.66 2 2.32 2 3 2 C2.34 3.98 1.68 5.96 1 8 C0.01 7.67 -0.98 7.34 -2 7 C-1.86 6.21 -1.71 5.42 -1.56 4.62 C-1.48 4.18 -1.4 3.74 -1.32 3.29 C-1.02 2.07 -0.61 1.1 0 0 Z " fill="#EF8E40" transform="translate(42,34)"/>
<path d="M0 0 C0.78 1.52 1.16 2.41 0.71 4.09 C0.2 5.31 -0.35 6.5 -0.94 7.69 C-1.13 8.1 -1.33 8.52 -1.53 8.95 C-2.01 9.97 -2.5 10.99 -3 12 C-3.66 12 -4.32 12 -5 12 C-5 10.68 -5 9.36 -5 8 C-4.34 8 -3.68 8 -3 8 C-2.87 7.59 -2.73 7.18 -2.6 6.76 C-2.42 6.21 -2.24 5.67 -2.06 5.12 C-1.98 4.86 -1.89 4.59 -1.8 4.31 C-1.3 2.8 -0.75 1.4 0 0 Z " fill="#321607" transform="translate(22,17)"/>
<path d="M0 0 C0.66 0 1.32 0 2 0 C2 1.98 2 3.96 2 6 C-1.32 7.11 -3.63 6.9 -7 6 C-6.67 5.01 -6.34 4.02 -6 3 C-6 3.66 -6 4.32 -6 5 C-4.02 5 -2.04 5 0 5 C-0.19 4.55 -0.37 4.09 -0.56 3.62 C-0.99 2.37 -1.04 2.12 -0.56 0.81 C-0.38 0.54 -0.19 0.28 0 0 Z " fill="#E26F2A" transform="translate(18,8)"/>
<path d="M0 0 C1.65 0 3.3 0 5 0 C2.6 4.62 2.6 4.62 1.13 5.55 C0.31 5.81 0.31 5.81 -1 6 C-0.67 4.02 -0.34 2.04 0 0 Z " fill="#ED7A32" transform="translate(29,0)"/>
<path d="M0 0 C0.33 0.66 0.66 1.32 1 2 C1.26 1.96 1.52 1.92 1.79 1.88 C2.99 1.7 4.18 1.54 5.38 1.38 C5.79 1.31 6.2 1.25 6.62 1.18 C9.64 0.79 9.64 0.79 10.74 1.42 C11.29 1.98 11.29 1.98 12 3 C10.47 3.34 8.94 3.66 7.41 3.96 C6.89 4.07 6.37 4.18 5.85 4.3 C5.1 4.46 4.35 4.61 3.6 4.76 C3.15 4.85 2.7 4.95 2.24 5.04 C0.89 5 0.74 4.91 -0.16 4.02 C-0.44 3.68 -0.72 3.35 -1 3 C-0.67 2.01 -0.34 1.02 0 0 Z " fill="#B67D50" transform="translate(8,50)"/>
<path d="M0 0 C0.66 0.66 1.32 1.32 2 2 C-0.29 5.18 -2.17 7.64 -6 9 C-4.53 5.54 -2.4 2.84 0 0 Z " fill="#C47A3A" transform="translate(25,38)"/>
<path d="M0 0 C1.32 0 2.64 0 4 0 C3.86 0.79 3.71 1.58 3.56 2.38 C3.48 2.82 3.4 3.26 3.32 3.71 C3.02 4.93 2.61 5.9 2 7 C1.34 7 0.68 7 0 7 C0 4.69 0 2.38 0 0 Z " fill="#486926" transform="translate(0,1)"/>
<path d="M0 0 C0.33 0.99 0.66 1.98 1 3 C3.31 3 5.62 3 8 3 C8 3.99 8 4.98 8 6 C5.69 5.67 3.38 5.34 1 5 C0.67 3.35 0.34 1.7 0 0 Z " fill="#613112" transform="translate(0,40)"/>
<path d="M0 0 C0 2.31 0 4.62 0 7 C-3.74 5.55 -3.74 5.55 -4.49 3.98 C-4.72 2.98 -4.9 2.02 -5 1 C-3.11 -0.16 -2.49 0 0 0 Z " fill="#92310C" transform="translate(7,22)"/>
<path d="M0 0 C1.27 3.46 1.27 3.46 0.52 5.38 C-0.4 6.48 -1.72 6.51 -3.08 6.75 C-4 7 -4 7 -4.75 8.06 C-4.83 8.37 -4.91 8.68 -5 9 C-4.57 5.14 -2.47 2.8 0 0 Z " fill="#C95017" transform="translate(37,11)"/>
<path d="M0 0 C0.46 6.37 0.46 6.37 -0.67 7.91 C-1.44 8.4 -2.14 8.7 -3 9 C-3.05 7.87 -3.09 6.75 -3.12 5.62 C-3.14 5.31 -3.16 4.99 -3.18 4.66 C-3.21 3.05 -3.2 1.98 -2.05 0.77 C-1 0 -1 0 0 0 Z " fill="#DA561A" transform="translate(53,10)"/>
<path d="M0 0 C0.45 0.01 0.9 0.02 1.37 0.04 C1.6 0.04 1.6 0.04 2.75 0.06 C3.1 0.07 3.45 0.09 3.81 0.1 C3.54 0.27 3.28 0.44 3 0.61 C0.35 2.43 -1.03 4.1 -2.19 7.1 C-2.85 6.77 -3.51 6.44 -4.19 6.1 C-3.88 5.28 -3.57 4.47 -3.25 3.66 C-3.08 3.21 -2.91 2.76 -2.73 2.29 C-2.05 0.78 -1.7 0.14 0 0 Z " fill="#F98637" transform="translate(47.19140625,8.90234375)"/>
<path d="M0 0 C0.33 0 0.66 0 1 0 C1.32 1.76 1.42 3.25 1 5 C-0.32 6.7 -2.21 7.85 -4 9 C-3.59 6.49 -2.79 4.42 -1.5 2.25 C-1.37 2.03 -1.24 1.8 -1.1 1.58 C-0.72 0.95 -0.72 0.95 0 0 Z " fill="#A93F0F" transform="translate(52,36)"/>
<path d="M0 0 C1.98 0.66 3.96 1.32 6 2 C6 2.66 6 3.32 6 4 C4.02 4 2.04 4 0 4 C0 2.68 0 1.36 0 0 Z " fill="#DF6924" transform="translate(2,39)"/>
<path d="M0 0 C0.99 0.33 1.98 0.66 3 1 C2.69 1.27 2.39 1.53 2.07 1.8 C0.8 3.07 0.37 4.43 -0.12 6.12 C-0.21 6.4 -0.3 6.68 -0.39 6.96 C-0.6 7.64 -0.8 8.32 -1 9 C-1.66 9 -2.32 9 -3 9 C-2.48 5.68 -1.68 2.92 0 0 Z " fill="#F37129" transform="translate(25,24)"/>
<path d="M0 0 C0.66 0 1.32 0 2 0 C1.67 3.3 1.34 6.6 1 10 C-1.25 6.62 -1.25 6.62 -0.98 5.18 C-0.92 4.87 -0.87 4.56 -0.82 4.25 C-0.76 3.94 -0.69 3.63 -0.62 3.31 C-0.57 2.99 -0.51 2.67 -0.45 2.34 C-0.31 1.56 -0.16 0.78 0 0 Z " fill="#BB440F" transform="translate(8,6)"/>
<path d="M0 0 C0.75 0.03 1.5 0.07 2.25 0.1 C1.59 1.75 0.93 3.4 0.25 5.1 C-1.07 5.1 -2.39 5.1 -3.75 5.1 C-3.44 4.45 -3.13 3.81 -2.82 3.16 C-2.64 2.8 -2.47 2.44 -2.29 2.07 C-1.24 0.16 -1.24 0.16 0 0 Z " fill="#91A847" transform="translate(35.75390625,1.90234375)"/>
<path d="M0 0 C0.66 0 1.32 0 2 0 C1.34 1.98 0.68 3.96 0 6 C-1.65 6.33 -3.3 6.66 -5 7 C-5.33 6.34 -5.66 5.68 -6 5 C-4.68 5 -3.36 5 -2 5 C-1.34 3.35 -0.68 1.7 0 0 Z " fill="#DD5517" transform="translate(26,28)"/>
<path d="M0 0 C0.68 0.94 1.05 1.64 0.9 2.82 C0.65 3.77 0.37 4.69 0.06 5.62 C-0.04 5.95 -0.14 6.27 -0.24 6.61 C-0.49 7.41 -0.74 8.2 -1 9 C-1.66 9 -2.32 9 -3 9 C-2.22 2.67 -2.22 2.67 0 0 Z " fill="#F57A32" transform="translate(9,29)"/>
<path d="M0 0 C0.99 0.33 1.98 0.66 3 1 C2.4 1.82 1.8 2.63 1.19 3.44 C1.02 3.67 0.86 3.9 0.69 4.13 C-0.68 5.91 -1.83 6.46 -4 7 C-2.82 4.53 -1.57 2.24 0 0 Z " fill="#B54816" transform="translate(47,19)"/>
<path d="M0 0 C0.66 0 1.32 0 2 0 C1.67 1.32 1.34 2.64 1 4 C-0.65 4.33 -2.3 4.66 -4 5 C-4 4.01 -4 3.02 -4 2 C-2.68 2 -1.36 2 0 2 C0 1.34 0 0.68 0 0 Z " fill="#B63B09" transform="translate(6,18)"/>
<path d="M0 0 C1.32 0.33 2.64 0.66 4 1 C2.94 3.11 2.94 3.11 2 4 C0.58 4.28 -0.53 4.15 -2 4 C-1.34 2.68 -0.68 1.36 0 0 Z " fill="#A4390B" transform="translate(42,48)"/>
<path d="M0 0 C0.33 0 0.66 0 1 0 C1 2.31 1 4.62 1 7 C-0.32 6.67 -1.64 6.34 -3 6 C-2.01 4.02 -1.02 2.04 0 0 Z " fill="#FA9945" transform="translate(21,26)"/>
<path d="M0 0 C-0.33 1.32 -0.66 2.64 -1 4 C-2.32 4 -3.64 4 -5 4 C-5 3.01 -5 2.02 -5 1 C-3.11 0.31 -2.06 0 0 0 Z " fill="#FA9145" transform="translate(41,22)"/>
<path d="M0 0 C1.32 0.66 2.64 1.32 4 2 C3.34 2 2.68 2 2 2 C2 2.66 2 3.32 2 4 C1.34 4 0.68 4 0 4 C-0.66 5.32 -1.32 6.64 -2 8 C-1.49 5.26 -0.96 2.61 0 0 Z " fill="#F8843D" transform="translate(14,14)"/>
<path d="M0 0 C-0.33 0.99 -0.66 1.98 -1 3 C-2.98 3 -4.96 3 -7 3 C-4.76 0.31 -3.5 -0.48 0 0 Z " fill="#F2923F" transform="translate(53,6)"/>
<path d="M0 0 C0.66 0.33 1.32 0.66 2 1 C2 2.32 2 3.64 2 5 C0.68 5 -0.64 5 -2 5 C-1.12 1.12 -1.12 1.12 0 0 Z " fill="#E7651D" transform="translate(23,2)"/>
<path d="M0 0 C1.98 0 3.96 0 6 0 C3.75 2.25 3.75 2.25 2.49 2.63 C2.23 2.72 1.96 2.8 1.69 2.89 C1.56 2.93 1.56 2.93 0.88 3.12 C0.74 3.17 0.74 3.17 0.04 3.39 C-0.64 3.6 -1.32 3.8 -2 4 C-1.34 2.68 -0.68 1.36 0 0 Z " fill="#F89C48" transform="translate(18,0)"/>
<path d="M0 0 C-0.34 0.96 -0.34 0.96 -1 2 C-2.19 2.41 -2.19 2.41 -3.56 2.62 C-4.02 2.7 -4.47 2.77 -4.94 2.85 C-5.29 2.9 -5.64 2.95 -6 3 C-5.28 0.24 -5.28 0.24 -4.12 -0.75 C-2.49 -1.11 -1.54 -0.63 0 0 Z " fill="#F17E32" transform="translate(28,45)"/>
<path d="M0 0 C1.14 3.61 1.14 3.61 0.56 5.25 C0.38 5.5 0.19 5.74 0 6 C-0.99 6 -1.98 6 -3 6 C-3.17 4.84 -3.26 4.12 -3 3 C-2.12 1.86 -1.1 0.93 0 0 Z " fill="#BE460B" transform="translate(47,42)"/>
<path d="M0 0 C0.33 1.32 0.66 2.64 1 4 C0.34 4 -0.32 4 -1 4 C-1 4.66 -1 5.32 -1 6 C-1.66 5.67 -2.32 5.34 -3 5 C-3.26 3.06 -3.26 3.06 -3 2 C-2.07 1.1 -1.15 0.62 0 0 Z " fill="#DB5E1B" transform="translate(45,41)"/>
<path d="M0 0 C0.66 0 1.32 0 2 0 C2.33 0.99 2.66 1.98 3 3 C1.02 3.99 -0.96 4.98 -3 6 C-2 4 -1 2 0 0 Z " fill="#7E2E0B" transform="translate(25,35)"/>
<path d="M0 0 C0.45 0.01 0.9 0.02 1.37 0.04 C1.77 0.05 1.77 0.05 3.81 0.1 C2.16 1.75 0.51 3.4 -1.19 5.1 C-2.07 2.07 -2.07 2.07 -2.19 1.1 C-1.19 0.1 -1.19 0.1 0 0 Z " fill="#F88E3C" transform="translate(46.19140625,32.90234375)"/>
<path d="M0 0 C2 2 2 2 2.08 3.04 C1.99 3.37 1.9 3.71 1.81 4.06 C1.77 4.23 1.77 4.23 1.58 5.1 C1 6 1 6 -2 7 C-1.34 4.69 -0.68 2.38 0 0 Z " fill="#FA9848" transform="translate(10,23)"/>
<path d="M0 0 C0.99 0.33 1.98 0.66 3 1 C2.34 2.32 1.68 3.64 1 5 C0.01 4.67 -0.98 4.34 -2 4 C-1.34 2.68 -0.68 1.36 0 0 Z " fill="#F06F2C" transform="translate(8,0)"/>
<path d="M0 0 C0.63 0.91 1.06 1.6 0.9 2.73 C0.65 3.54 0.37 4.33 0.06 5.12 C-0.04 5.4 -0.14 5.68 -0.24 5.96 C-0.49 6.65 -0.74 7.32 -1 8 C-1.66 7.67 -2.32 7.34 -3 7 C-2.69 6.02 -2.38 5.04 -2.06 4.06 C-1.98 3.78 -1.89 3.51 -1.8 3.22 C-1.71 2.95 -1.62 2.69 -1.54 2.41 C-1.46 2.16 -1.38 1.92 -1.3 1.66 C-1 1 -1 1 0 0 Z " fill="#E35F1C" transform="translate(19,38)"/>
<path d="M0 0 C0.33 0.99 0.66 1.98 1 3 C0.34 3 -0.32 3 -1 3 C-1.33 4.32 -1.66 5.64 -2 7 C-2.33 5.02 -2.66 3.04 -3 1 C-2.01 0.67 -1.02 0.34 0 0 Z " fill="#8C612E" transform="translate(3,36)"/>
<path d="M0 0 C0.31 0.02 0.62 0.04 0.94 0.06 C0.94 0.72 0.94 1.38 0.94 2.06 C1.6 2.39 2.26 2.72 2.94 3.06 C2.44 3.39 2.44 3.39 -0.06 5.06 C-0.72 3.74 -1.38 2.42 -2.06 1.06 C-1.06 0.06 -1.06 0.06 0 0 Z " fill="#F28F3E" transform="translate(17.0625,32.9375)"/>
<path d="M0 0 C-0.66 1.32 -1.32 2.64 -2 4 C-2.66 4 -3.32 4 -4 4 C-4.33 4.66 -4.66 5.32 -5 6 C-3.89 0 -3.89 0 0 0 Z " fill="#E65E1D" transform="translate(30,24)"/>
<path d="M0 0 C0.66 0.33 1.32 0.66 2 1 C1.34 2.65 0.68 4.3 0 6 C-0.66 6 -1.32 6 -2 6 C-1.04 1.78 -1.04 1.78 0 0 Z " fill="#DE5515" transform="translate(17,17)"/>
<path d="M0 0 C0.99 0 1.98 0 3 0 C3.33 1.32 3.66 2.64 4 4 C2.35 3.67 0.7 3.34 -1 3 C-0.67 2.01 -0.34 1.02 0 0 Z " fill="#698C25" transform="translate(37,4)"/>
<path d="M0 0 C0.89 1.28 1.59 2.49 2 4 C1.57 5.58 0.9 6.6 0 8 C-0.66 6.02 -1.32 4.04 -2 2 C-1.34 2 -0.68 2 0 2 C0 1.34 0 0.68 0 0 Z " fill="#202C05" transform="translate(42,0)"/>
<path d="M0 0 C0.66 0.33 1.32 0.66 2 1 C1.67 1.99 1.34 2.98 1 4 C-0.32 3.67 -1.64 3.34 -3 3 C-2.01 2.01 -1.02 1.02 0 0 Z " fill="#C24C15" transform="translate(29,46)"/>
<path d="M0 0 C0.56 0.81 0.56 0.81 1 2 C0.79 3.08 0.42 3.97 0 5 C-0.99 5 -1.98 5 -3 5 C-2.69 4.35 -2.38 3.71 -2.06 3.06 C-1.89 2.7 -1.71 2.34 -1.54 1.97 C-1 1 -1 1 0 0 Z " fill="#C86622" transform="translate(52,43)"/>
<path d="M0 0 C1.93 1.57 1.93 1.57 2.13 2.8 C2.13 3.54 2.07 4.27 2 5 C1.01 4.67 0.02 4.34 -1 4 C-0.67 2.68 -0.34 1.36 0 0 Z " fill="#FA9845" transform="translate(41,37)"/>
<path d="M0 0 C1.32 0 2.64 0 4 0 C3.67 0.99 3.34 1.98 3 3 C2.01 3 1.02 3 0 3 C0 2.01 0 1.02 0 0 Z " fill="#F98D43" transform="translate(32,32)"/>
<path d="M0 0 C1.32 0.33 2.64 0.66 4 1 C4 1.66 4 2.32 4 3 C2.68 3 1.36 3 0 3 C0 2.01 0 1.02 0 0 Z " fill="#FBA759" transform="translate(34,27)"/>
<path d="M0 0 C0.33 0 0.66 0 1 0 C1 1.65 1 3.3 1 5 C0.01 5 -0.98 5 -2 5 C-1.34 3.35 -0.68 1.7 0 0 Z " fill="#ED6724" transform="translate(30,19)"/>
<path d="M0 0 C0.33 1.32 0.66 2.64 1 4 C0.51 4.33 0.51 4.33 -2 6 C-2.66 5.34 -3.32 4.68 -4 4 C-2.68 3.67 -1.36 3.34 0 3 C0 2.01 0 1.02 0 0 Z " fill="#AA3D0F" transform="translate(37,14)"/>
<path d="M0 0 C0.33 0.99 0.66 1.98 1 3 C-0.32 3.33 -1.64 3.66 -3 4 C-2.26 1.17 -2.26 1.17 -0.94 0.31 C-0.78 0.26 -0.78 0.26 0 0 Z " fill="#E3742F" transform="translate(36,9)"/>
<path d="M0 0 C0.99 0.33 1.98 0.66 3 1 C2.67 2.65 2.34 4.3 2 6 C0.36 3.85 -0.26 2.71 0 0 Z " fill="#B84D15" transform="translate(22,8)"/>
<path d="M0 0 C1.65 0.33 3.3 0.66 5 1 C3 2 1 3 -1 4 C-0.67 2.68 -0.34 1.36 0 0 Z " fill="#51410F" transform="translate(34,0)"/>
<path d="M0 0 C0.99 0.33 1.98 0.66 3 1 C2.01 1.99 1.02 2.98 0 4 C-0.33 3.01 -0.66 2.02 -1 1 C-0.67 0.67 -0.34 0.34 0 0 Z " fill="#FB8A3C" transform="translate(13,41)"/>
<path d="M0 0 C0.33 0.99 0.66 1.98 1 3 C0.34 3.33 0.34 3.33 -3 5 C-1.12 1.12 -1.12 1.12 0 0 Z " fill="#F9923A" transform="translate(52,21)"/>
<path d="M0 0 C1.5 1.06 1.5 1.06 2 2 C1.88 3.41 1.48 4.68 1 6 C0.19 5.06 -0.5 4.14 -1 3 C-0.88 1.82 -0.52 1.09 0 0 Z " fill="#E89245" transform="translate(22,20)"/>
<path d="M0 0 C0.33 0.99 0.66 1.98 1 3 C0.34 3.33 0.34 3.33 -3 5 C-2.01 3.35 -1.02 1.7 0 0 Z " fill="#FA9A4F" transform="translate(47,13)"/>
<path d="M0 0 C0.99 0 1.98 0 3 0 C2.67 1.32 2.34 2.64 2 4 C1.34 3.67 0.68 3.34 0 3 C0 2.01 0 1.02 0 0 Z " fill="#FB9743" transform="translate(27,12)"/>
<path d="M0 0 C1.32 0.33 2.64 0.66 4 1 C3.67 1.49 3.67 1.49 2 4 C1.34 2.68 0.68 1.36 0 0 Z " fill="#8C320D" transform="translate(6,39)"/>
<path d="M0 0 C0.66 0.99 1.32 1.98 2 3 C0.68 3.33 -0.64 3.66 -2 4 C-1.34 2.68 -0.68 1.36 0 0 Z " fill="#EB883B" transform="translate(39,39)"/>
<path d="M0 0 C0.99 0.33 1.98 0.66 3 1 C2.34 1.33 2.34 1.33 -1 3 C-0.67 2.01 -0.34 1.02 0 0 Z " fill="#C24E19" transform="translate(47,19)"/>
<path d="M0 0 C0.99 0.33 1.98 0.66 3 1 C2.67 1.66 2.34 2.32 2 3 C1.01 2.67 0.02 2.34 -1 2 C-0.67 1.34 -0.34 0.68 0 0 Z " fill="#C2420F" transform="translate(2,20)"/>
<path d="M0 0 C0.83 0.16 0.83 0.16 5 1 C4.51 1.33 4.51 1.33 2 3 C1.34 2.67 0.68 2.34 0 2 C0 1.34 0 0.68 0 0 Z " fill="#F6833A" transform="translate(41,17)"/>
<path d="M0 0 C0.12 0.31 0.25 0.62 0.38 0.94 C1.1 2.18 1.69 2.48 3 3 C1.68 3.33 0.36 3.66 -1 4 C-0.67 2.68 -0.34 1.36 0 0 Z " fill="#DFA357" transform="translate(24,15)"/>
</g></svg>