<svg xmlns="http://www.w3.org/2000/svg" width="73" height="45" viewBox="0 0 73 45"><defs><clipPath id="clip-patch-38"><path d="M7.20,24.88L9.28,30.28L9.40,30.55L9.55,30.81L9.72,31.05L9.91,31.27L10.12,31.48L10.36,31.66L10.61,31.81L10.87,31.95L21.79,36.75L22.05,36.85L22.31,36.92L22.58,36.97L22.86,37.00L23.13,37.00L50.43,35.80L50.74,35.77L51.04,35.71L51.33,35.62L61.21,32.02L61.48,31.91L61.73,31.77L61.98,31.60L62.20,31.42L62.41,31.21L62.59,30.98L62.75,30.74L62.89,30.48L63.00,30.21L63.09,29.94L64.91,22.74L64.97,22.45L65.00,22.17L65.00,21.88L64.97,21.59L64.92,21.31L64.84,21.03L64.73,20.76L64.60,20.50L64.45,20.26L64.27,20.04L59.07,14.04L58.88,13.84L58.68,13.67L58.47,13.51L58.24,13.37L58.00,13.25L47.60,8.69L47.31,8.58L47.01,8.50L46.70,8.46L32.40,7.02L32.04,7.00L31.69,7.03L18.69,8.83L18.38,8.89L18.09,8.98L17.80,9.10L17.53,9.25L17.27,9.42L10.25,14.82L10.02,15.02L9.81,15.24L9.62,15.48L9.46,15.74L9.32,16.01L9.22,16.30L7.14,22.90L7.07,23.18L7.02,23.46L7.00,23.75L7.01,24.04L7.05,24.32L7.11,24.60L7.20,24.88Z" clip-rule="evenodd"/></clipPath></defs><g clip-path="url(#clip-patch-38)">
<path d="M0 0 C24.09 0 48.18 0 73 0 C73 14.85 73 29.7 73 45 C48.91 45 24.82 45 0 45 C0 30.15 0 15.3 0 0 Z " fill="#78716B" transform="translate(0,0)"/>
<path d="M0 0 C2.04 0.12 4.09 0.24 6.13 0.37 C6.83 0.42 7.52 0.46 8.21 0.5 C9.22 0.56 10.23 0.62 11.23 0.68 C11.38 0.69 11.38 0.69 12.15 0.73 C14.87 0.92 17.24 1.45 20 2 C20 11.57 20 21.14 20 31 C-4.09 31 -28.18 31 -53 31 C-53 26.38 -53 21.76 -53 17 C-41.68 15.31 -30.35 13.74 -18.98 12.41 C-18.13 12.31 -17.29 12.21 -16.44 12.11 C-10.61 11.41 -4.88 10.82 1 11 C0.84 9.18 0.84 9.18 0 0 Z " fill="#595B59" transform="translate(53,14)"/>
<path d="M0 0 C21.78 0 43.56 0 66 0 C66 3.3 66 6.6 66 10 C56.25 11.53 46.51 12.38 36.67 13.06 C28.5 13.62 20.38 14.26 12.27 15.51 C7.99 16.09 4.53 16 0 16 C0 10.72 0 5.44 0 0 Z " fill="#252926" transform="translate(0,0)"/>
<path d="M0 0 C2.31 0 4.62 0 7 0 C7 5.28 7 10.56 7 16 C-7.15 14.96 -7.15 14.96 -12.28 14.22 C-12.45 14.2 -12.45 14.2 -13.29 14.09 C-13.58 14.05 -13.86 14 -14.15 13.96 C-15 14 -15 14 -15.83 14.47 C-17.39 15.18 -18.85 15.31 -20.54 15.48 C-20.89 15.52 -21.25 15.56 -21.61 15.6 C-22.78 15.73 -23.95 15.85 -25.12 15.97 C-25.94 16.06 -26.77 16.15 -27.59 16.24 C-29.32 16.42 -31.05 16.6 -32.78 16.78 C-34.54 16.97 -36.29 17.15 -38.04 17.35 C-56.86 19.4 -56.86 19.4 -66 19 C-66 18.01 -66 17.02 -66 16 C-62.56 15.53 -59.13 15.07 -55.69 14.62 C-55.56 14.61 -55.56 14.61 -54.89 14.52 C-44.62 13.2 -34.34 12.33 -24 11.65 C-22.92 11.57 -21.83 11.5 -20.75 11.43 C-20.49 11.41 -20.23 11.4 -19.96 11.38 C-16.67 11.16 -13.43 10.84 -10.17 10.32 C-7.96 9.97 -5.8 9.88 -3.56 9.94 C-2.97 9.95 -2.97 9.95 0 10 C0 6.7 0 3.4 0 0 Z " fill="#C0AF95" transform="translate(66,0)"/>
<path d="M0 0 C0.57 0.13 0.57 0.13 3.44 0.81 C8.08 1.87 12.75 2.69 17.44 3.5 C22.95 4.46 28.44 5.44 33.92 6.57 C34.26 6.64 34.6 6.71 34.94 6.78 C35.69 6.94 36.44 7.1 37.19 7.26 C40.22 7.9 43.23 8.28 46.31 8.56 C46.77 8.61 47.22 8.65 47.69 8.69 C48.79 8.8 49.9 8.9 51 9 C51 9.33 51 9.66 51 10 C50.85 10.01 50.85 10.01 50.08 10.06 C46.22 10.33 42.36 10.6 38.5 10.88 C38.19 10.9 37.88 10.92 37.57 10.94 C29.35 11.53 21.17 12.17 13.02 13.39 C8.65 14.03 4.43 14.07 0 14 C0 9.38 0 4.76 0 0 Z " fill="#292A27" transform="translate(0,2)"/>
<path d="M0 0 C2.04 0.12 4.09 0.24 6.13 0.37 C6.83 0.42 7.52 0.46 8.21 0.5 C9.22 0.56 10.23 0.62 11.23 0.68 C11.38 0.69 11.38 0.69 12.15 0.73 C14.87 0.92 17.24 1.45 20 2 C20 5.63 20 9.26 20 13 C18.75 12.97 17.5 12.94 16.21 12.91 C3.16 12.68 -9.43 13.67 -22.37 15.32 C-26.23 15.81 -30.1 16.27 -33.96 16.74 C-35.28 16.9 -36.6 17.07 -37.92 17.24 C-42.98 17.87 -47.91 18.14 -53 18 C-50.25 16.43 -47.85 15.64 -44.71 15.31 C-44.3 15.26 -43.89 15.22 -43.47 15.17 C-42.13 15.01 -40.79 14.86 -39.45 14.71 C-38.51 14.6 -37.57 14.49 -36.62 14.38 C-34.65 14.16 -32.68 13.93 -30.71 13.71 C-28.45 13.46 -26.19 13.2 -23.93 12.94 C-21.74 12.68 -19.55 12.43 -17.35 12.18 C-16.43 12.08 -15.5 11.97 -14.58 11.86 C-9.35 11.26 -4.27 10.88 1 11 C0.84 9.18 0.84 9.18 0 0 Z " fill="#373631" transform="translate(53,14)"/>
<path d="M0 0 C0.4 0 0.8 0.01 1.22 0.01 C5.4 0.05 9.3 0.32 13.38 1.31 C13.38 3.29 13.38 5.27 13.38 7.31 C4.8 7.31 -3.78 7.31 -12.62 7.31 C-12.62 6.98 -12.62 6.65 -12.62 6.31 C-14.21 6.28 -15.79 6.27 -17.38 6.25 C-17.82 6.24 -18.26 6.23 -18.72 6.22 C-19.16 6.22 -19.6 6.22 -20.05 6.21 C-20.44 6.21 -20.84 6.2 -21.25 6.2 C-23.08 6.35 -24.85 6.87 -26.62 7.31 C-23 7.31 -19.36 7.31 -15.62 7.31 C-15.62 7.64 -15.62 7.97 -15.62 8.31 C-23.32 9.55 -30.8 10.69 -38.62 10.31 C-38.32 9.81 -38.01 9.32 -37.7 8.82 C-37.61 8.69 -37.61 8.69 -37.17 7.99 C-36.62 7.31 -36.62 7.31 -35.5 7.12 C-35.21 7.19 -34.92 7.25 -34.62 7.31 C-34.62 6.65 -34.62 5.99 -34.62 5.31 C-37.27 5.31 -39.91 5.31 -42.62 5.31 C-42.62 4.98 -42.62 4.65 -42.62 4.31 C-12.22 -0.12 -12.22 -0.12 0 0 Z " fill="#444746" transform="translate(59.625,27.6875)"/>
<path d="M0 0 C0.13 0 0.13 0 0.82 0 C5.27 0.01 9.62 0.37 14.01 1.11 C14.01 1.77 14.01 2.43 14.01 3.11 C13.88 3.11 13.88 3.11 13.24 3.09 C9.87 3.01 6.5 2.96 3.14 2.93 C3 2.92 3 2.92 2.3 2.92 C-7.07 2.84 -16.25 3.46 -25.55 4.61 C-25.84 4.65 -26.13 4.69 -26.43 4.72 C-29.95 5.16 -33.47 5.62 -36.99 6.11 C-36 6.44 -35.01 6.77 -33.99 7.11 C-34.32 9.09 -34.65 11.07 -34.99 13.11 C-37.12 13.4 -39.25 13.69 -41.39 13.97 C-42.11 14.06 -42.83 14.16 -43.55 14.26 C-48.75 14.97 -53.74 15.21 -58.99 15.11 C-58.99 12.14 -58.99 9.17 -58.99 6.11 C-52.44 5.32 -45.88 4.54 -39.32 3.77 C-36.28 3.41 -33.23 3.05 -30.19 2.68 C-27.53 2.35 -24.86 2.04 -22.2 1.73 C-20.8 1.56 -19.4 1.4 -17.99 1.22 C-11.99 0.49 -6.06 -0.01 0 0 Z " fill="#91918C" transform="translate(58.989501953125,25.88671875)"/>
<path d="M0 0 C0 0.33 0 0.66 0 1 C-2.64 1.16 -2.64 1.16 -16 2 C-8.06 2.44 -8.06 2.44 -5.56 2.57 C-4.91 2.61 -4.25 2.64 -3.6 2.68 C-3.26 2.7 -2.92 2.72 -2.57 2.73 C-2.24 2.75 -1.92 2.77 -1.58 2.79 C-1.44 2.8 -1.44 2.8 -0.73 2.84 C0 3 0 3 1 4 C2.05 4.07 3.02 4.09 4.06 4.06 C4.34 4.06 4.63 4.05 4.92 4.05 C5.61 4.04 6.31 4.02 7 4 C6.11 5.24 5.56 5.89 4.03 6.18 C2.78 6.25 1.53 6.25 0.27 6.23 C-0.2 6.23 -0.68 6.23 -1.17 6.23 C-2.48 6.23 -3.79 6.22 -5.1 6.2 C-6.47 6.19 -7.83 6.19 -9.2 6.19 C-11.79 6.18 -14.38 6.16 -16.97 6.14 C-19.92 6.12 -22.86 6.11 -25.81 6.1 C-31.87 6.08 -37.94 6.04 -44 6 C-44 5.34 -44 4.68 -44 4 C-40.23 3.3 -36.46 2.64 -32.69 2 C-32.41 1.95 -32.13 1.9 -31.84 1.86 C-21.16 0.06 -10.83 -0.51 0 0 Z " fill="#4F5150" transform="translate(44,39)"/>
<path d="M0 0 C2.89 -0.09 5.78 -0.15 8.67 -0.19 C9.59 -0.2 10.52 -0.22 11.44 -0.24 C12.74 -0.27 14.04 -0.28 15.34 -0.28 C15.73 -0.3 16.11 -0.31 16.5 -0.32 C18.68 -0.3 19.76 0.01 21.32 1.56 C21.53 1.81 21.53 1.81 22.56 3.04 C19.92 3.04 17.28 3.04 14.56 3.04 C14.56 3.37 14.56 3.7 14.56 4.04 C17.86 4.04 21.16 4.04 24.56 4.04 C24.56 4.7 24.56 5.36 24.56 6.04 C21.5 6.07 18.44 6.08 15.38 6.1 C13.96 6.1 12.54 6.11 11.12 6.12 C9.74 6.13 8.37 6.14 6.99 6.14 C6.47 6.14 5.95 6.14 5.43 6.15 C1.71 6.19 -1.44 5.78 -4.92 4.5 C-6.8 3.86 -8.7 3.81 -10.67 3.73 C-10.87 3.72 -10.87 3.72 -11.87 3.66 C-13.12 3.6 -14.37 3.54 -15.63 3.48 C-16.48 3.44 -17.33 3.39 -18.19 3.35 C-20.27 3.24 -22.35 3.14 -24.44 3.04 C-20.59 0.47 -16.48 0.59 -12 0.42 C-11.17 0.38 -10.34 0.35 -9.51 0.31 C-6.34 0.18 -3.17 0.1 0 0 Z " fill="#6C6D6A" transform="translate(48.43878173828125,38.9564208984375)"/>
<path d="M0 0 C0 2.64 0 5.28 0 8 C-5.61 8 -11.22 8 -17 8 C-18.12 5.75 -18.12 5.75 -18.1 4.49 C-18.1 4.36 -18.1 4.36 -18.09 3.69 C-18.08 3.42 -18.07 3.15 -18.06 2.88 C-18.06 2.6 -18.05 2.32 -18.05 2.04 C-18.04 1.36 -18.02 0.68 -18 0 C-11.74 -0.99 -6.29 -0.9 0 0 Z " fill="#45433F" transform="translate(73,16)"/>
<path d="M0 0 C-0.33 0.33 -0.66 0.66 -1 1 C-1.11 2.03 -1.11 2.03 -1.1 3.29 C-1.09 3.73 -1.09 4.18 -1.09 4.64 C-1.08 5.11 -1.07 5.58 -1.06 6.06 C-1.06 6.53 -1.05 7.01 -1.05 7.49 C-1.04 8.66 -1.02 9.83 -1 11 C-2.42 11.2 -3.83 11.38 -5.25 11.56 C-5.65 11.62 -6.04 11.67 -6.45 11.73 C-6.84 11.78 -7.24 11.83 -7.64 11.88 C-8 11.93 -8.35 11.97 -8.72 12.02 C-10 12 -10 12 -14 11 C-13.67 7.7 -13.34 4.4 -13 1 C-11.6 0.65 -10.2 0.3 -8.75 -0.06 C-8.53 -0.12 -8.53 -0.12 -7.44 -0.41 C-4.68 -1.06 -2.67 -0.95 0 0 Z " fill="#605D5A" transform="translate(55,14)"/>
<path d="M0 0 C4.29 0 8.58 0 13 0 C13 2.64 13 5.28 13 8 C8.71 8.66 4.42 9.32 0 10 C0 6.7 0 3.4 0 0 Z " fill="#423F38" transform="translate(51,0)"/>
<path d="M0 0 C0 1.98 0 3.96 0 6 C-2.74 7.15 -5.25 7.12 -8.19 7.06 C-8.42 7.06 -8.42 7.06 -9.59 7.05 C-10.73 7.04 -11.86 7.02 -13 7 C-13 6.67 -13 6.34 -13 6 C-17.29 5.67 -21.58 5.34 -26 5 C-26 4.67 -26 4.34 -26 4 C-20.06 4 -14.12 4 -8 4 C-8 3.67 -8 3.34 -8 3 C-13.61 2.34 -19.22 1.68 -25 1 C-25 0.67 -25 0.34 -25 0 C-16.56 -1.34 -8.47 -0.73 0 0 Z " fill="#464846" transform="translate(73,37)"/>
<path d="M0 0 C0.73 0.01 1.45 0.01 2.18 0.01 C3.91 0.02 5.64 0.04 7.38 0.06 C7.38 0.39 7.38 0.72 7.38 1.06 C3.22 1.57 -0.94 2.08 -5.1 2.58 C-7.03 2.81 -8.96 3.04 -10.89 3.28 C-21.46 4.58 -31.99 5.53 -42.62 6.06 C-42.62 5.4 -42.62 4.74 -42.62 4.06 C-39.67 3.69 -36.71 3.31 -33.76 2.94 C-32.38 2.77 -31.01 2.59 -29.63 2.42 C-9.64 -0.12 -9.64 -0.12 0 0 Z " fill="#847761" transform="translate(42.625,11.9375)"/>
<path d="M0 0 C2.97 0 5.94 0 9 0 C9 3.3 9 6.6 9 10 C6.03 10 3.06 10 0 10 C0 6.7 0 3.4 0 0 Z " fill="#33322E" transform="translate(42,0)"/>
<path d="M0 0 C2.31 0 4.62 0 7 0 C7.08 1.46 7.14 2.91 7.19 4.38 C7.2 4.58 7.2 4.58 7.26 5.62 C7.33 8.48 7.33 8.48 6.54 9.73 C4.16 11.71 0.72 11.22 -2.19 11.12 C-2.75 11.11 -3.32 11.11 -3.88 11.1 C-5.25 11.08 -6.63 11.04 -8 11 C-8 10.67 -8 10.34 -8 10 C-5.36 10 -2.72 10 0 10 C0 6.7 0 3.4 0 0 Z " fill="#6A8578" transform="translate(66,0)"/>
<path d="M0 0 C1.35 0.01 2.7 0 4.05 -0.01 C12.4 -0.01 12.4 -0.01 16.35 1.13 C16.35 1.79 16.35 2.45 16.35 3.13 C-5.7 3.34 -5.7 3.34 -13.65 2.13 C-13.65 1.8 -13.65 1.47 -13.65 1.13 C-9.17 -0.16 -4.62 -0.02 0 0 Z " fill="#3B3F3D" transform="translate(56.6474609375,27.86962890625)"/>
<path d="M0 0 C-0.33 0.33 -0.66 0.66 -1 1 C-1.11 2.03 -1.11 2.03 -1.1 3.29 C-1.09 3.73 -1.09 4.18 -1.09 4.64 C-1.08 5.11 -1.07 5.58 -1.06 6.06 C-1.06 6.53 -1.05 7.01 -1.05 7.49 C-1.04 8.66 -1.02 9.83 -1 11 C-2.65 10.67 -4.3 10.34 -6 10 C-6 7.36 -6 4.72 -6 2 C-7.98 2 -9.96 2 -12 2 C-12 1.67 -12 1.34 -12 1 C-10.75 0.63 -9.5 0.28 -8.25 -0.06 C-7.9 -0.17 -7.55 -0.27 -7.2 -0.38 C-4.52 -1.09 -2.61 -0.9 0 0 Z " fill="#55534D" transform="translate(55,14)"/>
<path d="M0 0 C0.2 0.01 0.2 0.01 1.2 0.08 C2.45 0.16 3.7 0.25 4.96 0.35 C5.81 0.41 6.66 0.47 7.52 0.52 C9.6 0.66 11.69 0.82 13.77 0.98 C13.77 1.31 13.77 1.64 13.77 1.98 C17.07 1.98 20.37 1.98 23.77 1.98 C23.77 2.64 23.77 3.3 23.77 3.98 C20.71 4 17.65 4.02 14.59 4.03 C13.17 4.03 11.75 4.04 10.33 4.05 C8.95 4.06 7.58 4.07 6.2 4.07 C5.68 4.07 5.16 4.08 4.64 4.08 C1.52 4.11 -1.26 3.92 -4.23 2.98 C-4.53 2.88 -4.83 2.79 -5.14 2.69 C-5.84 2.46 -6.53 2.22 -7.23 1.98 C-4.86 -0.07 -3.06 -0.26 0 0 Z " fill="#63645F" transform="translate(49.23046875,41.0234375)"/>
<path d="M0 0 C0.33 0 0.66 0 1 0 C1 3.3 1 6.6 1 10 C8.26 9.34 15.52 8.68 23 8 C23 5.36 23 2.72 23 0 C23.66 0 24.32 0 25 0 C25 3.3 25 6.6 25 10 C19.27 10.83 13.78 11.13 8 11.06 C7.22 11.06 6.43 11.05 5.65 11.05 C3.77 11.04 1.88 11.02 0 11 C0 7.37 0 3.74 0 0 Z " fill="#1C1C17" transform="translate(41,0)"/>
<path d="M0 0 C3.63 0.33 7.26 0.66 11 1 C10.67 2.98 10.34 4.96 10 7 C8.68 7 7.36 7 6 7 C6 6.34 6 5.68 6 5 C2.37 5 -1.26 5 -5 5 C-3.47 3.47 -2.36 2.53 -0.59 1.46 C-0.49 1.39 -0.49 1.39 0 1 C0 0.67 0 0.34 0 0 Z " fill="#4B4E4D" transform="translate(14,32)"/>
<path d="M0 0 C2.31 0 4.62 0 7 0 C6.01 0.33 5.02 0.66 4 1 C4 1.66 4 2.32 4 3 C4.12 2.99 4.12 2.99 4.7 2.97 C5.76 2.93 6.82 2.9 7.88 2.88 C8.06 2.87 8.06 2.87 8.98 2.82 C11.65 2.78 11.65 2.78 12.7 3.45 C13.26 4.01 13.26 4.01 14 5 C9.3 6 4.8 6.11 0 6 C0 4.02 0 2.04 0 0 Z " fill="#484B4B" transform="translate(0,35)"/>
<path d="M0 0 C1.69 -0.02 3.38 -0.04 5.07 -0.05 C5.65 -0.06 6.22 -0.07 6.8 -0.08 C7.62 -0.09 8.45 -0.09 9.28 -0.1 C9.53 -0.1 9.79 -0.11 10.06 -0.11 C10.78 -0.11 10.78 -0.11 12 0 C12.33 0.33 12.66 0.66 13 1 C14.05 1.07 15.02 1.09 16.06 1.06 C16.34 1.06 16.63 1.05 16.92 1.05 C17.61 1.04 18.31 1.02 19 1 C17.54 2.88 17.54 2.88 16.2 3.18 C15.23 3.23 14.28 3.22 13.3 3.2 C13.13 3.19 13.13 3.19 12.24 3.19 C11.12 3.18 10 3.15 8.88 3.12 C8.11 3.11 7.35 3.11 6.59 3.1 C4.73 3.08 2.86 3.04 1 3 C0.67 2.01 0.34 1.02 0 0 Z " fill="#50514F" transform="translate(32,42)"/>
<path d="M0 0 C0.83 0.33 0.83 0.33 5 2 C5.33 1.34 5.66 0.68 6 0 C6.99 0 7.98 0 9 0 C9 1.65 9 3.3 9 5 C7.52 5.16 7.52 5.16 0 6 C0 4.02 0 2.04 0 0 Z " fill="#3B3833" transform="translate(55,3)"/>
<path d="M0 0 C-0.33 3.3 -0.66 6.6 -1 10 C0.32 10.33 1.64 10.66 3 11 C1.02 11.33 -0.96 11.66 -3 12 C-3 8.7 -3 5.4 -3 2 C-4.98 2 -6.96 2 -9 2 C-5.46 -0.1 -4.75 0 0 0 Z " fill="#6F6A64" transform="translate(42,15)"/>
<path d="M0 0 C0.37 0.06 0.74 0.11 1.12 0.17 C2.02 0.31 2.91 0.46 3.81 0.62 C3.81 1.61 3.81 2.61 3.81 3.62 C2.54 3.68 1.27 3.72 0 3.75 C-0.36 3.77 -0.71 3.78 -1.08 3.8 C-3.68 3.85 -5.2 3.31 -7.19 1.62 C-4.79 -0.5 -3.07 -0.56 0 0 Z " fill="#383733" transform="translate(69.1875,23.375)"/>
<path d="M0 0 C1.32 0 2.64 0 4 0 C4 2.64 4 5.28 4 8 C2.68 8 1.36 8 0 8 C0 5.36 0 2.72 0 0 Z " fill="#8EBEAF" transform="translate(69,0)"/>
<path d="M0 0 C0.99 0 1.98 0 3 0 C3 3.3 3 6.6 3 10 C2.01 10 1.02 10 0 10 C0 6.7 0 3.4 0 0 Z " fill="#816D5B" transform="translate(51,0)"/>
<path d="M0 0 C1.32 0 2.64 0 4 0 C4 2.31 4 4.62 4 7 C2.68 6.67 1.36 6.34 0 6 C-1.11 2.31 -1.11 2.31 -0.56 0.75 C-0.38 0.5 -0.19 0.25 0 0 Z " fill="#4F4D47" transform="translate(69,17)"/>
<path d="M0 0 C0 0.99 0 1.98 0 3 C-4.46 3.11 -8.66 3.17 -13 2 C-13 1.67 -13 1.34 -13 1 C-8.65 0.39 -4.4 -0.19 0 0 Z " fill="#474946" transform="translate(73,31)"/>
<path d="M0 0 C2.03 0.44 2.03 0.44 3 1 C3.58 2 3.75 2.85 4 4 C5.65 4.33 7.3 4.66 9 5 C6.88 7 6.88 7 5.27 7 C3.47 6.8 1.77 6.39 0 6 C0 4.02 0 2.04 0 0 Z " fill="#65625E" transform="translate(41,19)"/>
<path d="M0 0 C0 2.31 0 4.62 0 7 C-2.97 6.67 -5.94 6.34 -9 6 C-9 5.67 -9 5.34 -9 5 C-7.84 4.84 -7.84 4.84 -2 4 C-2.66 3.34 -3.32 2.68 -4 2 C-3.52 1.66 -3.04 1.33 -2.56 1 C-2.3 0.81 -2.03 0.63 -1.75 0.44 C-1 0 -1 0 0 0 Z " fill="#B3A492" transform="translate(73,9)"/>
<path d="M0 0 C0.66 0 1.32 0 2 0 C2 2.97 2 5.94 2 9 C1.01 9 0.02 9 -1 9 C-1.03 7.87 -1.05 6.75 -1.06 5.62 C-1.07 5.31 -1.08 4.99 -1.09 4.66 C-1.11 2.84 -1.01 1.58 0 0 Z " fill="#3D3C39" transform="translate(48,0)"/>
<path d="M0 0 C0.66 0 1.32 0 2 0 C2.33 3.3 2.66 6.6 3 10 C2.01 10 1.02 10 0 10 C0 6.7 0 3.4 0 0 Z " fill="#2E2E2B" transform="translate(42,0)"/>
<path d="M0 0 C2.31 0 4.62 0 7 0 C7 1.32 7 2.64 7 4 C4.36 3.67 1.72 3.34 -1 3 C-0.67 2.01 -0.34 1.02 0 0 Z " fill="#545855" transform="translate(66,38)"/>
<path d="M0 0 C-0.33 0.66 -0.66 1.32 -1 2 C-1.99 2 -2.98 2 -4 2 C-4.33 2.66 -4.66 3.32 -5 4 C-6.65 2.68 -8.3 1.36 -10 0 C-3.49 -1.33 -3.49 -1.33 0 0 Z " fill="#4D4A45" transform="translate(68,16)"/>
<path d="M0 0 C0.32 0.05 0.65 0.1 0.98 0.16 C1.78 0.29 2.58 0.42 3.38 0.56 C3.38 1.22 3.38 1.88 3.38 2.56 C0.73 2.56 -1.91 2.56 -4.62 2.56 C-4.96 1.9 -5.29 1.24 -5.62 0.56 C-3.7 -0.75 -2.16 -0.38 0 0 Z " fill="#414444" transform="translate(16.625,36.4375)"/>
<path d="M0 0 C0.51 0.62 1 1.25 1.5 1.88 C1.64 2.05 1.64 2.05 2.34 2.93 C3 4 3 4 3 6 C4.32 6.33 5.64 6.66 7 7 C7 7.66 7 8.32 7 9 C2.63 8.67 2.63 8.67 1.22 7.18 C-0.04 4.83 -0.25 2.63 0 0 Z " fill="#62605C" transform="translate(42,15)"/>
<path d="M0 0 C2.31 0 4.62 0 7 0 C7.33 0.99 7.66 1.98 8 3 C5.36 3 2.72 3 0 3 C0 2.01 0 1.02 0 0 Z " fill="#2E2E28" transform="translate(0,13)"/>
<path d="M0 0 C-0.33 1.32 -0.66 2.64 -1 4 C-2.32 4 -3.64 4 -5 4 C-5.33 2.68 -5.66 1.36 -6 0 C-3.95 -1.54 -2.27 -0.68 0 0 Z " fill="#494C4B" transform="translate(25,35)"/>
<path d="M0 0 C0.99 0 1.98 0 3 0 C3 1.65 3 3.3 3 5 C1.68 4.67 0.36 4.34 -1 4 C-0.67 2.68 -0.34 1.36 0 0 Z " fill="#3C3C36" transform="translate(61,3)"/>
<path d="M0 0 C1.32 0 2.64 0 4 0 C3.67 1.65 3.34 3.3 3 5 C2.01 4.67 1.02 4.34 0 4 C0 2.68 0 1.36 0 0 Z " fill="#31302F" transform="translate(44,0)"/>
<path d="M0 0 C2.31 0 4.62 0 7 0 C6.01 0.33 5.02 0.66 4 1 C4 1.66 4 2.32 4 3 C2.68 3 1.36 3 0 3 C0 2.01 0 1.02 0 0 Z " fill="#494E4F" transform="translate(0,35)"/>
<path d="M0 0 C0.33 0 0.66 0 1 0 C1 2.64 1 5.28 1 8 C0.01 8 -0.98 8 -2 8 C-1.33 5.33 -0.67 2.67 0 0 Z " fill="#9ECABB" transform="translate(72,0)"/>
<path d="M0 0 C0.33 0 0.66 0 1 0 C1 1.98 1 3.96 1 6 C2.32 6.33 3.64 6.66 5 7 C3.02 7.33 1.04 7.66 -1 8 C-0.67 5.36 -0.34 2.72 0 0 Z " fill="#6A6762" transform="translate(40,19)"/>
<path d="M0 0 C0.83 0.33 0.83 0.33 5 2 C5 2.33 5 2.66 5 3 C3.35 3 1.7 3 0 3 C0 2.01 0 1.02 0 0 Z " fill="#A19381" transform="translate(67,11)"/>
<path d="M0 0 C0.33 1.32 0.66 2.64 1 4 C-0.32 3.34 -1.64 2.68 -3 2 C-2.01 1.34 -1.02 0.68 0 0 Z " fill="#ABAAA2" transform="translate(72,9)"/>
</g></svg>