<svg xmlns="http://www.w3.org/2000/svg" width="85" height="131" viewBox="0 0 85 131"><defs><clipPath id="clip-patch-11"><path d="M9.66,43.52L5.66,50.52L5.44,50.95L5.26,51.40L5.13,51.87L5.04,52.35L5.00,52.83L5.01,53.32L5.06,53.80L5.17,54.27L5.31,54.74L5.50,55.18L5.73,55.61L6.01,56.01L6.32,56.38L6.66,56.72L7.04,57.03L7.45,57.30L7.87,57.53L8.32,57.71L8.79,57.85L13.46,59.02L18.04,95.62L18.11,96.06L18.23,96.49L18.38,96.91L18.57,97.32L18.79,97.70L27.13,110.67L28.02,120.45L28.09,120.94L28.21,121.42L28.37,121.89L28.58,122.33L28.83,122.76L29.12,123.15L29.45,123.52L29.81,123.85L30.21,124.15L30.63,124.40L31.08,124.62L31.54,124.78L32.02,124.90L32.51,124.98L33.00,125.00L52.00,125.00L52.49,124.98L52.98,124.90L53.45,124.78L53.91,124.62L54.36,124.41L54.78,124.16L55.17,123.87L55.54,123.54L55.87,123.17L56.16,122.78L56.41,122.36L56.62,121.91L56.78,121.45L56.90,120.98L56.98,120.49L57.00,120.00L57.00,110.18L65.47,93.24L65.68,92.76L65.84,92.27L65.94,91.76L71.52,55.50L75.97,53.60L76.40,53.39L76.80,53.14L77.18,52.86L77.53,52.54L77.85,52.18L78.14,51.80L78.39,51.40L78.59,50.97L78.76,50.53L78.88,50.07L78.96,49.60L79.00,49.12L78.99,48.65L78.93,48.18L77.93,42.18L77.83,41.69L77.67,41.21L77.47,40.76L77.22,40.32L76.93,39.91L76.61,39.54L76.24,39.19L75.85,38.89L62.85,29.89L62.77,29.84L51.07,22.04L52.68,17.76L52.83,17.31L52.93,16.85L52.99,16.38L53.00,15.91L52.97,15.45L52.90,14.98L52.78,14.53L52.62,14.09L52.42,13.66L52.18,13.26L51.90,12.88L47.90,7.88L47.59,7.52L47.23,7.19L46.85,6.89L46.44,6.64L46.01,6.42L45.56,6.25L45.10,6.12L44.62,6.04L36.62,5.04L36.12,5.00L35.62,5.01L35.12,5.08L34.63,5.19L34.15,5.35L33.69,5.56L33.26,5.82L32.85,6.11L32.48,6.45L32.14,6.82L31.84,7.23L27.84,13.23L27.60,13.63L27.39,14.06L27.23,14.50L27.11,14.96L27.03,15.43L27.00,15.90L27.01,16.38L27.07,16.85L27.17,17.31L27.32,17.76L27.51,18.19L27.73,18.61L28.00,19.00L29.76,21.34L29.30,24.57L10.56,42.38L10.22,42.73L9.92,43.11L9.66,43.52Z" clip-rule="evenodd"/></clipPath></defs><g clip-path="url(#clip-patch-11)">
<path d="M0 0 C28.05 0 56.1 0 85 0 C85 43.23 85 86.46 85 131 C56.95 131 28.9 131 0 131 C0 87.77 0 44.54 0 0 Z " fill="#84CEFC" transform="translate(0,0)"/>
<path d="M0 0 C0.3 -0 0.59 -0.01 0.89 -0.02 C5.25 -0.08 8.83 0.63 12.88 2.25 C12.88 2.38 12.88 2.38 12.94 3.04 C13.03 4.24 13.14 5.43 13.25 6.62 C13.28 7.04 13.31 7.45 13.34 7.88 C13.67 11.3 13.67 11.3 14.91 12.38 C15.88 13.25 15.88 13.25 16.07 14.54 C16.05 14.98 16.02 15.42 16 15.88 C15.98 16.32 15.96 16.77 15.95 17.23 C15.92 17.56 15.9 17.9 15.88 18.25 C14.55 18.58 13.23 18.91 11.88 19.25 C11.87 19.81 11.87 20.36 11.87 20.94 C11.64 26.8 10.05 30.1 6.25 34.52 C4.95 36.05 4.35 37.31 3.88 39.25 C5.2 39.58 6.52 39.91 7.88 40.25 C8.2 45.12 7.29 48.31 5.88 53.25 C-10.3 53.25 -26.47 53.25 -43.12 53.25 C-43.12 44.34 -43.12 35.43 -43.12 26.25 C-36.2 29.02 -36.2 29.02 -35.12 30.25 C-34.97 30.74 -34.82 31.23 -34.69 31.72 C-34.16 33.41 -33.46 33.97 -31.88 34.81 C-28.12 36.7 -23.83 37.04 -19.71 37.52 C-17.02 37.84 -14.94 38.12 -12.77 39.86 C-11.53 40.61 -10.28 40.21 -8.94 39.88 C-8.66 39.82 -8.39 39.76 -8.11 39.7 C-7.45 39.56 -6.79 39.41 -6.12 39.25 C-6.7 38.18 -7.29 37.12 -7.88 36.06 C-8.05 35.74 -8.23 35.42 -8.42 35.09 C-9.55 33.1 -10.77 31.43 -12.31 29.75 C-14.77 27.01 -14.92 23.8 -15.12 20.25 C-16.11 19.92 -17.11 19.59 -18.12 19.25 C-18.12 17.27 -18.12 15.29 -18.12 13.25 C-17.14 12.92 -16.14 12.59 -15.12 12.25 C-15.12 8.95 -15.12 5.65 -15.12 2.25 C-9.99 0.61 -5.35 0.03 0 0 Z " fill="#1A1C1C" transform="translate(43.125,77.75)"/>
<path d="M0 0 C1.4 0.84 1.4 0.84 1.95 1.62 C2.02 2.69 2.02 2.69 1.95 3.62 C2.28 3.58 2.6 3.55 2.94 3.51 C6.38 3.3 6.38 3.3 7.95 4.18 C8.82 4.98 9.41 5.56 9.95 6.62 C9.95 7.61 9.95 8.6 9.95 9.62 C12.59 9.62 15.23 9.62 17.95 9.62 C17.95 21.5 17.95 33.38 17.95 45.62 C6.07 45.62 -5.81 45.62 -18.05 45.62 C-18.05 39.62 -18.05 39.62 -17.05 38.62 C-16.98 37.57 -16.96 36.6 -16.99 35.55 C-16.99 35.27 -17 34.99 -17 34.7 C-17.01 34.01 -17.03 33.31 -17.05 32.62 C-18.04 32.29 -19.03 31.96 -20.05 31.62 C-19.88 28.1 -18.98 26.33 -16.61 23.87 C-13.97 21.08 -13.25 18.37 -12.77 14.6 C-12.61 13.53 -12.48 12.61 -12.05 11.62 C-11.02 10.93 -10.3 10.82 -9.05 10.62 C-8.79 7.07 -9.15 4.65 -11.05 1.62 C-7.73 -0.57 -3.82 -1.39 0 0 Z " fill="#A7DEFC" transform="translate(67.05078125,85.3828125)"/>
<path d="M0 0 C1.72 0.3 3.23 0.59 4.6 1.7 C5.53 3.14 5.28 4.78 5.06 6.41 C5.29 6.19 5.52 5.98 5.76 5.75 C7.66 4.13 9.08 3.18 11.62 3.1 C13.41 3.24 15.11 3.39 16.57 4.5 C17.8 6.78 17.24 9.91 17.06 12.41 C18.38 12.74 19.7 13.07 21.06 13.41 C21.14 13.98 21.21 14.55 21.29 15.13 C22.1 20.18 23.34 23.49 27.03 27.11 C29.24 29.33 29.24 29.33 29.32 31.03 C29.06 32.41 29.06 32.41 28.55 33.18 C27.4 33.93 26.55 34.43 25.15 34.38 C23.7 34.05 22.39 33.57 21.05 32.93 C18.04 31.53 15.48 31.24 12.19 31.04 C8.76 30.79 6 30.25 3 28.54 C2.71 28.37 2.43 28.21 2.13 28.05 C0.73 27.16 -0.01 26.55 -0.4 24.91 C-0.76 23.48 -1.31 23.01 -2.57 22.24 C-3.21 21.89 -3.85 21.55 -4.5 21.22 C-4.83 21.05 -5.16 20.87 -5.5 20.69 C-6.31 20.25 -7.12 19.83 -7.94 19.41 C-8.04 17.51 -8.11 15.61 -8.16 13.7 C-8.18 13.06 -8.21 12.41 -8.24 11.77 C-8.45 7.73 -8.17 5.07 -5.62 1.85 C-3.98 0.05 -2.34 -0.07 0 0 Z " fill="#F3F5F7" transform="translate(7.938232421875,84.589111328125)"/>
<path d="M0 0 C6.92 2.77 6.92 2.77 8 4 C8.16 4.49 8.3 4.98 8.44 5.47 C8.96 7.16 9.66 7.72 11.25 8.56 C14.95 10.42 19.17 10.75 23.24 11.18 C26.97 11.6 30.12 12.44 33 15 C33.77 16.23 34.22 17.53 34.64 18.91 C35 20 35 20 36 21 C36 22.98 36 24.96 36 27 C24.12 27 12.24 27 0 27 C0 18.09 0 9.18 0 0 Z " fill="#61969B" transform="translate(0,104)"/>
<path d="M0 0 C1.4 0.84 1.4 0.84 1.95 1.62 C2.02 2.69 2.02 2.69 1.95 3.62 C2.28 3.58 2.6 3.55 2.94 3.51 C6.38 3.3 6.38 3.3 7.95 4.18 C8.82 4.98 9.41 5.56 9.95 6.62 C9.95 7.61 9.95 8.6 9.95 9.62 C12.59 9.62 15.23 9.62 17.95 9.62 C17.95 12.26 17.95 14.9 17.95 17.62 C15.11 18.05 12.26 18.48 9.42 18.9 C8.45 19.04 7.49 19.19 6.52 19.34 C1.8 20.06 -2.89 20.75 -7.68 20.77 C-8.01 20.78 -8.34 20.78 -8.68 20.78 C-10.92 20.75 -10.92 20.75 -12.05 19.62 C-12.16 18.77 -12.16 18.77 -12.15 17.77 C-12.15 17.59 -12.15 17.59 -12.14 16.69 C-12.13 16.31 -12.12 15.94 -12.11 15.55 C-12.11 15.37 -12.11 15.37 -12.1 14.41 C-12.09 13.48 -12.07 12.55 -12.05 11.62 C-11.06 11.29 -10.07 10.96 -9.05 10.62 C-8.79 7.07 -9.15 4.65 -11.05 1.62 C-7.73 -0.57 -3.82 -1.39 0 0 Z " fill="#F3F6F9" transform="translate(67.05078125,85.3828125)"/>
<path d="M0 0 C0.99 0 1.98 0 3 0 C4.42 5.74 4.42 5.74 3.06 8.38 C2.72 8.93 2.38 9.47 2 10 C2.93 9.75 2.93 9.75 4 9 C4.56 7.69 4.83 6.33 5.12 4.94 C5.21 4.56 5.3 4.18 5.39 3.79 C5.6 2.86 5.8 1.93 6 1 C6.33 1 6.66 1 7 1 C7.63 5.39 7.63 8.61 4.9 12.28 C4.09 13.28 3.25 14.26 2.41 15.24 C1.09 16.78 0.48 18.04 0 20 C1.32 20.33 2.64 20.66 4 21 C4.32 25.78 3.46 29.44 2 34 C-2.29 34 -6.58 34 -11 34 C-12.18 30 -13.25 26.1 -14 22 C-12.68 21.34 -11.36 20.68 -10 20 C-10.29 19.53 -10.58 19.06 -10.88 18.57 C-11.25 17.95 -11.63 17.32 -12 16.69 C-12.19 16.38 -12.38 16.07 -12.58 15.75 C-12.76 15.45 -12.94 15.14 -13.12 14.82 C-13.21 14.69 -13.21 14.69 -13.63 13.98 C-14 13 -14 13 -14 10 C-11.69 10.33 -9.38 10.66 -7 11 C-6.67 9.68 -6.34 8.36 -6 7 C-5.67 8.32 -5.34 9.64 -5 11 C-3.41 10.29 -1.97 9.48 -1 8 C-0.2 5.43 -0.11 2.67 0 0 Z " fill="#242625" transform="translate(47,97)"/>
<path d="M0 0 C0.24 0.27 0.48 0.53 0.73 0.8 C1.07 1.16 1.4 1.51 1.75 1.88 C1.91 2.05 1.91 2.05 2.73 2.93 C6.31 6.19 10.7 6.54 15.29 7.03 C19.34 7.48 22.86 8.21 26 11 C26.76 12.23 27.22 13.53 27.64 14.91 C28 16 28 16 29 17 C29 18.98 29 20.96 29 23 C23.06 23 17.12 23 11 23 C11 20.36 11 17.72 11 15 C10.34 14.67 9.68 14.34 9 14 C8.66 13.28 8.66 13.28 8.5 12.5 C8.12 11.08 8.12 11.08 6.94 10.31 C6.78 10.26 6.78 10.26 6 10 C6 9.34 6 8.68 6 8 C4.68 8 3.36 8 2 8 C2 7.01 2 6.02 2 5 C1.34 5 0.68 5 0 5 C0 3.35 0 1.7 0 0 Z " fill="#5E979F" transform="translate(7,108)"/>
<path d="M0 0 C0 5.61 0 11.22 0 17 C-2.65 17.09 -5.3 17.17 -7.95 17.22 C-8.85 17.24 -9.76 17.27 -10.66 17.3 C-18.59 17.6 -18.59 17.6 -20.27 16.09 C-21.03 15.08 -21.57 14.19 -22 13 C-21.34 13 -20.68 13 -20 13 C-19.89 12.55 -19.78 12.09 -19.67 11.62 C-19.03 9.72 -17.93 9 -16.25 8 C-15.98 7.83 -15.72 7.66 -15.44 7.49 C-14.18 6.69 -12.89 5.93 -11.6 5.18 C-11.17 4.94 -10.75 4.69 -10.31 4.44 C-9.91 4.2 -9.5 3.97 -9.08 3.73 C-8.01 3.01 -7.32 2.29 -6.5 1.31 C-5 0 -5 0 0 0 Z " fill="#AEE2FC" transform="translate(85,114)"/>
<path d="M0 0 C0.2 -0 0.2 -0 1.19 -0 C2.01 -0 2.82 -0 3.64 0 C4.9 0.01 6.16 0 7.42 -0 C8.21 -0 9.01 -0 9.81 0 C10 -0 10 -0 10.95 -0.01 C11.13 -0 11.13 -0 12 0 C12.31 0 12.62 0.01 12.93 0.01 C13.71 0.13 13.71 0.13 14.71 1.13 C14.78 2.18 14.8 3.15 14.77 4.2 C14.77 4.48 14.76 4.76 14.76 5.05 C14.74 5.74 14.73 6.44 14.71 7.13 C14.05 6.8 13.39 6.47 12.71 6.13 C12.05 7.78 11.39 9.43 10.71 11.13 C10.05 11.13 9.39 11.13 8.71 11.13 C9.04 7.83 9.37 4.53 9.71 1.13 C7.71 2.13 7.71 2.13 7.44 2.84 C7.42 3.11 7.41 3.38 7.4 3.66 C7.38 3.95 7.35 4.25 7.33 4.56 C7.31 4.87 7.29 5.18 7.27 5.51 C7 8.19 6.64 9.88 4.52 11.72 C3.53 12.22 2.81 12.21 1.71 12.13 C1.38 11.14 1.05 10.15 0.71 9.13 C0.38 10.12 0.05 11.11 -0.29 12.13 C-1.75 12.22 -3.21 12.27 -4.67 12.32 C-4.87 12.33 -4.87 12.33 -5.92 12.4 C-8.88 12.47 -8.88 12.47 -10.02 11.54 C-11.43 9.57 -11.65 7.72 -11.55 5.34 C-11.2 3.69 -10.54 2.86 -9.34 1.71 C-6.46 0.12 -3.22 -0.02 0 0 Z " fill="#2D2E2D" transform="translate(40.29296875,95.8671875)"/>
<path d="M0 0 C0.33 0.99 0.66 1.98 1 3 C1.66 3 2.32 3 3 3 C3 3.66 3 4.32 3 5 C10.69 5.68 18.27 6.16 26 6 C26 7.65 26 9.3 26 11 C23.16 11.43 20.31 11.86 17.47 12.28 C16.5 12.43 15.54 12.57 14.58 12.72 C9.85 13.44 5.16 14.13 0.38 14.16 C0.04 14.16 -0.29 14.16 -0.63 14.16 C-2.87 14.13 -2.87 14.13 -4 13 C-4.11 12.15 -4.11 12.15 -4.1 11.15 C-4.1 10.97 -4.1 10.97 -4.09 10.07 C-4.08 9.7 -4.07 9.32 -4.06 8.94 C-4.06 8.75 -4.06 8.75 -4.05 7.79 C-4.04 6.86 -4.02 5.93 -4 5 C-3.79 4.95 -3.58 4.9 -3.37 4.85 C-2.53 4.63 -1.78 4.38 -1 4 C-0.49 3.03 -0.49 3.03 -0.31 1.94 C-0.28 1.76 -0.28 1.76 -0.11 0.84 C-0.08 0.56 -0.04 0.29 0 0 Z " fill="#D8ECF8" transform="translate(59,92)"/>
<path d="M0 0 C0.75 0.71 1.35 1.45 1.97 2.27 C2.18 2.53 2.4 2.79 2.62 3.05 C3.64 4.33 4.29 5.35 4.37 7.02 C4.15 8.4 4.15 8.4 3.64 9.16 C2.49 9.92 1.64 10.41 0.24 10.37 C-1.21 10.04 -2.52 9.55 -3.86 8.91 C-6.87 7.51 -9.49 7.19 -12.78 6.96 C-17.07 6.65 -20.25 5.73 -23.85 3.4 C-23.57 2.45 -23.57 2.45 -22.85 1.4 C-21.67 0.9 -20.46 0.72 -19.21 0.51 C-18.84 0.45 -18.48 0.38 -18.1 0.31 C-17.33 0.17 -16.56 0.04 -15.78 -0.09 C-14.61 -0.29 -13.45 -0.5 -12.28 -0.72 C-3.28 -2.33 -3.28 -2.33 0 0 Z " fill="#98DAF9" transform="translate(32.84716796875,108.601806640625)"/>
<path d="M0 0 C0.32 4.78 -0.54 8.44 -2 13 C-5.96 13 -9.92 13 -14 13 C-14.12 11.93 -14.25 10.85 -14.38 9.75 C-14.75 6.86 -15.41 4.48 -17 2 C-14.46 -0.27 -11.8 -0.45 -8.5 -0.69 C-8.01 -0.73 -7.53 -0.78 -7.03 -0.83 C-4.41 -1.05 -2.41 -1.08 0 0 Z " fill="#2E3132" transform="translate(51,118)"/>
<path d="M0 0 C0.33 2.97 0.66 5.94 1 9 C-3.99 10.54 -8.76 11.51 -13.94 12.12 C-14.63 12.21 -15.32 12.3 -16.01 12.39 C-17.67 12.6 -19.34 12.8 -21 13 C-21.13 12.53 -21.26 12.06 -21.4 11.57 C-21.87 10.17 -22.28 9.54 -23.63 8.83 C-23.94 8.66 -24.25 8.49 -24.58 8.31 C-24.9 8.15 -25.23 7.98 -25.56 7.81 C-25.89 7.64 -26.22 7.46 -26.56 7.28 C-27.37 6.84 -28.18 6.42 -29 6 C-28.67 5.34 -28.34 4.68 -28 4 C-27.34 4 -26.68 4 -26 4 C-26 4.66 -26 5.32 -26 6 C-25.58 5.91 -25.15 5.82 -24.72 5.72 C-23.12 5.38 -21.52 5.05 -19.92 4.72 C-19.23 4.57 -18.55 4.43 -17.86 4.28 C-13.48 3.34 -9.49 2.83 -5 3 C-5 4.98 -5 6.96 -5 9 C-4 8 -4 8 -3.98 7.15 C-4.03 6.82 -4.07 6.49 -4.12 6.15 C-4.17 5.79 -4.22 5.44 -4.27 5.07 C-4.32 4.7 -4.38 4.32 -4.44 3.94 C-4.49 3.56 -4.54 3.18 -4.6 2.79 C-4.73 1.86 -4.86 0.93 -5 0 C-2.94 -1.43 -2.75 -0.92 0 0 Z " fill="#E3F1FB" transform="translate(29,98)"/>
<path d="M0 0 C1.29 -0.01 2.58 -0.04 3.86 -0.07 C11.24 -0.17 11.24 -0.17 13.99 2.51 C14.23 2.75 14.48 2.99 14.72 3.24 C15.63 3.76 16.49 4.07 17.47 4.43 C17.9 4.59 18.33 4.74 18.77 4.91 C19.09 5.02 19.4 5.13 19.72 5.24 C19.39 6.23 19.06 7.22 18.72 8.24 C21.69 8.57 24.66 8.9 27.72 9.24 C27.72 9.9 27.72 10.56 27.72 11.24 C28.07 11.34 28.42 11.44 28.78 11.54 C32.46 12.74 32.46 12.74 33.28 14.26 C33.51 15.27 33.67 16.21 33.72 17.24 C33.57 17.11 33.41 16.97 33.24 16.84 C31.24 15.32 29.5 14.93 27.01 14.68 C25.58 14.19 25.32 13.81 24.39 12.69 C23.42 11.65 22.97 11.27 21.55 11.09 C20.19 11.17 18.88 11.34 17.54 11.55 C17.07 11.61 16.61 11.68 16.13 11.74 C14.99 11.89 13.86 12.06 12.72 12.24 C12.39 9.93 12.06 7.62 11.72 5.24 C8.37 4.48 5.3 4.1 1.86 4.14 C1.42 4.14 0.99 4.15 0.54 4.15 C-0.84 4.15 -2.21 4.16 -3.59 4.18 C-4.53 4.18 -5.47 4.19 -6.41 4.19 C-8.7 4.2 -10.99 4.22 -13.28 4.24 C-13.28 3.25 -13.28 2.26 -13.28 1.24 C-8.9 0.03 -4.5 0.02 0 0 Z " fill="#97DBF9" transform="translate(43.275146484375,74.759765625)"/>
<path d="M0 0 C0.33 0.99 0.66 1.98 1 3 C-1.31 3 -3.62 3 -6 3 C-6.33 4.98 -6.66 6.96 -7 9 C-9.85 10.24 -12.62 10.11 -15.69 10.06 C-16.2 10.06 -16.72 10.05 -17.24 10.05 C-18.49 10.04 -19.75 10.02 -21 10 C-21.33 7.36 -21.66 4.72 -22 2 C-14.63 -0.36 -7.64 -0.21 0 0 Z " fill="#3D4B50" transform="translate(50,78)"/>
<path d="M0 0 C0.66 0.33 1.32 0.66 2 1 C1.67 1.99 1.34 2.98 1 4 C10.9 4 20.8 4 31 4 C30.67 2.68 30.34 1.36 30 0 C30.49 0.17 30.49 0.17 33 1 C33 2.65 33 4.3 33 6 C29.83 6.82 27.01 7.08 23.75 7.03 C23.56 7.02 23.56 7.02 22.59 7.01 C20.99 6.98 19.39 6.95 17.79 6.9 C13.09 6.78 9.22 6.69 5 9 C4.33 9.33 3.67 9.67 3 10 C2.9 9.69 2.79 9.38 2.69 9.06 C1.7 7.53 0.74 7.45 -1 7 C-1.03 6.02 -1.05 5.04 -1.06 4.06 C-1.07 3.78 -1.08 3.51 -1.09 3.22 C-1.1 2.48 -1.05 1.74 -1 1 C-0.67 0.67 -0.34 0.34 0 0 Z " fill="#1E2020" transform="translate(26,90)"/>
<path d="M0 0 C0 1.65 0 3.3 0 5 C-7.7 6.24 -15.18 7.37 -23 7 C-21.68 6.34 -20.36 5.68 -19 5 C-19 3.68 -19 2.36 -19 1 C-12.63 0.14 -6.42 -0.12 0 0 Z " fill="#DAEFFB" transform="translate(85,98)"/>
<path d="M0 0 C0.24 0.27 0.48 0.53 0.73 0.8 C1.07 1.16 1.4 1.51 1.75 1.88 C1.91 2.05 1.91 2.05 2.73 2.93 C6.37 6.24 10.79 6.55 15.44 7.1 C21.61 7.86 21.61 7.86 23.56 9.39 C24.41 10.56 24.19 11.61 24 13 C18.89 14.29 15.36 14 10.7 11.46 C10 11 10 11 9 9.93 C7.68 8.7 6.62 8.58 4.88 8.38 C4.74 8.36 4.74 8.36 4.04 8.26 C3.36 8.16 2.68 8.08 2 8 C2 7.01 2 6.02 2 5 C1.34 5 0.68 5 0 5 C0 3.35 0 1.7 0 0 Z " fill="#5893A6" transform="translate(7,108)"/>
<path d="M0 0 C0.33 3.63 0.66 7.26 1 11 C-0.44 11.06 -1.89 11.12 -3.38 11.19 C-3.83 11.21 -4.28 11.24 -4.74 11.27 C-7.6 11.33 -7.6 11.33 -8.72 10.41 C-10.13 8.44 -10.37 6.59 -10.24 4.21 C-9.91 2.54 -9.42 1.61 -8.13 0.49 C-5.58 -0.62 -2.71 -0.15 0 0 Z " fill="#3E3C39" transform="translate(39,97)"/>
<path d="M0 0 C0.34 6.99 0.34 6.99 -1 8.94 C-1.33 9.29 -1.66 9.64 -2 10 C-2.16 9.86 -2.32 9.71 -2.48 9.56 C-4.49 7.96 -6.19 7.7 -8.73 7.8 C-10.76 8.12 -12.24 8.96 -14 10 C-14 8.68 -14 7.36 -14 6 C-16.64 5.34 -19.28 4.68 -22 4 C-21.67 3.34 -21.34 2.68 -21 2 C-16.41 1.43 -13.05 3.02 -9 5 C-9 4.34 -9 3.68 -9 3 C-7.88 2.49 -6.75 2 -5.62 1.5 C-5.31 1.36 -4.99 1.21 -4.66 1.07 C-1.74 -0.21 -1.74 -0.21 0 0 Z " fill="#9EDBF8" transform="translate(27,81)"/>
<path d="M0 0 C0.19 0 0.19 0 1.13 0 C2.3 0.01 3.47 0.02 4.64 0.04 C5.44 0.04 6.24 0.04 7.04 0.05 C8.99 0.06 10.94 0.08 12.89 0.1 C12.89 0.76 12.89 1.42 12.89 2.1 C5.76 5.82 -1.3 5.42 -9.11 5.1 C-8.78 3.78 -8.45 2.46 -8.11 1.1 C-5.33 0.31 -2.89 -0.04 0 0 Z " fill="#605D58" transform="translate(36.109375,88.90234375)"/>
<path d="M0 0 C0.79 0.14 1.58 0.29 2.38 0.44 C2.6 0.48 2.6 0.48 3.71 0.68 C4.93 0.98 5.9 1.39 7 2 C7.31 6.46 7.31 6.46 6.55 7.78 C6 8.31 6 8.31 5 9 C6.32 9 7.64 9 9 9 C9 9.66 9 10.32 9 11 C7.75 11.2 6.5 11.38 5.25 11.56 C4.9 11.62 4.55 11.67 4.2 11.73 C1.58 12.1 -0.49 11.81 -3 11 C-2.91 10.74 -2.82 10.48 -2.72 10.21 C-2.31 9.01 -1.91 7.82 -1.5 6.62 C-1.43 6.42 -1.43 6.42 -1.07 5.38 C-0.93 4.98 -0.8 4.58 -0.66 4.16 C-0.53 3.8 -0.4 3.43 -0.28 3.05 C0 1.99 0.05 1.1 0 0 Z " fill="#AFE0F7" transform="translate(52,116)"/>
<path d="M0 0 C-0.66 0 -1.32 0 -2 0 C-1.97 0.15 -1.97 0.15 -1.84 0.9 C-1.9 1.26 -1.95 1.63 -2 2 C-2.84 2.63 -3.58 3.09 -4.5 3.56 C-5.36 4.02 -6.17 4.48 -7 5 C-7 5.33 -7 5.66 -7 6 C-8.49 6.08 -9.99 6.13 -11.48 6.16 C-12.23 6.19 -12.99 6.23 -13.74 6.26 C-17.03 6.33 -18.82 5.82 -21.33 3.65 C-21.55 3.44 -21.77 3.22 -22 3 C-18.81 0.99 -15.6 0.43 -11.94 -0.06 C-11 -0.19 -10.07 -0.33 -9.13 -0.47 C-5.9 -0.95 -3.13 -1.23 0 0 Z " fill="#ADE0FA" transform="translate(31,108)"/>
<path d="M0 0 C0.31 0 0.62 0.01 0.94 0.01 C1.25 0.02 1.57 0.03 1.9 0.04 C2.22 0.04 2.55 0.04 2.88 0.05 C3.68 0.06 4.48 0.08 5.27 0.1 C5.27 1.75 5.27 3.4 5.27 5.1 C2.62 5.2 -0.03 5.27 -2.68 5.32 C-3.58 5.34 -4.48 5.36 -5.38 5.4 C-13.31 5.7 -13.31 5.7 -15 4.19 C-15.76 3.18 -16.29 2.28 -16.73 1.1 C-16.34 1.1 -15.96 1.11 -15.56 1.11 C-14.14 1.13 -12.71 1.14 -11.28 1.15 C-10.67 1.16 -10.05 1.16 -9.43 1.17 C-8.54 1.19 -7.65 1.19 -6.77 1.2 C-6.49 1.2 -6.22 1.21 -5.94 1.21 C-3.71 1.21 -2.15 -0.04 0 0 Z " fill="#B5E6FC" transform="translate(79.7265625,125.90234375)"/>
<path d="M0 0 C0.99 0 1.98 0 3 0 C4.42 5.74 4.42 5.74 3.06 8.38 C2.72 8.93 2.38 9.47 2 10 C2.93 9.75 2.93 9.75 4 9 C4.56 7.69 4.83 6.33 5.12 4.94 C5.21 4.56 5.3 4.18 5.39 3.79 C5.6 2.86 5.8 1.93 6 1 C6.33 1 6.66 1 7 1 C7.55 4.61 7.91 8.02 5.66 11.09 C4.22 12.83 2.65 14.45 1 16 C0.67 15.34 0.34 14.68 0 14 C-0.66 14 -1.32 14 -2 14 C-2.22 13.38 -2.43 12.75 -2.62 12.12 C-2.74 11.78 -2.86 11.43 -2.98 11.07 C-2.98 10.72 -2.99 10.36 -3 10 C-2.5 9.54 -2.01 9.08 -1.5 8.63 C-0.45 7.31 -0.51 5.5 -0.38 3.88 C-0.34 3.5 -0.3 3.13 -0.26 2.75 C-0.16 1.83 -0.08 0.92 0 0 Z " fill="#161919" transform="translate(47,97)"/>
<path d="M0 0 C2.31 0 4.62 0 7 0 C6.67 0.99 6.34 1.98 6 3 C8.97 3.33 11.94 3.66 15 4 C15 4.66 15 5.32 15 6 C15.17 6.05 15.17 6.05 16.06 6.3 C19.73 7.5 19.73 7.5 20.55 9.02 C20.79 10.03 20.95 10.97 21 12 C20.84 11.87 20.68 11.73 20.52 11.6 C18.51 10.08 16.77 9.69 14.28 9.44 C12.86 8.95 12.6 8.57 11.67 7.45 C10.7 6.41 10.25 6.03 8.82 5.85 C7.47 5.93 6.16 6.1 4.81 6.31 C4.58 6.34 4.58 6.34 3.41 6.5 C2.27 6.65 1.13 6.82 0 7 C0 4.69 0 2.38 0 0 Z " fill="#98D4F2" transform="translate(56,80)"/>
<path d="M0 0 C0.33 2.97 0.66 5.94 1 9 C-2.38 10.12 -2.38 10.12 -4.04 10.1 C-4.39 10.09 -4.75 10.09 -5.11 10.09 C-5.46 10.08 -5.82 10.07 -6.19 10.06 C-6.37 10.06 -6.37 10.06 -7.3 10.05 C-8.2 10.04 -9.1 10.02 -10 10 C-9.67 9.34 -9.34 8.68 -9 8 C-8.34 8 -7.68 8 -7 8 C-7.33 7.01 -7.66 6.02 -8 5 C-9.98 5 -11.96 5 -14 5 C-11.12 2.44 -8.71 2.84 -5 3 C-5 4.98 -5 6.96 -5 9 C-4 8 -4 8 -3.98 7.15 C-4.03 6.82 -4.07 6.49 -4.12 6.15 C-4.17 5.79 -4.22 5.44 -4.27 5.07 C-4.32 4.7 -4.38 4.32 -4.44 3.94 C-4.49 3.56 -4.54 3.18 -4.6 2.79 C-4.73 1.86 -4.86 0.93 -5 0 C-2.94 -1.43 -2.75 -0.92 0 0 Z " fill="#E7F2FA" transform="translate(29,98)"/>
<path d="M0 0 C2.64 0.66 5.28 1.32 8 2 C7.67 2.17 7.67 2.17 6 3 C6.33 4.65 6.66 6.3 7 8 C9.31 8 11.62 8 14 8 C14 8.66 14 9.32 14 10 C14.66 10.33 15.32 10.66 16 11 C15.84 11.01 15.84 11.01 15.02 11.08 C13.82 11.17 12.61 11.27 11.41 11.37 C10.89 11.42 10.37 11.46 9.85 11.5 C9.1 11.56 8.35 11.62 7.6 11.68 C7.38 11.7 7.38 11.7 6.24 11.79 C4.98 12 4.1 12.37 3 13 C3.07 13.1 3.07 13.1 3.44 13.63 C5.46 16.98 5.19 20.22 5 24 C4.67 24 4.34 24 4 24 C2.82 20.02 1.74 16.09 1 12 C2.32 11.34 3.64 10.68 5 10 C4.72 9.53 4.45 9.06 4.16 8.57 C3.79 7.95 3.43 7.32 3.06 6.69 C2.88 6.38 2.7 6.07 2.51 5.75 C2.33 5.45 2.16 5.14 1.97 4.82 C1.81 4.55 1.65 4.27 1.48 3.98 C0.86 2.71 0.45 1.34 0 0 Z " fill="#131D20" transform="translate(32,107)"/>
<path d="M0 0 C0.99 0.17 0.99 0.17 6 1 C6 1.66 6 2.32 6 3 C7.32 3.66 8.64 4.32 10 5 C10 5.99 10 6.98 10 8 C6.7 8 3.4 8 0 8 C0 5.36 0 2.72 0 0 Z " fill="#558E9D" transform="translate(0,123)"/>
<path d="M0 0 C0.66 0 1.32 0 2 0 C2.13 0.35 2.27 0.7 2.4 1.06 C2.58 1.51 2.76 1.97 2.94 2.44 C3.02 2.66 3.02 2.66 3.46 3.81 C4 5 4 5 5 6 C5.07 7.05 5.09 8.02 5.06 9.06 C5.06 9.34 5.05 9.63 5.05 9.92 C5.04 10.61 5.02 11.31 5 12 C3.35 12 1.7 12 0 12 C0 11.34 0 10.68 0 10 C-0.66 10 -1.32 10 -2 10 C-2 9.34 -2 8.68 -2 8 C-2.66 8 -3.32 8 -4 8 C-3.34 6.68 -2.68 5.36 -2 4 C-1.34 4 -0.68 4 0 4 C0 2.68 0 1.36 0 0 Z " fill="#62989C" transform="translate(31,119)"/>
<path d="M0 0 C1.78 -0.1 3.55 -0.17 5.33 -0.22 C5.94 -0.24 6.54 -0.27 7.14 -0.3 C8.02 -0.35 8.89 -0.37 9.77 -0.39 C10.03 -0.41 10.29 -0.43 10.56 -0.45 C11.35 -0.45 11.35 -0.45 13 0 C14.32 1.32 15.64 2.64 17 4 C11.39 4 5.78 4 0 4 C0 2.68 0 1.36 0 0 Z " fill="#61959F" transform="translate(49,127)"/>
<path d="M0 0 C-0.31 0.96 -0.31 0.96 -1 2 C-2.08 2.32 -2.96 2.5 -4.06 2.62 C-4.34 2.66 -4.63 2.7 -4.92 2.74 C-5.61 2.84 -6.3 2.92 -7 3 C-7 3.99 -7 4.98 -7 6 C-9.31 6 -11.62 6 -14 6 C-14.66 4.68 -15.32 3.36 -16 2 C-13.32 -0.23 -10.85 -0.44 -7.44 -0.69 C-6.94 -0.73 -6.44 -0.78 -5.94 -0.83 C-1.95 -1.16 -1.95 -1.16 0 0 Z " fill="#565451" transform="translate(50,118)"/>
<path d="M0 0 C1 0.75 1 0.75 2 2 C2 3.32 2 4.64 2 6 C-3.28 6 -8.56 6 -14 6 C-9.56 2.67 -9.56 2.67 -6.73 2.89 C-6.49 2.93 -6.25 2.96 -6 3 C-6 2.34 -6 1.68 -6 1 C-5.01 1.17 -5.01 1.17 0 2 C0 1.34 0 0.68 0 0 Z " fill="#393B3B" transform="translate(55,88)"/>
<path d="M0 0 C0.39 0.01 0.39 0.01 2.38 0.06 C3.04 2.37 3.7 4.68 4.38 7.06 C4.05 7.23 4.05 7.23 2.38 8.06 C2.38 6.08 2.38 4.1 2.38 2.06 C2.13 2.11 2.13 2.11 0.88 2.34 C-0.97 2.68 -2.82 3.01 -4.67 3.34 C-5.47 3.49 -6.26 3.63 -7.06 3.78 C-8.21 3.99 -9.36 4.2 -10.52 4.41 C-10.87 4.47 -11.22 4.54 -11.58 4.61 C-13.95 5.02 -16.22 5.14 -18.62 5.06 C-18.95 4.07 -19.29 3.08 -19.62 2.06 C-19.18 2.04 -18.74 2.01 -18.28 1.99 C-16.63 1.89 -14.98 1.79 -13.33 1.69 C-12.61 1.65 -11.9 1.61 -11.18 1.57 C-10.16 1.51 -9.13 1.44 -8.1 1.38 C-7.78 1.36 -7.47 1.35 -7.14 1.33 C-4.55 1.16 -2.61 -0.07 0 0 Z " fill="#EEF4F9" transform="translate(21.625,98.9375)"/>
<path d="M0 0 C1.19 0.89 2.19 1.75 3 3 C2.97 4.53 2.55 5.54 2 7 C0.35 7.33 -1.3 7.66 -3 8 C-2.48 8.56 -1.97 9.11 -1.44 9.69 C-0.41 11.03 0.01 11.67 -0.02 13.38 C-0.28 14.62 -0.59 15.8 -1 17 C-1.33 17 -1.66 17 -2 17 C-2.33 15.35 -2.66 13.7 -3 12 C-3.99 11.67 -4.98 11.34 -6 11 C-5.76 6.12 -3.21 3.42 0 0 Z " fill="#A3D5EF" transform="translate(53,106)"/>
<path d="M0 0 C0.23 0.12 0.46 0.24 0.69 0.36 C3.48 1.8 6.33 2.98 9.25 4.12 C9.71 4.31 10.17 4.49 10.64 4.68 C11.76 5.12 12.88 5.56 14 6 C13.72 6.12 13.44 6.24 13.15 6.36 C10.15 7.73 10.15 7.73 9.39 9.07 C9.37 9.24 9.37 9.24 9.25 10.12 C9.19 10.48 9.14 10.83 9.08 11.2 C9.05 11.46 9.03 11.73 9 12 C8.01 12 7.02 12 6 12 C5.95 11.81 5.95 11.81 5.7 10.83 C4.72 7.32 3.62 5.2 0.8 2.86 C0 2 0 2 -0.05 0.95 C-0.04 0.79 -0.04 0.79 0 0 Z " fill="#5B96A2" transform="translate(13,116)"/>
<path d="M0 0 C0 1.32 0 2.64 0 4 C-1.62 4.2 -3.25 4.38 -4.88 4.56 C-5.34 4.62 -5.8 4.67 -6.27 4.73 C-6.49 4.76 -6.49 4.76 -7.62 4.88 C-7.82 4.9 -7.82 4.9 -8.85 5.02 C-10.16 5 -10.89 4.66 -12 4 C-12 3.34 -12 2.68 -12 2 C-8.35 -0.69 -4.3 -0.19 0 0 Z " fill="#D5EDFB" transform="translate(85,99)"/>
<path d="M0 0 C0.45 0.01 0.9 0.02 1.36 0.03 C1.85 0.04 2.34 0.04 2.85 0.05 C3.36 0.07 3.88 0.08 4.39 0.1 C4.91 0.11 5.43 0.12 5.95 0.13 C7.22 0.15 8.49 0.19 9.76 0.23 C9.43 0.39 9.43 0.39 7.76 1.23 C7.76 3.21 7.76 5.19 7.76 7.23 C6.44 7.23 5.12 7.23 3.76 7.23 C3.43 5.58 3.1 3.93 2.76 2.23 C0.78 2.23 -1.2 2.23 -3.24 2.23 C-1.24 0.23 -1.24 0.23 0 0 Z " fill="#726C64" transform="translate(33.23681640625,79.77294921875)"/>
<path d="M0 0 C1.98 0 3.96 0 6 0 C5.34 1.98 4.68 3.96 4 6 C4.99 6 5.98 6 7 6 C6.34 7.32 5.68 8.64 5 10 C4.34 10 3.68 10 3 10 C2.8 9.25 2.61 8.5 2.41 7.75 C2 7 2 7 0 6 C0 4.02 0 2.04 0 0 Z " fill="#3E3C39" transform="translate(39,98)"/>
<path d="M0 0 C5.87 -0.86 10.74 1.65 16 4 C13.33 5.33 10.67 6.67 8 8 C8 6.68 8 5.36 8 4 C5.36 3.34 2.72 2.68 0 2 C0 1.34 0 0.68 0 0 Z " fill="#A0DCFB" transform="translate(5,83)"/>
<path d="M0 0 C0.99 0 1.98 0 3 0 C3 0.66 3 1.32 3 2 C3.48 1.93 3.96 1.86 4.46 1.78 C5.1 1.69 5.74 1.59 6.38 1.5 C6.69 1.45 7.01 1.4 7.34 1.36 C8.9 1.13 10.41 0.94 12 1 C12.16 2.15 12.25 2.89 12 4 C11.17 5.07 10.29 5.6 9 6 C7.56 5.95 6.34 5.51 5 5 C4.55 4.83 4.1 4.66 3.63 4.48 C2.41 4 1.21 3.51 0 3 C0 2.01 0 1.02 0 0 Z " fill="#93D5F2" transform="translate(25,113)"/>
<path d="M0 0 C0.66 0.33 1.32 0.66 2 1 C1.34 2.32 0.68 3.64 0 5 C3.96 5 7.92 5 12 5 C10.25 6.75 9.66 7.28 7.5 8.06 C5.95 8.64 4.47 9.23 3 10 C2.9 9.69 2.79 9.38 2.69 9.06 C1.7 7.53 0.74 7.45 -1 7 C-1.03 6.02 -1.05 5.04 -1.06 4.06 C-1.07 3.78 -1.08 3.51 -1.09 3.22 C-1.1 2.48 -1.05 1.74 -1 1 C-0.67 0.67 -0.34 0.34 0 0 Z " fill="#161717" transform="translate(26,90)"/>
<path d="M0 0 C1.65 0 3.3 0 5 0 C5 2.31 5 4.62 5 7 C2.69 7 0.38 7 -2 7 C-1.48 5.76 -0.96 4.53 -0.44 3.29 C0 2 0 2 0 0 Z " fill="#212525" transform="translate(44,124)"/>
<path d="M0 0 C1.15 -0.03 2.29 -0.05 3.44 -0.06 C3.76 -0.07 4.09 -0.08 4.42 -0.09 C4.74 -0.09 5.05 -0.09 5.37 -0.1 C5.66 -0.1 5.95 -0.11 6.24 -0.11 C7 0 7 0 8 1 C8.07 2.05 8.09 3.02 8.06 4.06 C8.06 4.34 8.05 4.63 8.05 4.92 C8.04 5.61 8.02 6.31 8 7 C7.34 6.67 6.68 6.34 6 6 C5.34 7.65 4.68 9.3 4 11 C3.34 11 2.68 11 2 11 C2.33 7.7 2.66 4.4 3 1 C2.01 0.67 1.02 0.34 0 0 Z " fill="#32383A" transform="translate(47,96)"/>
<path d="M0 0 C2.64 0 5.28 0 8 0 C6.12 3.88 6.12 3.88 5 5 C3.81 5.1 3.81 5.1 2.44 5.06 C2.04 5.05 2.04 5.05 0 5 C0 3.35 0 1.7 0 0 Z " fill="#454343" transform="translate(37,126)"/>
<path d="M0 0 C0.81 -0.03 1.62 -0.05 2.44 -0.06 C2.89 -0.07 3.34 -0.09 3.81 -0.1 C5 0 5 0 6 1 C6.1 2.19 6.1 2.19 6.06 3.56 C6.05 4.02 6.04 4.47 6.04 4.94 C6.02 5.29 6.01 5.64 6 6 C5.19 6.03 4.38 6.05 3.56 6.06 C3.11 6.07 2.66 6.09 2.19 6.1 C1 6 1 6 0 5 C-0.1 3.81 -0.1 3.81 -0.06 2.44 C-0.05 1.98 -0.04 1.53 -0.04 1.06 C-0.02 0.71 -0.01 0.36 0 0 Z " fill="#2A2F2E" transform="translate(38,110)"/>
<path d="M0 0 C1.32 0 2.64 0 4 0 C4 0.66 4 1.32 4 2 C4.35 2.1 4.7 2.2 5.06 2.3 C8.73 3.5 8.73 3.5 9.55 5.02 C9.79 6.03 9.95 6.97 10 8 C9.84 7.87 9.68 7.73 9.52 7.6 C7.81 6.3 6.58 5.9 4.44 5.69 C3.14 5.48 3.14 5.48 2 5 C0.97 3.42 0.45 1.82 0 0 Z " fill="#9AD8FB" transform="translate(67,84)"/>
<path d="M0 0 C0.99 0 1.98 0 3 0 C3.84 2.42 4.31 4.61 3.59 7.12 C2.34 8.99 0.06 9.37 -2 10 C-1.34 6.7 -0.68 3.4 0 0 Z " fill="#B6E4FC" transform="translate(52,116)"/>
<path d="M0 0 C4.78 -0.21 8.69 -0.32 13 2 C9.14 3.42 5.05 3.1 1 3 C0.67 2.01 0.34 1.02 0 0 Z " fill="#5A96B2" transform="translate(17,115)"/>
<path d="M0 0 C1.65 0.33 3.3 0.66 5 1 C4.67 1.17 4.67 1.17 3 2 C3 2.66 3 3.32 3 4 C2.34 4 1.68 4 1 4 C1 7.3 1 10.6 1 14 C0.34 14 -0.32 14 -1 14 C-1.02 12.49 -1.04 10.98 -1.05 9.47 C-1.06 8.95 -1.07 8.44 -1.08 7.93 C-1.12 5.08 -1.14 2.63 0 0 Z " fill="#87C4E0" transform="translate(27,76)"/>
<path d="M0 0 C1.98 0 3.96 0 6 0 C5.67 0.99 5.34 1.98 5 3 C4.34 3 3.68 3 3 3 C3 3.99 3 4.98 3 6 C1.68 6 0.36 6 -1 6 C-0.67 4.02 -0.34 2.04 0 0 Z " fill="#2F3233" transform="translate(44,81)"/>
<path d="M0 0 C0.66 0 1.32 0 2 0 C2 0.66 2 1.32 2 2 C2.3 2.11 2.61 2.22 2.92 2.33 C6.2 3.58 9.04 5.11 12 7 C9.37 8.96 9.37 8.96 7.81 9.12 C7.54 9.08 7.28 9.04 7 9 C6.91 8.55 6.82 8.1 6.72 7.64 C6 5.48 4.37 4.8 2.44 3.81 C2.11 3.64 1.78 3.46 1.44 3.28 C0.63 2.84 -0.18 2.42 -1 2 C-0.67 1.34 -0.34 0.68 0 0 Z " fill="#E0F0F9" transform="translate(1,102)"/>
<path d="M0 0 C0.33 0.01 0.66 0.01 1 0.02 C1.36 0.02 1.72 0.02 2.08 0.03 C2.27 0.03 2.27 0.03 3.21 0.05 C3.59 0.06 3.97 0.06 4.36 0.06 C5.29 0.08 6.22 0.09 7.15 0.11 C7.15 1.1 7.15 2.09 7.15 3.11 C2.99 4.53 2.99 4.53 0.93 3.51 C-0.05 2.76 -0.97 1.99 -1.85 1.11 C-0.85 0.11 -0.85 0.11 0 0 Z " fill="#A2D8F6" transform="translate(10.847900390625,109.886474609375)"/>
<path d="M0 0 C2.64 0 5.28 0 8 0 C6.55 4.58 6.55 4.58 4.98 5.78 C3.88 6.31 3.88 6.31 2 7 C2.33 5.35 2.66 3.7 3 2 C2.01 1.34 1.02 0.68 0 0 Z " fill="#252E33" transform="translate(47,79)"/>
<path d="M0 0 C-0.31 0.94 -0.31 0.94 -1 2 C-3.5 3.22 -5.95 3.12 -8.69 3.06 C-9.1 3.06 -9.52 3.05 -9.95 3.05 C-10.96 3.04 -11.98 3.02 -13 3 C-11.49 1.24 -10.55 0.71 -8.19 0.38 C-7.93 0.34 -7.67 0.3 -7.4 0.26 C-4.93 -0.07 -2.49 -0.1 0 0 Z " fill="#BBE8FD" transform="translate(81,127)"/>
<path d="M0 0 C1.32 0.33 2.64 0.66 4 1 C4.18 2.7 4.27 4.31 4 6 C3.14 7 2.22 7.51 1 8 C0.4 5.31 -0.15 2.77 0 0 Z " fill="#AFE1FD" transform="translate(55,117)"/>
<path d="M0 0 C0.24 0.25 0.48 0.51 0.73 0.77 C3 3.1 5.33 5.12 8 7 C7 8 7 8 5.81 8.1 C5.36 8.09 4.9 8.07 4.44 8.06 C4.21 8.06 4.21 8.06 3.06 8.04 C2.71 8.02 2.36 8.01 2 8 C2 7.01 2 6.02 2 5 C1.34 5 0.68 5 0 5 C0 3.35 0 1.7 0 0 Z " fill="#5F95A8" transform="translate(7,108)"/>
<path d="M0 0 C0.99 0.33 1.98 0.66 3 1 C2.34 2.32 1.68 3.64 1 5 C-2.96 5 -6.92 5 -11 5 C-11 4.67 -11 4.34 -11 4 C-10.77 3.99 -10.55 3.97 -10.31 3.96 C-2.92 3.42 -2.92 3.42 -1 1.44 C-0.38 0.62 -0.38 0.62 0 0 Z " fill="#9AD4F2" transform="translate(26,110)"/>
<path d="M0 0 C2.31 0 4.62 0 7 0 C7 0.66 7 1.32 7 2 C7.99 2.33 8.98 2.66 10 3 C6.37 3 2.74 3 -1 3 C-0.67 2.01 -0.34 1.02 0 0 Z " fill="#393733" transform="translate(30,85)"/>
<path d="M0 0 C6.37 0.49 6.37 0.49 7.91 1.73 C8.44 2.56 8.44 2.56 9 4 C6.69 4 4.38 4 2 4 C2 3.01 2 2.02 2 1 C1.34 0.67 0.68 0.34 0 0 Z " fill="#699DA7" transform="translate(57,127)"/>
<path d="M0 0 C0 2.64 0 5.28 0 8 C-2.25 4.62 -2.25 4.62 -2 3 C-2.99 2.67 -3.98 2.34 -5 2 C-5 1.34 -5 0.68 -5 0 C-2.94 -1.43 -2.75 -0.92 0 0 Z " fill="#ECEFF0" transform="translate(29,98)"/>
<path d="M0 0 C0.99 0.33 1.98 0.66 3 1 C3 2.65 3 4.3 3 6 C0.56 6.06 -1.77 5.82 -4.19 5.5 C-4.56 5.45 -4.92 5.4 -5.3 5.36 C-6.2 5.24 -7.1 5.12 -8 5 C-8 4.67 -8 4.34 -8 4 C-5.03 4 -2.06 4 1 4 C0.67 2.68 0.34 1.36 0 0 Z " fill="#1B1E1F" transform="translate(56,90)"/>
<path d="M0 0 C0.33 0.99 0.66 1.98 1 3 C1.66 3 2.32 3 3 3 C3 3.66 3 4.32 3 5 C3.99 5.17 3.99 5.17 9 6 C5.29 7.29 2.78 6.77 -1 6 C-0.67 4.02 -0.34 2.04 0 0 Z " fill="#E1EAF1" transform="translate(59,92)"/>
<path d="M0 0 C1.32 0.66 2.64 1.32 4 2 C4 2.66 4 3.32 4 4 C0.7 4 -2.6 4 -6 4 C-6 3.34 -6 2.68 -6 2 C-4.35 2 -2.7 2 -1 2 C-0.67 1.34 -0.34 0.68 0 0 Z " fill="#568F9D" transform="translate(6,127)"/>
<path d="M0 0 C0.66 0 1.32 0 2 0 C2.33 3.3 2.66 6.6 3 10 C2.34 10 1.68 10 1 10 C0.37 6.65 -0.18 3.43 0 0 Z " fill="#68615A" transform="translate(37,98)"/>
<path d="M0 0 C0.33 0.99 0.66 1.98 1 3 C0.59 3.06 0.18 3.12 -0.24 3.18 C-0.79 3.27 -1.33 3.35 -1.88 3.44 C-2.01 3.46 -2.01 3.46 -2.69 3.56 C-4.3 3.81 -5.57 4.18 -7 5 C-7 3.68 -7 2.36 -7 1 C-4.57 0.33 -2.52 -0.13 0 0 Z " fill="#41413D" transform="translate(36,82)"/>
<path d="M0 0 C2 0 2 0 2.85 0.8 C3.11 1.16 3.36 1.51 3.62 1.88 C3.76 2.05 3.76 2.05 4.41 2.93 C5 4 5 4 5 6 C3.35 6.33 1.7 6.66 0 7 C0 4.69 0 2.38 0 0 Z " fill="#E7F2F8" transform="translate(25,101)"/>
<path d="M0 0 C0.96 0.31 0.96 0.31 2 1 C2.32 2.08 2.5 2.96 2.62 4.06 C2.66 4.34 2.7 4.63 2.74 4.92 C2.84 5.61 2.92 6.3 3 7 C2.01 7.33 1.02 7.66 0 8 C-2.22 3.69 -2.22 3.69 -1.69 2 C-1.17 1.26 -0.66 0.62 0 0 Z " fill="#6A6C6E" transform="translate(31,100)"/>
<path d="M0 0 C0.66 0 1.32 0 2 0 C2 2.31 2 4.62 2 7 C0.68 7 -0.64 7 -2 7 C-2 6.34 -2 5.68 -2 5 C-1.34 5 -0.68 5 0 5 C0 3.35 0 1.7 0 0 Z " fill="#97DFFC" transform="translate(25,81)"/>
<path d="M0 0 C1.65 0 3.3 0 5 0 C5.33 1.32 5.66 2.64 6 4 C5.01 3.84 5.01 3.84 0 3 C0 2.01 0 1.02 0 0 Z " fill="#4F8A9C" transform="translate(0,126)"/>
<path d="M0 0 C1.46 0.25 2.92 0.53 4.38 0.81 C4.79 0.88 5.2 0.95 5.62 1.03 C7.72 1.45 9.06 1.74 10.29 3.57 C10.54 4.04 10.78 4.52 11 5 C10.67 5.17 10.67 5.17 9 6 C9 5.34 9 4.68 9 4 C6.36 3.67 3.72 3.34 1 3 C0.67 2.01 0.34 1.02 0 0 Z " fill="#AADFFB" transform="translate(50,114)"/>
<path d="M0 0 C5.37 1.93 5.37 1.93 7 4 C5.78 4.77 5.16 5.02 3.71 4.88 C3.49 4.83 3.49 4.83 2.38 4.56 C1.93 4.46 1.48 4.36 1.02 4.25 C0.85 4.21 0.85 4.21 0 4 C0 2.68 0 1.36 0 0 Z " fill="#6998A9" transform="translate(0,104)"/>
<path d="M0 0 C0.66 0.33 1.32 0.66 2 1 C1.67 2.32 1.34 3.64 1 5 C0.34 5 -0.32 5 -1 5 C-1 6.65 -1 8.3 -1 10 C-1.33 9.34 -1.66 8.68 -2 8 C-2.66 8 -3.32 8 -4 8 C-3.34 6.68 -2.68 5.36 -2 4 C-1.34 4 -0.68 4 0 4 C0 2.68 0 1.36 0 0 Z " fill="#619AA3" transform="translate(31,119)"/>
<path d="M0 0 C2.64 0.66 5.28 1.32 8 2 C7.67 2.17 7.67 2.17 6 3 C6 3.66 6 4.32 6 5 C5.01 5.33 4.02 5.66 3 6 C2.49 5.38 2 4.75 1.5 4.12 C1.22 3.78 0.94 3.43 0.66 3.07 C0 2 0 2 0 0 Z " fill="#141C21" transform="translate(32,107)"/>
<path d="M0 0 C0.96 -0.05 1.92 -0.09 2.88 -0.12 C3.14 -0.14 3.41 -0.16 3.69 -0.18 C5.68 -0.22 5.68 -0.22 6.64 0.45 C7.2 1.01 7.2 1.01 8 2 C5.59 2.96 3.58 3.12 1 3 C0.67 2.01 0.34 1.02 0 0 Z " fill="#EAF3FA" transform="translate(2,101)"/>
<path d="M0 0 C0.66 0 1.32 0 2 0 C2 1.65 2 3.3 2 5 C0.68 5 -0.64 5 -2 5 C-2 4.01 -2 3.02 -2 2 C-1.34 2 -0.68 2 0 2 C0 1.34 0 0.68 0 0 Z " fill="#22272A" transform="translate(49,118)"/>
<path d="M0 0 C1.65 0 3.3 0 5 0 C5 0.99 5 1.98 5 3 C3.15 3.88 3.15 3.88 2 4 C0.86 3.5 -0.06 2.81 -1 2 C-0.67 1.34 -0.34 0.68 0 0 Z " fill="#8ED1EE" transform="translate(32,114)"/>
<path d="M0 0 C3.51 0.49 3.51 0.49 4.71 1.73 C5.19 2.47 5.62 3.2 6 4 C5.01 4.33 4.02 4.66 3 5 C2.49 4.55 2 4.09 1.5 3.62 C1.22 3.37 0.94 3.11 0.66 2.85 C-0.14 1.82 -0.13 1.27 0 0 Z " fill="#95D2EE" transform="translate(29,108)"/>
<path d="M0 0 C0.83 0.17 0.83 0.17 5 1 C4.67 2.32 4.34 3.64 4 5 C1.97 4.65 1.97 4.65 1 4 C0.41 2.66 0.24 1.47 0 0 Z " fill="#A0DBFB" transform="translate(54,107)"/>
<path d="M0 0 C0.99 0 1.98 0 3 0 C2.67 1.98 2.34 3.96 2 6 C1.34 6 0.68 6 0 6 C0 4.02 0 2.04 0 0 Z " fill="#3E3F3E" transform="translate(41,81)"/>
<path d="M0 0 C1.32 0 2.64 0 4 0 C3.67 1.32 3.34 2.64 3 4 C2.01 4 1.02 4 0 4 C0 2.68 0 1.36 0 0 Z " fill="#635E5A" transform="translate(38,126)"/>
<path d="M0 0 C1.98 0 3.96 0 6 0 C4.68 1.32 3.36 2.64 2 4 C2 3.34 2 2.68 2 2 C1.34 2 0.68 2 0 2 C0 1.34 0 0.68 0 0 Z " fill="#0F1C22" transform="translate(45,109)"/>
<path d="M0 0 C0.66 0 1.32 0 2 0 C2.33 1.32 2.66 2.64 3 4 C1.02 4 -0.96 4 -3 4 C-2.67 3.34 -2.34 2.68 -2 2 C-1.34 2 -0.68 2 0 2 C0 1.34 0 0.68 0 0 Z " fill="#E8F5FC" transform="translate(22,104)"/>
<path d="M0 0 C0 0.66 0 1.32 0 2 C1.32 2.33 2.64 2.66 4 3 C1.36 3 -1.28 3 -4 3 C-4 2.34 -4 1.68 -4 1 C-2.59 0.19 -1.63 -0.12 0 0 Z " fill="#D0EBFB" transform="translate(81,100)"/>
<path d="M0 0 C0 0.99 0 1.98 0 3 C-0.99 3 -1.98 3 -3 3 C-3.33 3.99 -3.66 4.98 -4 6 C-4.33 5.01 -4.66 4.02 -5 3 C-4.55 2.49 -4.09 2 -3.62 1.5 C-3.5 1.36 -3.5 1.36 -2.85 0.66 C-1.82 -0.14 -1.27 -0.13 0 0 Z " fill="#2E2F2E" transform="translate(34,97)"/>
<path d="M0 0 C0.99 0 1.98 0 3 0 C2.67 1.65 2.34 3.3 2 5 C1.01 4.34 0.02 3.68 -1 3 C-0.67 2.01 -0.34 1.02 0 0 Z " fill="#E6EDEE" transform="translate(57,86)"/>
<path d="M0 0 C0.16 0.16 0.32 0.31 0.48 0.47 C0.15 1.46 -0.18 2.45 -0.52 3.47 C-0.75 3.16 -0.97 2.85 -1.21 2.54 C-2.84 0.86 -5.31 0.79 -7.52 0.47 C-7.52 0.14 -7.52 -0.19 -7.52 -0.53 C-2.42 -2.02 -2.42 -2.02 0 0 Z " fill="#A1DBFB" transform="translate(76.51953125,88.52734375)"/>
<path d="M0 0 C0.66 0.66 1.32 1.32 2 2 C1.34 2.33 1.34 2.33 -2 4 C-2 4.66 -2 5.32 -2 6 C-2.66 5.67 -3.32 5.34 -4 5 C-2.68 3.35 -1.36 1.7 0 0 Z " fill="#9BD2EC" transform="translate(51,109)"/>
<path d="M0 0 C-0.66 0 -1.32 0 -2 0 C-2 0.66 -2 1.32 -2 2 C-2.99 1.83 -2.99 1.83 -8 1 C-4.95 -0.85 -3.35 -1.32 0 0 Z " fill="#AEDEF7" transform="translate(31,108)"/>
<path d="M0 0 C1.65 0 3.3 0 5 0 C4.34 1.32 3.68 2.64 3 4 C2.01 2.68 1.02 1.36 0 0 Z " fill="#131514" transform="translate(27,96)"/>
<path d="M0 0 C0.28 0.1 0.55 0.2 0.84 0.3 C1.52 0.55 2.2 0.8 2.88 1.06 C2.88 1.39 2.88 1.72 2.88 2.06 C1.92 2.12 0.96 2.16 0 2.19 C-0.13 2.2 -0.13 2.2 -0.82 2.24 C-2.81 2.29 -2.81 2.29 -3.77 1.61 C-4.32 1.05 -4.32 1.05 -5.12 0.06 C-3.19 -1.28 -2.03 -0.78 0 0 Z " fill="#96D8FB" transform="translate(58.125,77.9375)"/>
<path d="M0 0 C0.33 0.66 0.66 1.32 1 2 C1.66 2 2.32 2 3 2 C3 2.99 3 3.98 3 5 C2.01 5 1.02 5 0 5 C0 3.35 0 1.7 0 0 Z " fill="#58959F" transform="translate(19,123)"/>
<path d="M0 0 C0.66 0 1.32 0 2 0 C2.88 1.85 2.88 1.85 3 3 C2.48 4.19 1.83 4.98 1 6 C0.67 4.02 0.34 2.04 0 0 Z " fill="#1B282D" transform="translate(45,111)"/>
<path d="M0 0 C1.32 0 2.64 0 4 0 C4 0.66 4 1.32 4 2 C3.34 2.33 3.34 2.33 0 4 C0 2.68 0 1.36 0 0 Z " fill="#272B2F" transform="translate(49,82)"/>
<path d="M0 0 C1.32 0 2.64 0 4 0 C4 0.66 4 1.32 4 2 C2.35 2.33 0.7 2.66 -1 3 C-0.67 2.01 -0.34 1.02 0 0 Z " fill="#91CEEF" transform="translate(51,76)"/>
<path d="M0 0 C0.33 1.32 0.66 2.64 1 4 C0.01 4.33 -0.98 4.66 -2 5 C-1.34 3.35 -0.68 1.7 0 0 Z " fill="#C1C6C4" transform="translate(51,102)"/>
<path d="M0 0 C0.99 0 1.98 0 3 0 C3 1.32 3 2.64 3 4 C2.34 4 1.68 4 1 4 C0.67 2.68 0.34 1.36 0 0 Z " fill="#D1C6B8" transform="translate(37,104)"/>
<path d="M0 0 C0.14 0.09 0.14 0.09 0.88 0.56 C0.55 1.55 0.21 2.54 -0.12 3.56 C-1.12 3.23 -2.11 2.9 -3.12 2.56 C-3.12 1.9 -3.12 1.24 -3.12 0.56 C-1.4 -0.55 -1.4 -0.55 0 0 Z " fill="#E4E7E7" transform="translate(27.125,97.4375)"/>
<path d="M0 0 C0.5 0.33 0.5 0.33 3 2 C2.34 2.33 2.34 2.33 -1 4 C-0.67 2.68 -0.34 1.36 0 0 Z " fill="#B2E1FA" transform="translate(14,87)"/>
<path d="M0 0 C0.75 0.03 1.5 0.07 2.25 0.1 C2.25 1.09 2.25 2.08 2.25 3.1 C0.93 2.44 -0.39 1.78 -1.75 1.1 C-0.75 0.1 -0.75 0.1 0 0 Z " fill="#A2D6F0" transform="translate(10.75390625,109.90234375)"/>
<path d="M0 0 C0.99 0.33 1.98 0.66 3 1 C3 1.66 3 2.32 3 3 C2.01 3 1.02 3 0 3 C0 2.01 0 1.02 0 0 Z " fill="#5B9299" transform="translate(0,120)"/>
<path d="M0 0 C0.66 0 1.32 0 2 0 C2 0.99 2 1.98 2 3 C1.01 2.67 0.02 2.34 -1 2 C-0.67 1.34 -0.34 0.68 0 0 Z " fill="#313535" transform="translate(36,121)"/>
<path d="M0 0 C0.66 0.66 1.32 1.32 2 2 C1.67 2.17 1.67 2.17 0 3 C-0.99 2.34 -1.98 1.68 -3 1 C-2.01 0.67 -1.02 0.34 0 0 Z " fill="#3A3E3F" transform="translate(51,106)"/>
<path d="M0 0 C0.66 0 1.32 0 2 0 C1.67 0.99 1.34 1.98 1 3 C0.34 3 -0.32 3 -1 3 C-0.67 2.01 -0.34 1.02 0 0 Z " fill="#68655D" transform="translate(44,104)"/>
</g></svg>