<svg xmlns="http://www.w3.org/2000/svg" width="42" height="82" viewBox="0 0 42 82"><defs><clipPath id="clip-patch-18"><path d="M13.02,9.64L7.02,58.64L7.00,58.92L7.01,59.21L7.04,59.49L7.10,59.77L7.19,60.05L7.30,60.31L7.44,60.56L7.60,60.80L13.60,68.80L13.78,69.01L13.97,69.21L14.19,69.39L14.42,69.55L14.66,69.68L22.66,73.68L22.92,73.80L23.20,73.89L23.48,73.95L23.76,73.99L24.05,74.00L24.34,73.98L24.63,73.93L24.91,73.86L25.18,73.76L25.44,73.63L25.68,73.48L25.91,73.31L26.13,73.12L26.32,72.90L26.49,72.67L26.64,72.42L33.64,59.42L33.78,59.13L33.88,58.83L33.95,58.52L33.99,58.21L34.00,57.89L33.00,30.89L32.98,30.62L32.93,30.36L32.86,30.10L26.86,11.10L26.75,10.81L26.62,10.54L26.46,10.28L26.27,10.04L26.06,9.82L25.82,9.62L25.57,9.44L25.30,9.30L25.02,9.18L24.73,9.09L16.73,7.09L16.43,7.03L16.14,7.00L15.84,7.00L15.54,7.04L15.25,7.10L14.96,7.18L14.69,7.30L14.43,7.45L14.18,7.62L13.95,7.81L13.74,8.02L13.56,8.26L13.40,8.51L13.26,8.77L13.15,9.05L13.07,9.34L13.02,9.64Z" clip-rule="evenodd"/></clipPath></defs><g clip-path="url(#clip-patch-18)">
<path d="M0 0 C13.86 0 27.72 0 42 0 C42 27.06 42 54.12 42 82 C28.14 82 14.28 82 0 82 C0 54.94 0 27.88 0 0 Z " fill="#D1AB84" transform="translate(0,0)"/>
<path d="M0 0 C13.86 0 27.72 0 42 0 C42 8.58 42 17.16 42 26 C28.14 26 14.28 26 0 26 C0 17.42 0 8.84 0 0 Z " fill="#D4B18A" transform="translate(0,56)"/>
</g></svg>