<svg xmlns="http://www.w3.org/2000/svg" width="77" height="51" viewBox="0 0 77 51"><defs><clipPath id="clip-patch-37"><path d="M7.15,28.19L9.39,34.94L9.50,35.22L9.63,35.48L9.79,35.72L9.96,35.95L10.17,36.17L10.39,36.36L10.62,36.53L10.88,36.67L22.64,42.67L22.92,42.80L23.22,42.90L23.53,42.96L23.84,43.00L24.15,43.00L53.55,41.50L53.81,41.47L54.07,41.42L54.32,41.35L54.57,41.26L65.21,36.76L65.47,36.64L65.71,36.49L65.94,36.32L66.16,36.13L66.35,35.92L66.52,35.69L66.67,35.44L66.80,35.18L66.90,34.92L66.97,34.64L68.93,25.64L68.98,25.36L69.00,25.07L68.99,24.79L68.96,24.50L68.90,24.23L68.81,23.95L68.70,23.69L68.56,23.44L68.40,23.21L62.80,15.71L62.63,15.49L62.44,15.30L62.23,15.12L62.00,14.96L61.76,14.83L50.56,9.13L50.32,9.02L50.07,8.93L49.81,8.86L49.55,8.82L34.15,7.02L33.87,7.00L33.60,7.01L33.32,7.04L19.32,9.29L19.05,9.35L18.77,9.43L18.51,9.54L18.26,9.68L18.02,9.83L17.80,10.01L10.24,16.76L10.04,16.96L9.85,17.19L9.69,17.42L9.55,17.68L9.43,17.94L9.34,18.21L7.10,26.46L7.04,26.75L7.01,27.04L7.00,27.33L7.02,27.62L7.07,27.91L7.15,28.19Z" clip-rule="evenodd"/></clipPath></defs><g clip-path="url(#clip-patch-37)">
<path d="M0 0 C25.41 0 50.82 0 77 0 C77 16.83 77 33.66 77 51 C51.59 51 26.18 51 0 51 C0 34.17 0 17.34 0 0 Z " fill="#464A4A" transform="translate(0,0)"/>
<path d="M0 0 C25.41 0 50.82 0 77 0 C77 5.28 77 10.56 77 16 C75.21 16.21 73.43 16.41 71.59 16.63 C65.67 17.31 59.76 18 53.84 18.69 C50.26 19.1 46.67 19.52 43.09 19.93 C39.96 20.3 36.83 20.66 33.71 21.02 C32.05 21.22 30.4 21.41 28.75 21.6 C27.18 21.78 25.62 21.96 24.06 22.14 C23.49 22.21 22.93 22.27 22.36 22.34 C21.57 22.43 20.79 22.52 20 22.61 C19.75 22.64 19.49 22.67 19.23 22.7 C17.56 22.91 15.94 23.21 14.3 23.55 C9.58 24.2 4.77 24 0 24 C0 16.08 0 8.16 0 0 Z " fill="#7E7871" transform="translate(0,0)"/>
<path d="M0 0 C7.65 -0.71 7.65 -0.71 11.11 1.85 C13.04 3.48 14.21 4.88 15.35 7.16 C15.35 9.8 15.35 12.44 15.35 15.16 C-6.76 15.16 -28.87 15.16 -51.65 15.16 C-51.65 12.19 -51.65 9.22 -51.65 6.16 C-14.04 1.2 -14.04 1.2 -2.53 0.23 C-1.69 0.16 -0.84 0.08 0 0 Z " fill="#E9944D" transform="translate(51.6484375,35.84228515625)"/>
<path d="M0 0 C0 0.33 0 0.66 0 1 C-5.28 1.66 -10.56 2.32 -16 3 C-14.58 2.84 -13.15 2.67 -11.69 2.5 C-3.16 1.63 5.44 1.94 14 2 C14 9.92 14 17.84 14 26 C10.7 26 7.4 26 4 26 C3.69 24.31 3.39 22.62 3.09 20.93 C2.99 20.35 2.88 19.78 2.78 19.2 C2.63 18.38 2.48 17.55 2.34 16.72 C2.29 16.47 2.24 16.21 2.19 15.94 C2.07 15.22 2.07 15.22 2 14 C2.33 13.67 2.66 13.34 3 13 C2.01 12.34 1.02 11.68 0 11 C1.98 10.34 3.96 9.68 6 9 C5.4 9.04 4.8 9.08 4.18 9.12 C1.25 9.31 -1.69 9.48 -4.62 9.62 C-4.9 9.64 -5.17 9.65 -5.45 9.67 C-15.54 10.16 -25.49 9.8 -35.56 9.06 C-35.9 9.04 -36.24 9.01 -36.58 8.99 C-40.73 8.68 -44.86 8.35 -49 8 C-49.33 7.01 -49.66 6.02 -50 5 C-41.76 3.5 -33.53 2.41 -25.2 1.57 C-23.94 1.44 -22.67 1.31 -21.41 1.17 C-14.25 0.4 -7.21 -0.24 0 0 Z " fill="#636563" transform="translate(63,25)"/>
<path d="M0 0 C25.41 0 50.82 0 77 0 C77 0.66 77 1.32 77 2 C76.49 2.06 75.98 2.11 75.47 2.17 C75.3 2.19 75.3 2.19 74.44 2.28 C73.66 2.37 72.88 2.46 72.1 2.54 C69.83 2.8 67.56 3.05 65.3 3.3 C60.45 3.84 55.6 4.38 50.76 4.91 C48.44 5.17 46.11 5.43 43.79 5.69 C43.54 5.72 43.28 5.74 43.02 5.77 C36.73 6.47 30.45 7.17 24.16 7.89 C22.29 8.1 20.42 8.31 18.54 8.52 C16.88 8.71 15.21 8.9 13.55 9.1 C12.78 9.18 12.01 9.27 11.24 9.36 C10.34 9.46 9.43 9.56 8.53 9.67 C5.64 9.99 2.96 10 0 10 C0 6.7 0 3.4 0 0 Z " fill="#AA9C87" transform="translate(0,0)"/>
<path d="M0 0 C2.04 0.14 4.08 0.29 6.12 0.43 C6.44 0.45 6.75 0.47 7.08 0.5 C10.83 0.76 14.58 1.04 18.33 1.36 C37 2.93 55.3 3.03 74 2 C73.37 2.33 72.74 2.65 72.11 2.97 C71.75 3.15 71.4 3.34 71.04 3.52 C69.63 4.17 68.28 4.44 66.75 4.62 C66.48 4.66 66.21 4.7 65.94 4.74 C65.29 4.83 64.65 4.92 64 5 C65.32 5.66 66.64 6.32 68 7 C66.68 7.66 65.36 8.32 64 9 C63.76 8.79 63.53 8.57 63.29 8.35 C60.62 6.12 58.82 5.57 55.38 5.74 C54.95 5.76 54.52 5.77 54.07 5.78 C49.31 5.95 44.59 6.5 39.86 7.09 C38.93 7.21 38 7.32 37.06 7.43 C34.64 7.72 32.21 8.02 29.79 8.32 C25.9 8.8 22.01 9.27 18.12 9.74 C16.78 9.9 15.43 10.07 14.09 10.24 C9.35 10.82 4.78 11.11 0 11 C0 7.37 0 3.74 0 0 Z " fill="#2B2925" transform="translate(0,31)"/>
<path d="M0 0 C0 0.66 0 1.32 0 2 C0.99 2 1.98 2 3 2 C3.25 3.73 3.34 5.28 3 7 C1.84 8.31 0.5 9.11 -1 10 C-1.33 10.33 -1.66 10.66 -2 11 C-3.11 11.12 -3.11 11.12 -4.5 11.11 C-4.63 11.11 -4.63 11.11 -5.27 11.11 C-6.11 11.11 -6.95 11.11 -7.79 11.1 C-8.37 11.1 -8.95 11.09 -9.53 11.09 C-11.06 11.09 -12.59 11.08 -14.12 11.07 C-15.68 11.06 -17.24 11.05 -18.81 11.05 C-21.87 11.04 -24.94 11.02 -28 11 C-28 8.03 -28 5.06 -28 2 C-18.59 0.22 -9.57 -0.26 0 0 Z " fill="#E7904B" transform="translate(28,40)"/>
<path d="M0 0 C3.94 -0.24 7.58 -0.27 11 2 C11.67 3.04 11.78 3.75 12 5 C13.11 6.11 13.46 6.12 14.97 6.14 C15.23 6.14 15.5 6.13 15.77 6.13 C15.91 6.13 15.91 6.13 16.62 6.14 C17.54 6.14 18.46 6.13 19.38 6.12 C20.01 6.13 20.64 6.13 21.28 6.13 C25.26 6.11 29.11 5.8 33.06 5.31 C36.71 4.89 39.19 4.87 42.29 6.92 C43.1 8.15 43.08 8.63 43.04 10.07 C43.04 10.43 43.03 10.79 43.02 11.16 C43.02 11.44 43.01 11.72 43 12 C37.71 12.07 32.41 12.12 27.12 12.16 C24.66 12.17 22.2 12.19 19.74 12.23 C17.37 12.26 15 12.28 12.62 12.28 C11.72 12.29 10.81 12.3 9.91 12.32 C8.64 12.34 7.37 12.34 6.1 12.34 C5.73 12.35 5.36 12.36 4.98 12.37 C2.83 12.35 1.79 12.01 0.24 10.48 C-0.18 9.99 -0.6 9.5 -1 9 C-0.77 8.98 -0.55 8.96 -0.31 8.93 C0.61 8.84 1.52 8.73 2.44 8.62 C2.76 8.59 3.09 8.56 3.42 8.53 C4.33 8.42 5.14 8.3 6 8 C6.72 6.96 6.72 6.96 7 6 C6.34 5.67 5.68 5.34 5 5 C5.66 5 6.32 5 7 5 C7 4.34 7 3.68 7 3 C6.01 3 5.02 3 4 3 C4 2.34 4 1.68 4 1 C2.68 0.67 1.36 0.34 0 0 Z " fill="#E28E4B" transform="translate(24,39)"/>
<path d="M0 0 C0 3.63 0 7.26 0 11 C-0.65 11.03 -0.65 11.03 -3.91 11.18 C-5.18 11.25 -6.46 11.31 -7.73 11.37 C-8.61 11.42 -9.48 11.46 -10.35 11.5 C-14.84 11.71 -19.26 11.96 -23.7 12.67 C-25.95 13.02 -28.15 13.12 -30.44 13.06 C-30.79 13.06 -31.14 13.05 -31.5 13.05 C-32.33 13.04 -33.17 13.02 -34 13 C-30.25 10.61 -26.35 10.4 -22 10 C-23.32 9.34 -24.64 8.68 -26 8 C-24.68 7.34 -23.36 6.68 -22 6 C-22 5.34 -22 4.68 -22 4 C-24.64 4 -27.28 4 -30 4 C-30 3.67 -30 3.34 -30 3 C-27.12 2.6 -24.24 2.21 -21.37 1.83 C-20.03 1.65 -18.69 1.47 -17.35 1.28 C-11.55 0.48 -5.88 -0.2 0 0 Z " fill="#444747" transform="translate(77,16)"/>
<path d="M0 0 C17.16 0 34.32 0 52 0 C52 0.33 52 0.66 52 1 C40.17 2.65 28.34 4.16 16.44 5.19 C15.95 5.23 15.47 5.27 14.97 5.32 C9.97 5.75 5.02 6.11 0 6 C0 4.02 0 2.04 0 0 Z " fill="#262622" transform="translate(0,0)"/>
<path d="M0 0 C0.78 0.02 0.78 0.02 4.75 0.12 C4.75 4.08 4.75 8.04 4.75 12.12 C-3.01 13.63 -10.7 14.74 -18.55 15.56 C-20.08 15.72 -21.6 15.89 -23.13 16.06 C-29.86 16.8 -36.47 17.35 -43.25 17.12 C-43.25 16.8 -43.25 16.46 -43.25 16.12 C-39.18 15.6 -35.11 15.08 -31.04 14.56 C-29.15 14.32 -27.26 14.08 -25.37 13.83 C-23.55 13.6 -21.72 13.36 -19.89 13.13 C-19.2 13.05 -18.5 12.96 -17.81 12.87 C-13.58 12.31 -9.52 12.03 -5.25 12.12 C-4.59 8.82 -3.93 5.52 -3.25 2.12 C-5.23 2.12 -7.21 2.12 -9.25 2.12 C-6.04 0.22 -3.69 -0.14 0 0 Z " fill="#4A4842" transform="translate(72.25,1.875)"/>
<path d="M0 0 C0.6 0.07 0.6 0.07 3.66 0.4 C30.28 3.3 30.28 3.3 41 3 C38.67 4.93 36.68 5.36 33.71 5.56 C33.5 5.58 33.5 5.58 32.45 5.67 C31.56 5.75 30.66 5.82 29.77 5.89 C27.41 6.08 25.05 6.29 22.7 6.49 C22.22 6.53 21.75 6.57 21.26 6.62 C16.55 7.02 11.87 7.56 7.19 8.12 C6.82 8.17 6.45 8.21 6.07 8.26 C4.04 8.5 2.02 8.75 0 9 C0 6.03 0 3.06 0 0 Z " fill="#6A6964" transform="translate(0,32)"/>
<path d="M0 0 C0 5.28 0 10.56 0 16 C-3.3 16 -6.6 16 -10 16 C-10.33 14.35 -10.66 12.7 -10.96 11.04 C-11.07 10.48 -11.18 9.91 -11.3 9.35 C-12.37 4.1 -12.37 4.1 -11.23 2.16 C-10.09 0.85 -8.82 0.46 -7.12 0.31 C-6.88 0.28 -6.64 0.24 -6.39 0.21 C-4.24 -0.06 -2.19 0 0 0 Z " fill="#37322C" transform="translate(77,35)"/>
<path d="M0 0 C-0.66 1.32 -1.32 2.64 -2 4 C-2.21 3.99 -2.21 3.99 -3.28 3.96 C-3.83 3.96 -4.38 3.95 -4.94 3.94 C-5.22 3.93 -5.49 3.92 -5.78 3.91 C-6.52 3.9 -7.26 3.95 -8 4 C-8.33 4.33 -8.66 4.66 -9 5 C-8.18 5.16 -8.18 5.16 -4 6 C-4 6.33 -4 6.66 -4 7 C-6.31 7 -8.62 7 -11 7 C-11 7.66 -11 8.32 -11 9 C-15.29 8.67 -19.58 8.34 -24 8 C-24 5.69 -24 3.38 -24 1 C-21.71 0.68 -19.42 0.38 -17.12 0.09 C-16.34 -0.01 -15.57 -0.11 -14.79 -0.22 C-9.64 -0.93 -5.1 -1.06 0 0 Z " fill="#4A4C4C" transform="translate(24,23)"/>
<path d="M0 0 C0.23 0 0.23 0 1.4 0.01 C2.54 0.03 3.68 0.04 4.81 0.06 C4.81 2.37 4.81 4.68 4.81 7.06 C4.27 7.09 3.73 7.11 3.18 7.14 C1.15 7.23 -0.89 7.33 -2.92 7.43 C-3.79 7.48 -4.67 7.52 -5.54 7.56 C-10.03 7.77 -14.45 8.03 -18.88 8.73 C-21.14 9.08 -23.34 9.18 -25.62 9.12 C-25.97 9.12 -26.32 9.12 -26.69 9.11 C-27.52 9.1 -28.35 9.08 -29.19 9.06 C-25.77 6.93 -22.34 6.46 -18.44 5.94 C-17.83 5.85 -17.22 5.76 -16.61 5.68 C-15.14 5.46 -13.66 5.26 -12.19 5.06 C-12.19 4.73 -12.19 4.4 -12.19 4.06 C-10.21 3.73 -8.23 3.4 -6.19 3.06 C-6.85 2.4 -7.51 1.74 -8.19 1.06 C-5.45 -0.09 -2.94 -0.05 0 0 Z " fill="#494B4A" transform="translate(72.1875,19.9375)"/>
<path d="M0 0 C4.29 0 8.58 0 13 0 C13 2.64 13 5.28 13 8 C11.42 8.37 9.84 8.72 8.25 9.06 C7.81 9.17 7.36 9.27 6.91 9.38 C3.91 10.01 1.91 9.97 -1 9 C0.98 8.34 2.96 7.68 5 7 C4.4 7.06 3.8 7.12 3.19 7.19 C1.39 7.19 0.55 6.86 -0.75 5.62 C-1.67 4.66 -1.98 4.24 -2.08 2.9 C-2.05 2.6 -2.03 2.31 -2 2 C-1.34 2 -0.68 2 0 2 C0 1.34 0 0.68 0 0 Z " fill="#70716E" transform="translate(64,27)"/>
<path d="M0 0 C0.7 0.01 1.39 0.01 2.09 0.01 C3.77 0.02 5.45 0.04 7.12 0.06 C7.12 0.72 7.12 1.38 7.12 2.06 C8.11 2.06 9.11 2.06 10.12 2.06 C10.12 3.71 10.12 5.36 10.12 7.06 C6.42 8.01 3.81 8.08 0.12 7.06 C0.12 6.07 0.12 5.08 0.12 4.06 C-4.5 3.4 -9.12 2.74 -13.88 2.06 C-13.88 1.73 -13.88 1.4 -13.88 1.06 C-9.21 0.09 -4.75 -0.06 0 0 Z " fill="#ED9750" transform="translate(20.875,39.9375)"/>
<path d="M0 0 C2.28 1.26 4.31 2.97 5.31 5.42 C5.81 7.14 5.96 8.81 5.97 10.6 C5.68 10.46 5.39 10.33 5.09 10.19 C1.74 8.75 -1.43 8.07 -5.03 7.6 C-5.03 6.94 -5.03 6.28 -5.03 5.6 C-6.02 5.27 -7.01 4.94 -8.03 4.6 C-7.37 4.6 -6.71 4.6 -6.03 4.6 C-6.03 3.94 -6.03 3.28 -6.03 2.6 C-3.72 2.93 -1.41 3.26 0.97 3.6 C-0.08 2.55 -0.16 2.47 -1.52 2.39 C-1.67 2.38 -1.67 2.38 -2.43 2.33 C-2.75 2.31 -3.07 2.3 -3.41 2.28 C-3.74 2.26 -4.07 2.24 -4.41 2.22 C-5.47 2.15 -6.53 2.09 -7.59 2.03 C-8.31 1.99 -9.03 1.95 -9.75 1.9 C-11.51 1.8 -13.27 1.7 -15.03 1.6 C-10.67 -1.02 -4.86 -1.9 0 0 Z " fill="#E79D57" transform="translate(61.02880859375,36.40283203125)"/>
<path d="M0 0 C0.56 0.01 1.11 0.02 1.67 0.03 C3.01 0.05 4.35 0.08 5.69 0.12 C5.69 1.45 5.69 2.77 5.69 4.12 C-5.53 4.12 -16.75 4.12 -28.31 4.12 C-28.31 3.8 -28.31 3.47 -28.31 3.12 C-27.82 3.11 -27.33 3.09 -26.83 3.06 C-25 2.99 -23.16 2.9 -21.32 2.81 C-20.53 2.77 -19.74 2.73 -18.95 2.7 C-14.79 2.53 -11.31 2.34 -7.51 0.56 C-5.1 -0.31 -2.54 -0.08 0 0 Z " fill="#C97B3B" transform="translate(61.3125,46.875)"/>
<path d="M0 0 C0.51 0.01 1.01 0.01 1.52 0.01 C2.74 0.03 3.97 0.04 5.19 0.06 C5.19 0.39 5.19 0.72 5.19 1.06 C2.88 1.72 0.57 2.38 -1.81 3.06 C-0.16 4.38 1.49 5.7 3.19 7.06 C-3.84 8.06 -10.73 8.18 -17.81 8.06 C-17.5 7.94 -17.19 7.82 -16.88 7.69 C-15.81 7.06 -15.81 7.06 -14.81 5.06 C-13.82 5.23 -13.82 5.23 -8.81 6.06 C-8.48 5.07 -8.15 4.08 -7.81 3.06 C-8.8 2.4 -9.79 1.74 -10.81 1.06 C-7.16 0.17 -3.75 -0.07 0 0 Z " fill="#424647" transform="translate(30.8125,20.9375)"/>
<path d="M0 0 C2.39 0.09 4.77 0.2 7.15 0.32 C7.96 0.36 8.77 0.39 9.59 0.42 C10.75 0.47 11.92 0.53 13.09 0.59 C13.27 0.59 13.27 0.59 14.18 0.62 C15.88 0.72 17.01 0.8 18.24 2.03 C18.49 2.35 18.74 2.67 19 3 C18.34 3 17.68 3 17 3 C17 3.66 17 4.32 17 5 C18.65 5 20.3 5 22 5 C22 5.33 22 5.66 22 6 C15.73 6 9.46 6 3 6 C3.99 5.01 4.98 4.02 6 3 C6 2.34 6 1.68 6 1 C4.02 1 2.04 1 0 1 C0 0.67 0 0.34 0 0 Z " fill="#F09C56" transform="translate(4,42)"/>
<path d="M0 0 C0.14 0 0.14 0 0.87 0 C1.77 0.01 2.68 0.02 3.59 0.04 C4.2 0.04 4.82 0.04 5.44 0.05 C6.95 0.06 8.45 0.08 9.96 0.1 C9.96 0.43 9.96 0.76 9.96 1.1 C9.65 1.12 9.35 1.14 9.03 1.16 C7.87 1.24 6.7 1.32 5.54 1.42 C4.79 1.47 4.05 1.52 3.31 1.57 C2.83 1.61 2.35 1.64 1.86 1.68 C1.64 1.7 1.64 1.7 0.54 1.78 C-0.88 1.98 -2.06 2.52 -3.36 3.1 C-6.17 4.26 -8.78 4.44 -11.78 4.51 C-12.31 4.53 -12.84 4.55 -13.37 4.57 C-14.75 4.62 -16.13 4.66 -17.51 4.7 C-18.92 4.74 -20.34 4.79 -21.75 4.84 C-24.51 4.94 -27.28 5.02 -30.04 5.1 C-29.76 4.96 -29.48 4.83 -29.2 4.7 C-28.84 4.52 -28.47 4.34 -28.1 4.16 C-27.74 3.99 -27.38 3.81 -27.01 3.63 C-26.04 3.1 -26.04 3.1 -25.04 2.1 C-24.17 1.95 -24.17 1.95 -23.12 1.91 C-22.73 1.89 -22.33 1.87 -21.93 1.86 C-21.5 1.84 -21.08 1.83 -20.64 1.82 C-20.2 1.8 -19.76 1.78 -19.31 1.76 C-17.91 1.7 -16.5 1.65 -15.1 1.6 C-13.26 1.53 -11.42 1.46 -9.57 1.38 C-9.15 1.37 -8.73 1.35 -8.29 1.34 C-7.89 1.32 -7.5 1.3 -7.09 1.29 C-6.91 1.28 -6.91 1.28 -6.03 1.25 C-3.85 0.92 -2.33 -0.04 0 0 Z " fill="#D38241" transform="translate(56.0390625,45.90234375)"/>
<path d="M0 0 C0 2.31 0 4.62 0 7 C-3.3 7 -6.6 7 -10 7 C-11 3 -11 3 -10.74 1.79 C-9.7 0.68 -8.64 0.55 -7.19 0.38 C-6.92 0.34 -6.65 0.3 -6.38 0.26 C-4.24 -0.02 -2.15 -0.08 0 0 Z " fill="#555552" transform="translate(77,35)"/>
<path d="M0 0 C-3.91 2.79 -7.29 4.32 -12.12 4.69 C-12.6 4.73 -13.07 4.77 -13.56 4.81 C-18.43 5.15 -23.18 4.7 -28 4 C-24.49 1.76 -20.85 1.36 -16.81 0.88 C-16.48 0.83 -16.15 0.79 -15.81 0.75 C-10.52 0.07 -5.34 -0.26 0 0 Z " fill="#4B4D4C" transform="translate(42,29)"/>
<path d="M0 0 C2.31 0.66 4.62 1.32 7 2 C7 2.66 7 3.32 7 4 C8.65 4 10.3 4 12 4 C12.33 4.99 12.66 5.98 13 7 C8.62 8.18 4.52 8.08 0 8 C0 5.36 0 2.72 0 0 Z " fill="#857C74" transform="translate(0,13)"/>
<path d="M0 0 C8.91 0 17.82 0 27 0 C27 0.33 27 0.66 27 1 C17.93 2.54 9.2 3.3 0 3 C0 2.01 0 1.02 0 0 Z " fill="#252622" transform="translate(25,0)"/>
<path d="M0 0 C0 0.33 0 0.66 0 1 C-3.92 1.53 -7.84 2.05 -11.76 2.56 C-13.58 2.8 -15.41 3.05 -17.23 3.29 C-18.99 3.53 -20.75 3.76 -22.52 3.99 C-23.19 4.08 -23.85 4.17 -24.52 4.26 C-29.04 4.87 -33.44 5.11 -38 5 C-35.73 3.19 -33.7 2.57 -30.86 2.15 C-30.46 2.08 -30.06 2.02 -29.65 1.95 C-28.35 1.75 -27.05 1.56 -25.75 1.38 C-25.31 1.31 -24.87 1.24 -24.41 1.17 C-16.24 -0.03 -8.24 -0.37 0 0 Z " fill="#221C15" transform="translate(38,37)"/>
<path d="M0 0 C3.63 0.33 7.26 0.66 11 1 C10.67 2.98 10.34 4.96 10 7 C8.68 7 7.36 7 6 7 C6 6.34 6 5.68 6 5 C3.69 4.67 1.38 4.34 -1 4 C-0.67 2.68 -0.34 1.36 0 0 Z " fill="#4B4E4E" transform="translate(44,19)"/>
<path d="M0 0 C1.29 0.01 2.57 0.01 3.86 0.02 C6.37 0.03 8.88 0.05 11.39 0.07 C11.39 0.4 11.39 0.73 11.39 1.07 C8.69 1.36 5.99 1.64 3.28 1.92 C2.37 2.02 1.45 2.12 0.54 2.21 C-5.2 2.83 -10.84 3.22 -16.61 3.07 C-16.61 2.41 -16.61 1.75 -16.61 1.07 C-11.13 -0.23 -5.6 -0.05 0 0 Z " fill="#7E705C" transform="translate(62.6103515625,-0.06866455078125)"/>
<path d="M0 0 C1.9 -0.05 3.8 -0.09 5.71 -0.11 C6.35 -0.12 7 -0.13 7.64 -0.15 C11.9 -0.26 15.14 0 19 2 C19 2.33 19 2.66 19 3 C16.62 3.03 14.23 3.04 11.85 3.05 C11.04 3.06 10.22 3.07 9.41 3.08 C8.25 3.09 7.08 3.09 5.91 3.1 C5.73 3.1 5.73 3.1 4.82 3.11 C2.95 3.11 1.61 3.05 0 2 C0 1.34 0 0.68 0 0 Z " fill="#616361" transform="translate(46,31)"/>
<path d="M0 0 C2.97 0 5.94 0 9 0 C9 0.66 9 1.32 9 2 C10.98 2 12.96 2 15 2 C11.74 3.91 9 4.39 5.25 4.62 C4.74 4.66 4.23 4.7 3.71 4.74 C2.48 4.84 1.24 4.92 0 5 C0 3.35 0 1.7 0 0 Z " fill="#30302C" transform="translate(0,0)"/>
<path d="M0 0 C2.31 0 4.62 0 7 0 C7 0.99 7 1.98 7 3 C9.64 2.67 12.28 2.34 15 2 C12.8 4.85 11.48 6.14 7.86 6.64 C6.24 6.8 4.62 6.93 3 7 C3.07 6.9 3.07 6.9 3.44 6.41 C3.62 6.15 3.81 5.89 4 5.62 C4.09 5.5 4.09 5.5 4.56 4.85 C5 4 5 4 5 2 C3.35 1.67 1.7 1.34 0 1 C0 0.67 0 0.34 0 0 Z " fill="#EC9650" transform="translate(30,39)"/>
<path d="M0 0 C1.65 0 3.3 0 5 0 C5 3.63 5 7.26 5 11 C3.35 10.67 1.7 10.34 0 10 C0.19 9.28 0.37 8.56 0.56 7.81 C1.15 4.95 0.72 2.81 0 0 Z " fill="#625F5B" transform="translate(72,2)"/>
<path d="M0 0 C0.39 0.01 0.39 0.01 2.38 0.06 C2.7 1.71 3.03 3.36 3.38 5.06 C4.37 5.39 5.36 5.72 6.38 6.06 C2.41 6.06 -1.55 6.06 -5.62 6.06 C-5.3 4.41 -4.97 2.76 -4.62 1.06 C-2.69 0.1 -2.05 -0.05 0 0 Z " fill="#EA944E" transform="translate(52.625,38.9375)"/>
<path d="M0 0 C2.64 0 5.28 0 8 0 C8 1.65 8 3.3 8 5 C5.36 5 2.72 5 0 5 C0 3.35 0 1.7 0 0 Z " fill="#A3794E" transform="translate(69,46)"/>
<path d="M0 0 C0.33 0.99 0.66 1.98 1 3 C-1.21 3.84 -3 4.14 -5.36 4.1 C-5.66 4.1 -5.97 4.09 -6.28 4.09 C-7.25 4.09 -8.22 4.08 -9.19 4.06 C-9.85 4.06 -10.51 4.05 -11.17 4.05 C-12.78 4.04 -14.39 4.02 -16 4 C-16 3.67 -16 3.34 -16 3 C-14.35 2.67 -12.7 2.34 -11 2 C-11 1.67 -11 1.34 -11 1 C-7.28 0.28 -3.8 -0.15 0 0 Z " fill="#61625F" transform="translate(44,30)"/>
<path d="M0 0 C0 1.32 0 2.64 0 4 C-4.29 4 -8.58 4 -13 4 C-12.67 3.01 -12.34 2.02 -12 1 C-7.95 -0.04 -4.15 -0.11 0 0 Z " fill="#414543" transform="translate(77,16)"/>
<path d="M0 0 C2.31 0.33 4.62 0.66 7 1 C6.34 2.32 5.68 3.64 5 5 C3.52 4.89 2.04 4.76 0.56 4.62 C0.14 4.59 -0.28 4.56 -0.71 4.53 C-1.12 4.49 -1.52 4.45 -1.93 4.41 C-2.12 4.4 -2.12 4.4 -3.06 4.32 C-4 4 -4 4 -5 2 C-3.35 2 -1.7 2 0 2 C0 1.34 0 0.68 0 0 Z " fill="#4B4F50" transform="translate(17,22)"/>
<path d="M0 0 C0 0.99 0 1.98 0 3 C-5.28 3 -10.56 3 -16 3 C-11.46 0.73 -11.46 0.73 -9.12 0.38 C-8.88 0.34 -8.63 0.3 -8.37 0.26 C-5.59 -0.12 -2.8 -0.09 0 0 Z " fill="#AD662D" transform="translate(67,48)"/>
<path d="M0 0 C0 0.99 0 1.98 0 3 C-1.58 3.06 -3.17 3.09 -4.75 3.12 C-5.19 3.14 -5.64 3.16 -6.09 3.18 C-9.22 3.22 -11.35 2.66 -14 1 C-9.3 0 -4.79 -0.12 0 0 Z " fill="#D2894C" transform="translate(21,40)"/>
<path d="M0 0 C0.49 -0.01 0.98 -0.02 1.48 -0.02 C5.44 -0 5.44 -0 6.71 1.27 C6.93 1.59 7.15 1.92 7.38 2.25 C1.52 3.03 -3.82 3.5 -9.62 2.25 C-6.44 0.23 -3.72 -0.06 0 0 Z " fill="#4A4D4D" transform="translate(36.625,24.75)"/>
<path d="M0 0 C0 0.66 0 1.32 0 2 C0.66 2.33 1.32 2.66 2 3 C-1.83 4.9 -4.81 5.26 -9 5 C-9.09 3.87 -9.09 3.17 -8.55 2.15 C-6.09 -0.66 -3.46 -0.3 0 0 Z " fill="#ED944D" transform="translate(10,43)"/>
<path d="M0 0 C1.32 0 2.64 0 4 0 C4 0.66 4 1.32 4 2 C4.99 2.33 5.98 2.66 7 3 C5.02 3.33 3.04 3.66 1 4 C1 4.66 1 5.32 1 6 C3.31 6 5.62 6 8 6 C8 6.33 8 6.66 8 7 C5.36 7.33 2.72 7.66 0 8 C0 5.36 0 2.72 0 0 Z " fill="#E5904C" transform="translate(0,42)"/>
<path d="M0 0 C0.14 0 0.14 0 0.87 0 C1.77 0.01 2.68 0.02 3.59 0.04 C4.2 0.04 4.82 0.04 5.44 0.05 C6.95 0.06 8.45 0.08 9.96 0.1 C7.87 2.46 6.13 2.57 3.02 2.85 C2.58 2.9 2.14 2.96 1.68 3.02 C-0.91 3.27 -2.5 3.21 -4.56 1.54 C-4.72 1.4 -4.88 1.25 -5.04 1.1 C-3.36 0.07 -1.92 -0.04 0 0 Z " fill="#494945" transform="translate(15.0390625,35.90234375)"/>
<path d="M0 0 C0.46 0.01 0.91 0.01 1.38 0.02 C1.87 0.02 2.37 0.02 2.87 0.03 C3.4 0.03 3.92 0.04 4.44 0.05 C4.96 0.06 5.49 0.06 6.02 0.06 C7.3 0.08 8.59 0.09 9.88 0.11 C9.59 1.09 9.59 1.09 8.88 2.11 C7.77 2.47 6.66 2.49 5.5 2.53 C5.33 2.54 5.33 2.54 4.49 2.59 C3.43 2.65 2.37 2.69 1.31 2.74 C0.6 2.78 -0.12 2.82 -0.84 2.86 C-2.6 2.95 -4.36 3.04 -6.12 3.11 C-5.85 2.98 -5.57 2.85 -5.28 2.71 C-4.92 2.53 -4.56 2.36 -4.19 2.18 C-3.83 2 -3.47 1.83 -3.1 1.65 C-0.12 0.01 -0.12 0.01 0 0 Z " fill="#D78544" transform="translate(32.123291015625,47.886474609375)"/>
<path d="M0 0 C0 0.66 0 1.32 0 2 C1.65 2.33 3.3 2.66 5 3 C5 3.33 5 3.66 5 4 C2.69 4 0.38 4 -2 4 C-2 4.66 -2 5.32 -2 6 C-4.31 6 -6.62 6 -9 6 C-8.01 5.67 -7.02 5.34 -6 5 C-6.04 4.7 -6.08 4.41 -6.12 4.1 C-6 3 -6 3 -5.2 2.15 C-5.02 2.02 -5.02 2.02 -4.12 1.38 C-3.78 1.11 -3.43 0.85 -3.07 0.59 C-1.92 -0.04 -1.29 -0.13 0 0 Z " fill="#454848" transform="translate(15,26)"/>
<path d="M0 0 C2.67 0.07 5.34 0.16 8.01 0.26 C8.92 0.3 9.82 0.32 10.73 0.35 C12.04 0.38 13.34 0.43 14.65 0.49 C15.05 0.49 15.46 0.5 15.88 0.51 C18.65 0.65 18.65 0.65 19.71 1.7 C20.22 2.45 20.63 3.18 21 4 C18.49 3.76 15.98 3.51 13.47 3.26 C12.62 3.17 11.77 3.09 10.92 3.01 C9.69 2.89 8.46 2.76 7.23 2.63 C6.85 2.6 6.47 2.57 6.08 2.53 C3.59 2.26 1.95 1.59 0 0 Z " fill="#E28F47" transform="translate(42,37)"/>
<path d="M0 0 C0.66 0.17 0.66 0.17 4 1 C3.67 1.98 3.35 2.95 3.02 3.93 C3.02 4.11 3.02 4.11 3 5 C3.66 5.66 4.32 6.32 5 7 C3.02 7.33 1.04 7.66 -1 8 C-0.67 5.36 -0.34 2.72 0 0 Z " fill="#6A6762" transform="translate(70,6)"/>
<path d="M0 0 C0.83 0.33 0.83 0.33 5 2 C5 2.99 5 3.98 5 5 C7.31 5.33 9.62 5.66 12 6 C12 6.33 12 6.66 12 7 C10.54 7.06 9.08 7.09 7.62 7.12 C7.21 7.14 6.8 7.16 6.38 7.18 C2.95 7.23 2.95 7.23 1.71 6.09 C0.78 4.66 0.78 4.66 0.94 3.5 C1.14 1.88 0.86 1.72 0 0 Z " fill="#575955" transform="translate(41,28)"/>
<path d="M0 0 C0 0.66 0 1.32 0 2 C-5.11 2.13 -9.96 1.88 -15 1 C-15 0.67 -15 0.34 -15 0 C-9.76 -0.9 -5.22 -1.06 0 0 Z " fill="#434546" transform="translate(50,24)"/>
<path d="M0 0 C0.99 0 1.98 0 3 0 C3.08 0.31 3.17 0.62 3.25 0.94 C4.45 2.64 6 2.61 8 3 C8.33 4.32 8.66 5.64 9 7 C8.34 7 7.68 7 7 7 C7 6.34 7 5.68 7 5 C6.66 4.94 6.32 4.88 5.98 4.82 C5.53 4.73 5.08 4.65 4.62 4.56 C4.18 4.48 3.74 4.4 3.29 4.32 C2.07 4.02 1.1 3.61 0 3 C0 2.01 0 1.02 0 0 Z " fill="#7F776E" transform="translate(0,10)"/>
<path d="M0 0 C3.63 0.33 7.26 0.66 11 1 C11 1.33 11 1.66 11 2 C9.02 2.33 7.04 2.66 5 3 C5 3.66 5 4.32 5 5 C4.01 5 3.02 5 2 5 C2.07 4.28 2.13 3.57 2.2 2.85 C2 2 2 2 0 0 Z " fill="#43423E" transform="translate(0,34)"/>
<path d="M0 0 C0.37 0.05 0.74 0.09 1.13 0.14 C1.53 0.19 1.93 0.24 2.35 0.29 C2.56 0.32 2.56 0.32 3.62 0.46 C3.84 0.49 3.84 0.49 4.91 0.62 C5.96 0.75 7.01 0.88 8.06 1.02 C8.06 1.35 8.06 1.68 8.06 2.02 C5.42 2.02 2.78 2.02 0.06 2.02 C0.06 3.67 0.06 5.32 0.06 7.02 C-0.6 7.02 -1.26 7.02 -1.94 7.02 C-1.97 6.04 -1.99 5.06 -2 4.08 C-2.01 3.81 -2.02 3.53 -2.03 3.24 C-2.04 2.5 -1.99 1.76 -1.94 1.02 C-0.94 0.02 -0.94 0.02 0 0 Z " fill="#2E1F15" transform="translate(68.939697265625,43.978271484375)"/>
<path d="M0 0 C3.3 0.33 6.6 0.66 10 1 C10 1.33 10 1.66 10 2 C8.02 2.16 8.02 2.16 -2 3 C-1.34 2.01 -0.68 1.02 0 0 Z " fill="#E38E4A" transform="translate(37,45)"/>
<path d="M0 0 C0.44 0.02 0.87 0.04 1.32 0.05 C1.65 0.08 1.98 0.1 2.31 0.12 C2.31 0.79 2.31 1.45 2.31 2.12 C3.3 2.45 4.29 2.79 5.31 3.12 C1.47 4.89 -1.93 3.4 -5.69 2.12 C-3.78 0.66 -2.49 -0.13 0 0 Z " fill="#585A59" transform="translate(59.6875,28.875)"/>
<path d="M0 0 C0 1.32 0 2.64 0 4 C-3.3 3.34 -6.6 2.68 -10 2 C-10 1.67 -10 1.34 -10 1 C-8.71 0.83 -7.42 0.67 -6.12 0.5 C-5.94 0.48 -5.94 0.48 -5.02 0.36 C-4.67 0.31 -4.31 0.27 -3.95 0.22 C-3.78 0.2 -3.78 0.2 -2.96 0.09 C-1.98 -0 -0.99 0 0 0 Z " fill="#4B4C49" transform="translate(77,30)"/>
<path d="M0 0 C4.77 -0.25 8.57 0.18 13 2 C13 2.33 13 2.66 13 3 C10.36 3 7.72 3 5 3 C5 2.34 5 1.68 5 1 C3.35 1 1.7 1 0 1 C0 0.67 0 0.34 0 0 Z " fill="#31312B" transform="translate(16,1)"/>
<path d="M0 0 C-0.33 1.32 -0.66 2.64 -1 4 C-2.32 4 -3.64 4 -5 4 C-5.33 2.68 -5.66 1.36 -6 0 C-3.95 -1.54 -2.27 -0.68 0 0 Z " fill="#494C4B" transform="translate(55,22)"/>
<path d="M0 0 C2.64 0 5.28 0 8 0 C8 0.66 8 1.32 8 2 C8.99 2.33 9.98 2.66 11 3 C9.35 3.33 7.7 3.66 6 4 C6 3.01 6 2.02 6 1 C4.02 1 2.04 1 0 1 C0 0.67 0 0.34 0 0 Z " fill="#D68A4C" transform="translate(31,38)"/>
<path d="M0 0 C1.32 0.66 2.64 1.32 4 2 C3.67 3.32 3.34 4.64 3 6 C1.35 5.01 -0.3 4.02 -2 3 C-1.34 2.67 -0.68 2.34 0 2 C0 1.34 0 0.68 0 0 Z " fill="#DE9554" transform="translate(63,41)"/>
<path d="M0 0 C1.98 0 3.96 0 6 0 C6 0.66 6 1.32 6 2 C5.34 2 4.68 2 4 2 C4 2.66 4 3.32 4 4 C3.01 3.67 2.02 3.34 1 3 C1.33 2.34 1.66 1.68 2 1 C1.34 0.67 0.68 0.34 0 0 Z " fill="#ED954E" transform="translate(25,42)"/>
<path d="M0 0 C2.31 0 4.62 0 7 0 C7 0.99 7 1.98 7 3 C4.69 2.34 2.38 1.68 0 1 C0 0.67 0 0.34 0 0 Z " fill="#F2984E" transform="translate(30,39)"/>
<path d="M0 0 C2.31 0.66 4.62 1.32 7 2 C5.68 2.99 4.36 3.98 3 5 C1.68 3.68 0.36 2.36 -1 1 C-0.67 0.67 -0.34 0.34 0 0 Z " fill="#332519" transform="translate(61,35)"/>
<path d="M0 0 C0.99 0.33 1.98 0.66 3 1 C2.89 1.65 2.76 2.29 2.62 2.94 C2.59 3.12 2.59 3.12 2.41 4.03 C2 5 2 5 0 6 C0 4.02 0 2.04 0 0 Z " fill="#65635F" transform="translate(71,6)"/>
<path d="M0 0 C1.32 0.33 2.64 0.66 4 1 C3.67 1.49 3.67 1.49 2 4 C0.68 3.67 -0.64 3.34 -2 3 C-1.67 2.69 -1.34 2.38 -1 2.06 C0 1 0 1 0 0 Z " fill="#EB934B" transform="translate(35,42)"/>
<path d="M0 0 C0.99 0 1.98 0 3 0 C3 0.66 3 1.32 3 2 C3.99 2.33 4.98 2.66 6 3 C4.02 3 2.04 3 0 3 C0 2.01 0 1.02 0 0 Z " fill="#E6924D" transform="translate(53,42)"/>
<path d="M0 0 C1.32 0 2.64 0 4 0 C4 0.66 4 1.32 4 2 C3.34 2 2.68 2 2 2 C1.67 2.66 1.34 3.32 1 4 C0.67 2.68 0.34 1.36 0 0 Z " fill="#595755" transform="translate(73,2)"/>
<path d="M0 0 C0.66 0 1.32 0 2 0 C2 1.65 2 3.3 2 5 C1.01 3.68 0.02 2.36 -1 1 C-0.67 0.67 -0.34 0.34 0 0 Z " fill="#76706C" transform="translate(67,4)"/>
</g></svg>